<svg width="64" height="65" viewBox="0 0 64 65" fill="none" xmlns="http://www.w3.org/2000/svg">
<circle cx="31.7094" cy="32.595" r="29.1439" fill="#68A7D4" stroke="#06243B" stroke-width="5"/>
<path fill-rule="evenodd" clip-rule="evenodd" d="M46.5656 19.9236C46.9667 20.4761 47.1319 21.1654 47.0249 21.8398C46.9179 22.5141 46.5474 23.1184 45.995 23.5197L28.5723 45.4052C28.2804 45.6172 27.9497 45.7696 27.5988 45.8537C27.248 45.9378 26.8841 45.952 26.5278 45.8955C26.1715 45.839 25.8298 45.7128 25.5223 45.5242C25.2148 45.3356 24.9474 45.0883 24.7355 44.7963L16.7673 33.8242C16.5616 33.5511 16.4124 33.2397 16.3283 32.9083C16.2443 32.5768 16.2271 32.232 16.2777 31.8938C16.3284 31.5557 16.4459 31.231 16.6233 30.9387C16.8008 30.6465 17.0347 30.3925 17.3114 30.1916C17.5881 29.9907 17.902 29.8469 18.2348 29.7686C18.5677 29.6904 18.9128 29.6792 19.25 29.7357C19.5872 29.7922 19.9098 29.9153 20.1989 30.0978C20.4881 30.2804 20.7379 30.5186 20.934 30.7988L27.4898 39.8277L42.9678 19.3526C43.2415 19.1538 43.5517 19.0108 43.8807 18.9319C44.2096 18.853 44.5509 18.8396 44.885 18.8926C45.2191 18.9457 45.5395 19.064 45.8279 19.2409C46.1163 19.4178 46.3669 19.6498 46.5656 19.9236Z" fill="#06243B" stroke="#06243B" stroke-width="4"/>
</svg>
