<svg width="48" height="48" viewBox="0 0 48 48" fill="none" xmlns="http://www.w3.org/2000/svg">
<g clip-path="url(#clip0_79_115)">
<rect width="48" height="48" fill="#005941"/>
<path d="M24.1186 29.15L24.1726 29.244C24.2447 29.3673 24.3626 29.4572 24.5007 29.4939C24.6388 29.5306 24.7858 29.5112 24.9096 29.44L28.9636 27.099C29.5517 26.7581 30.04 26.2688 30.3797 25.68C30.7194 25.0913 30.8987 24.4237 30.8996 23.744V21.953C30.8976 21.3363 30.7344 20.7309 30.4262 20.1967C30.118 19.6626 29.6755 19.2183 29.1426 18.908L12.6156 9.27797C12.3498 9.12374 12.0483 9.04168 11.7409 9.03993C11.4336 9.03817 11.1312 9.11678 10.8636 9.26797L5.55561 12.279C5.41735 12.3577 5.30237 12.4716 5.22229 12.6091C5.14221 12.7466 5.09989 12.9028 5.09961 13.062V33.74C5.09991 33.8981 5.14173 34.0534 5.22088 34.1902C5.30002 34.3271 5.41373 34.4408 5.55061 34.52L23.6396 44.905C23.902 45.0548 24.1989 45.1337 24.5011 45.1337C24.8033 45.1337 25.1002 45.0548 25.3626 44.905L42.7426 34.925C43.0941 34.7227 43.3862 34.4315 43.5895 34.0806C43.7927 33.7297 43.9 33.3315 43.9006 32.926V13.693C43.9001 13.3219 43.8019 12.9575 43.6158 12.6364C43.4297 12.3153 43.1623 12.0489 42.8406 11.864L25.7196 2.03497C25.5829 1.95669 25.428 1.9156 25.2705 1.91577C25.1129 1.91595 24.9582 1.95739 24.8216 2.03597L21.1616 4.14797C21.0245 4.22716 20.9107 4.34114 20.8317 4.47838C20.7527 4.61562 20.7113 4.77127 20.7117 4.92962C20.7121 5.08797 20.7543 5.24341 20.834 5.38025C20.9137 5.51708 21.0281 5.63047 21.1656 5.70897L35.8856 14.139C36.5575 14.5248 37.1159 15.0808 37.5046 15.7511C37.8933 16.4213 38.0985 17.1822 38.0996 17.957V30.047C38.0997 30.1325 38.0769 30.2166 38.0337 30.2904C37.9904 30.3642 37.9283 30.4252 37.8536 30.467L27.3686 36.347C26.4957 36.8493 25.5062 37.1137 24.4991 37.1137C23.492 37.1137 22.5025 36.8493 21.6296 36.347L12.1226 31.014C11.7518 30.8063 11.4431 30.5035 11.2281 30.1369C11.0132 29.7703 10.8998 29.353 10.8996 28.928V16.157L23.9876 23.713C24.0215 23.7325 24.0497 23.7607 24.0694 23.7945C24.089 23.8284 24.0994 23.8668 24.0996 23.906V28.972L24.1186 29.15ZM10.0996 14.772V28.929C10.0998 29.4962 10.251 30.0531 10.5379 30.5424C10.8247 31.0317 11.2368 31.4358 11.7316 31.713L21.2296 37.04C22.2244 37.6118 23.3517 37.9128 24.4991 37.9128C25.6465 37.9128 26.7739 37.6118 27.7686 37.04L38.2436 31.166C38.4425 31.0546 38.6081 30.8921 38.7234 30.6955C38.8387 30.4988 38.8995 30.2749 38.8996 30.047V17.957C38.8983 17.0414 38.6558 16.1423 38.1966 15.3502C37.7373 14.5581 37.0775 13.901 36.2836 13.445L21.5636 5.01497C21.5483 5.00616 21.5357 4.99347 21.5269 4.97819C21.5181 4.96291 21.5135 4.94559 21.5136 4.92797C21.5137 4.91038 21.5184 4.89314 21.5272 4.87789C21.5359 4.86265 21.5485 4.84993 21.5636 4.84097L25.2216 2.72897C25.2369 2.72056 25.2541 2.71616 25.2716 2.71616C25.2891 2.71616 25.3063 2.72056 25.3216 2.72897L42.4416 12.559C42.6412 12.6736 42.807 12.8387 42.9225 13.0378C43.0381 13.2369 43.0991 13.4628 43.0996 13.693V32.925C43.0992 33.1898 43.0291 33.4499 42.8965 33.6792C42.7638 33.9084 42.5731 34.0987 42.3436 34.231L24.9636 44.21C24.8224 44.2905 24.6627 44.3328 24.5001 44.3328C24.3376 44.3328 24.1778 44.2905 24.0366 44.21L5.94961 33.826C5.93435 33.8172 5.92169 33.8045 5.91291 33.7892C5.90413 33.7739 5.89954 33.7566 5.89961 33.739V13.063C5.89947 13.0452 5.90401 13.0277 5.91279 13.0123C5.92157 12.9968 5.93427 12.9839 5.94961 12.975L11.2586 9.96297C11.4043 9.88044 11.569 9.83756 11.7364 9.83861C11.9038 9.83967 12.068 9.88461 12.2126 9.96897L28.7406 19.599C29.1529 19.8387 29.4952 20.1821 29.7338 20.595C29.9724 21.0079 30.0988 21.4761 30.1006 21.953V23.744C30.0995 24.2834 29.9568 24.8132 29.687 25.2803C29.4171 25.7474 29.0294 26.1355 28.5626 26.406L24.8996 28.522V23.906C24.8993 23.7266 24.8519 23.5505 24.7623 23.3952C24.6726 23.2399 24.5438 23.1109 24.3886 23.021L10.0996 14.772Z" fill="white"/>
</g>
<defs>
<clipPath id="clip0_79_115">
<rect width="48" height="48" fill="white"/>
</clipPath>
</defs>
</svg>
