<svg width="48" height="48" viewBox="0 0 48 48" fill="none" xmlns="http://www.w3.org/2000/svg">
<g clip-path="url(#clip0_75_234)">
<path d="M3 12.543V39.0458L23.325 47.8605C23.7554 48.0477 24.2441 48.0482 24.675 47.862L41.712 40.4715C43.7084 39.6055 45 37.6369 45 35.4608V8.95876L24.675 0.14251C24.244 -0.0439226 23.7552 -0.0439226 23.3243 0.14251L6.288 7.53301C4.29211 8.39883 3.00045 10.3667 3 12.5423V12.543Z" fill="url(#paint0_radial_75_234)"/>
<mask id="mask0_75_234" style="mask-type:alpha" maskUnits="userSpaceOnUse" x="3" y="0" width="21" height="49">
<path d="M23.3235 0.142953L6.33225 7.58145C4.42196 8.41765 3.1875 10.3052 3.1875 12.3905V39.0455L23.3235 47.8595C23.5369 47.9526 23.7672 48.0005 24 48.0005V0.00195312C23.7671 0.00195312 23.5368 0.0502827 23.3235 0.143703V0.142953Z" fill="white"/>
</mask>
<g mask="url(#mask0_75_234)">
<path d="M23.3243 0.142954L6.27375 7.53795C4.28646 8.39995 3.00038 10.3593 3 12.5255V39.0455L23.325 47.8602C23.5378 47.9534 23.7677 48.0012 24 48.0012V0.00195312C23.7674 0.00195312 23.5373 0.0497678 23.3243 0.142954Z" fill="url(#paint1_linear_75_234)"/>
</g>
<mask id="mask1_75_234" style="mask-type:alpha" maskUnits="userSpaceOnUse" x="3" y="0" width="21" height="49">
<path d="M23.3235 0.142953L6.33225 7.58145C4.42196 8.41765 3.1875 10.3052 3.1875 12.3905V39.0455L23.3235 47.8595C23.5369 47.9526 23.7672 48.0005 24 48.0005V0.00195312C23.7671 0.00195312 23.5368 0.0502827 23.3235 0.143703V0.142953Z" fill="white"/>
</mask>
<g mask="url(#mask1_75_234)">
</g>
<mask id="mask2_75_234" style="mask-type:alpha" maskUnits="userSpaceOnUse" x="12" y="0" width="24" height="48">
<path d="M25.2675 47.4273L34.32 37.1223C35.1614 36.1641 35.6252 34.9324 35.625 33.6573V4.93526L24.6765 0.142757C24.2452 -0.045958 23.7548 -0.045958 23.3235 0.142757L12.375 4.93526V33.6573C12.3748 34.9324 12.8386 36.1641 13.68 37.1223L22.7325 47.4273C23.0539 47.79 23.5153 47.9976 24 47.9976C24.4847 47.9976 24.9461 47.79 25.2675 47.4273Z" fill="white"/>
</mask>
<g mask="url(#mask2_75_234)">
<path d="M22.7325 47.4272C23.0529 47.7917 23.5147 48.0006 24 48.0006C24.4853 48.0006 24.9471 47.7917 25.2675 47.4272L34.32 37.1222C35.1614 36.164 35.6252 34.9323 35.625 33.6572V4.93518L24.675 0.142677C24.2445 -0.0459313 23.7547 -0.0459313 23.3242 0.142677L12.375 4.89243V33.6572C12.3748 34.9323 12.8386 36.164 13.68 37.1222L22.7325 47.4272Z" fill="url(#paint2_linear_75_234)"/>
</g>
<path d="M10.5705 32.433C10.5271 32.408 10.5 32.3617 10.5 32.3115V17.2755C10.5 17.2249 10.5273 17.1783 10.5713 17.1533L14.3257 15.0323C14.6865 14.8283 15.1291 14.8341 15.4845 15.0473L26.6535 21.7538C27.3312 22.1466 27.7488 22.8702 27.75 23.6535V24.8453C27.7485 25.7268 27.2783 26.541 26.5155 26.9828L24.213 28.494C24.1842 28.5131 24.1474 28.5148 24.117 28.4985C24.0866 28.4822 24.0676 28.4505 24.0675 28.416V25.071C24.0674 24.9134 23.9834 24.7676 23.847 24.6885L13.6373 18.771C13.6083 18.7541 13.5724 18.754 13.5433 18.7707C13.5142 18.7874 13.4962 18.8185 13.4963 18.852V28.2915C13.496 29.0036 13.8776 29.6612 14.496 30.0143L21.456 33.9848C23.0303 34.8935 24.9697 34.8935 26.544 33.9848L34.188 29.6235C34.3831 29.512 34.5036 29.3045 34.5038 29.0798V21.4425C34.5039 20.2069 33.843 19.0656 32.7712 18.4508L20.6925 11.5245C20.6637 11.5077 20.646 11.4769 20.646 11.4435C20.646 11.4102 20.6637 11.3793 20.6925 11.3625L23.9295 9.49353C23.9729 9.46863 24.0263 9.46863 24.0697 9.49353L36.8888 16.8435C37.2665 17.0596 37.4997 17.4614 37.5 17.8965V31.6088C37.5 32.0936 37.2403 32.5413 36.8197 32.7825L24.4702 39.8633C24.179 40.0304 23.821 40.0304 23.5297 39.8633L10.5705 32.433Z" fill="white"/>
</g>
<defs>
<radialGradient id="paint0_radial_75_234" cx="0" cy="0" r="1" gradientUnits="userSpaceOnUse" gradientTransform="translate(35.4456 30.9976) scale(40.8544 40.8544)">
<stop offset="0.003" stop-color="#8C5EF7"/>
<stop offset="0.514" stop-color="#7245DB"/>
</radialGradient>
<linearGradient id="paint1_linear_75_234" x1="16.4503" y1="2.83845" x2="-1.22731" y2="33.4568" gradientUnits="userSpaceOnUse">
<stop stop-color="#9263FF"/>
<stop offset="0.055" stop-color="#996DFF" stop-opacity="0.797"/>
<stop offset="0.12" stop-color="#A078FF" stop-opacity="0.588"/>
<stop offset="0.185" stop-color="#A781FF" stop-opacity="0.408"/>
<stop offset="0.25" stop-color="#AC89FF" stop-opacity="0.261"/>
<stop offset="0.314" stop-color="#B08FFF" stop-opacity="0.147"/>
<stop offset="0.377" stop-color="#B393FF" stop-opacity="0.065"/>
<stop offset="0.44" stop-color="#B495FF" stop-opacity="0.016"/>
<stop offset="0.5" stop-color="#B596FF" stop-opacity="0"/>
</linearGradient>
<linearGradient id="paint2_linear_75_234" x1="24" y1="0.000926799" x2="24" y2="48.0009" gradientUnits="userSpaceOnUse">
<stop stop-color="#6233CF" stop-opacity="0"/>
<stop offset="0.067" stop-color="#6233CF" stop-opacity="0.02"/>
<stop offset="0.137" stop-color="#6233CF" stop-opacity="0.08"/>
<stop offset="0.207" stop-color="#6233CF" stop-opacity="0.181"/>
<stop offset="0.279" stop-color="#6233CF" stop-opacity="0.321"/>
<stop offset="0.351" stop-color="#6233CF" stop-opacity="0.502"/>
<stop offset="0.423" stop-color="#6233CF" stop-opacity="0.724"/>
<stop offset="0.495" stop-color="#6233CF" stop-opacity="0.981"/>
<stop offset="0.5" stop-color="#6233CF"/>
<stop offset="0.575" stop-color="#6233CF" stop-opacity="0.98"/>
<stop offset="0.653" stop-color="#6233CF" stop-opacity="0.92"/>
<stop offset="0.732" stop-color="#6233CF" stop-opacity="0.82"/>
<stop offset="0.813" stop-color="#6233CF" stop-opacity="0.679"/>
<stop offset="0.893" stop-color="#6233CF" stop-opacity="0.498"/>
<stop offset="0.974" stop-color="#6233CF" stop-opacity="0.28"/>
<stop offset="1" stop-color="#6233CF" stop-opacity="0.2"/>
</linearGradient>
<clipPath id="clip0_75_234">
<rect width="48" height="48" fill="white"/>
</clipPath>
</defs>
</svg>
