<svg width="48" height="48" viewBox="0 0 48 48" fill="none" xmlns="http://www.w3.org/2000/svg">
<g clip-path="url(#clip0_74_84)">
<path d="M3 12.5412V39.0439L23.325 47.8594C23.7555 48.0463 24.2443 48.0466 24.675 47.8602L41.712 40.4704C43.7084 39.6044 45 37.6358 45 35.4597V8.95691L24.675 0.141411C24.244 -0.0450212 23.7552 -0.0450212 23.3243 0.141411L6.288 7.53041C4.29161 8.39645 3 10.365 3 12.5412Z" fill="url(#paint0_radial_74_84)"/>
<mask id="mask0_74_84" style="mask-type:alpha" maskUnits="userSpaceOnUse" x="12" y="0" width="24" height="48">
<path d="M25.2675 47.4258L34.32 37.1208C35.1614 36.1626 35.6252 34.9309 35.625 33.6558V4.93526L24.6765 0.142757C24.2452 -0.045958 23.7548 -0.045958 23.3235 0.142757L12.375 4.93526V33.6573C12.3748 34.9324 12.8386 36.1641 13.68 37.1223L22.7325 47.4273C23.0539 47.79 23.5153 47.9976 24 47.9976C24.4847 47.9976 24.9461 47.79 25.2675 47.4273V47.4258Z" fill="white"/>
</mask>
<g mask="url(#mask0_74_84)">
<path d="M22.7325 47.4258C23.0529 47.7903 23.5147 47.9993 24 47.9993C24.4853 47.9993 24.9471 47.7903 25.2675 47.4258L34.32 37.1208C35.1614 36.1626 35.6252 34.931 35.625 33.6558V4.9353L24.675 0.142799C24.2445 -0.0458093 23.7547 -0.0458093 23.3242 0.142799L12.375 4.8918V33.6565C12.3748 34.9317 12.8386 36.1634 13.68 37.1215L22.7325 47.4258Z" fill="url(#paint1_linear_74_84)"/>
</g>
<mask id="mask1_74_84" style="mask-type:alpha" maskUnits="userSpaceOnUse" x="3" y="0" width="21" height="49">
<path d="M23.3235 0.142727L6.33225 7.57898C4.42196 8.41518 3.1875 10.3027 3.1875 12.388V39.0452L23.3235 47.8592C23.5369 47.9524 23.7672 48.0002 24 48.0002V0.000976562C23.7672 0.000976562 23.5369 0.0488143 23.3235 0.141977V0.142727Z" fill="white"/>
</mask>
<g mask="url(#mask1_74_84)">
<path d="M23.3243 0.141977L6.27375 7.53623C4.28621 8.39833 3 10.358 3 12.5245V39.0445L23.325 47.8592C23.5379 47.9521 23.7677 47.9995 24 47.9995V0.000976562C23.7674 0.000976562 23.5373 0.0487912 23.3243 0.141977Z" fill="url(#paint2_linear_74_84)"/>
</g>
<mask id="mask2_74_84" style="mask-type:alpha" maskUnits="userSpaceOnUse" x="3" y="0" width="21" height="49">
<path d="M23.3235 0.142727L6.33225 7.57898C4.42196 8.41518 3.1875 10.3027 3.1875 12.388V39.0452L23.3235 47.8592C23.5369 47.9524 23.7672 48.0002 24 48.0002V0.000976562C23.7672 0.000976562 23.5369 0.0488143 23.3235 0.141977V0.142727Z" fill="white"/>
</mask>
<g mask="url(#mask2_74_84)">
</g>
<path d="M33.4785 32.586C33.543 32.5541 33.6187 32.5541 33.6832 32.586L37.6155 34.5255C37.6569 34.5455 37.6831 34.5875 37.6831 34.6335C37.6831 34.6795 37.6569 34.7214 37.6155 34.7415L29.343 38.82C29.1137 38.9331 28.8448 38.9331 28.6155 38.82L20.343 34.7415C20.3016 34.7214 20.2753 34.6795 20.2753 34.6335C20.2753 34.5875 20.3016 34.5455 20.343 34.5255L24.2752 32.586C24.3397 32.5541 24.4154 32.5541 24.48 32.586L28.686 34.6605C28.8708 34.7517 29.0876 34.7517 29.2725 34.6605L33.4785 32.586ZM20.3422 27.6825C20.3012 27.7027 20.2753 27.7444 20.2753 27.7901C20.2753 27.8358 20.3012 27.8775 20.3422 27.8977L28.686 32.01C28.8708 32.1012 29.0876 32.1012 29.2725 32.01L37.6155 27.8977C37.6564 27.8775 37.6824 27.8358 37.6824 27.7901C37.6824 27.7444 37.6564 27.7027 37.6155 27.6825L29.0812 23.475C29.0169 23.4433 28.9415 23.4433 28.8772 23.475L20.3422 27.6825ZM17.9047 21.249C15.3975 15.1335 23.4187 11.7375 26.6872 17.043C26.7366 17.1227 26.8377 17.153 26.9227 17.1135C30.468 15.4582 33.5265 17.997 32.6722 21.6405C32.6424 21.7663 32.7034 21.896 32.8192 21.9532L38.8665 24.9345C38.8977 24.9501 38.9351 24.9467 38.963 24.9258C38.991 24.9048 39.0047 24.8699 38.9985 24.8355C38.6924 23.0674 37.7353 21.478 36.3157 20.3805C36.2765 20.3485 36.2522 20.3019 36.2482 20.2515C36.1121 18.2569 35.1626 16.4057 33.622 15.1316C32.0813 13.8574 30.0849 13.2721 28.1002 13.5127C28.0479 13.518 27.9958 13.5009 27.957 13.4655C22.7745 8.763 14.919 12.042 14.3017 19.086C14.2962 19.1504 14.2575 19.2072 14.1997 19.236C4.33496 24.1455 9.74096 37.7077 20.1225 31.4175C10.8637 32.6452 11.2747 22.0252 17.9032 21.249H17.9047Z" fill="white"/>
</g>
<defs>
<radialGradient id="paint0_radial_74_84" cx="0" cy="0" r="1" gradientUnits="userSpaceOnUse" gradientTransform="translate(35.4456 30.9967) scale(40.8544 40.8544)">
<stop stop-color="#858DFF"/>
<stop offset="0.515" stop-color="#5864FA"/>
</radialGradient>
<linearGradient id="paint1_linear_74_84" x1="24" y1="-0.000451131" x2="24" y2="47.9995" gradientUnits="userSpaceOnUse">
<stop stop-color="#4551E0" stop-opacity="0"/>
<stop offset="0.073" stop-color="#4551E0" stop-opacity="0.019"/>
<stop offset="0.148" stop-color="#4551E0" stop-opacity="0.074"/>
<stop offset="0.224" stop-color="#4551E0" stop-opacity="0.167"/>
<stop offset="0.301" stop-color="#4551E0" stop-opacity="0.297"/>
<stop offset="0.379" stop-color="#4551E0" stop-opacity="0.464"/>
<stop offset="0.456" stop-color="#4551E0" stop-opacity="0.665"/>
<stop offset="0.501" stop-color="#4551E0" stop-opacity="0.8"/>
<stop offset="0.604" stop-color="#4551E0" stop-opacity="0.781"/>
<stop offset="0.711" stop-color="#4551E0" stop-opacity="0.726"/>
<stop offset="0.819" stop-color="#4551E0" stop-opacity="0.633"/>
<stop offset="0.928" stop-color="#4551E0" stop-opacity="0.505"/>
<stop offset="1" stop-color="#4551E0" stop-opacity="0.4"/>
</linearGradient>
<linearGradient id="paint2_linear_74_84" x1="16.4504" y1="2.83748" x2="-1.22712" y2="33.4551" gradientUnits="userSpaceOnUse">
<stop offset="0.005" stop-color="#8087FF"/>
<stop offset="0.06" stop-color="#8087FF" stop-opacity="0.797"/>
<stop offset="0.124" stop-color="#8087FF" stop-opacity="0.588"/>
<stop offset="0.188" stop-color="#8087FF" stop-opacity="0.408"/>
<stop offset="0.253" stop-color="#8087FF" stop-opacity="0.261"/>
<stop offset="0.317" stop-color="#8087FF" stop-opacity="0.147"/>
<stop offset="0.38" stop-color="#8087FF" stop-opacity="0.065"/>
<stop offset="0.442" stop-color="#8087FF" stop-opacity="0.016"/>
<stop offset="0.502" stop-color="#8087FF" stop-opacity="0"/>
</linearGradient>
<clipPath id="clip0_74_84">
<rect width="48" height="48" fill="white"/>
</clipPath>
</defs>
</svg>
