<svg width="48" height="48" viewBox="0 0 48 48" fill="none" xmlns="http://www.w3.org/2000/svg">
<g clip-path="url(#clip0_75_309)">
<path d="M3 12.5428V39.0455L23.325 47.8603C23.7554 48.0474 24.2441 48.048 24.675 47.8618L41.712 40.4713C43.7084 39.6052 45 37.6367 45 35.4605V8.95852L24.675 0.142266C24.244 -0.0441667 23.7552 -0.0441667 23.3243 0.142266L6.288 7.53277C4.29211 8.39858 3.00045 10.3664 3 12.542V12.5428Z" fill="url(#paint0_radial_75_309)"/>
<mask id="mask0_75_309" style="mask-type:alpha" maskUnits="userSpaceOnUse" x="3" y="0" width="21" height="49">
<path d="M23.3235 0.142953L6.33225 7.58145C4.42196 8.41765 3.1875 10.3052 3.1875 12.3905V39.0455L23.3235 47.8595C23.5369 47.9526 23.7672 48.0005 24 48.0005V0.00195312C23.7671 0.00195312 23.5368 0.0502827 23.3235 0.143703V0.142953Z" fill="white"/>
</mask>
<g mask="url(#mask0_75_309)">
<path d="M23.3243 0.142954L6.27375 7.53795C4.28646 8.39995 3.00038 10.3593 3 12.5255V39.0455L23.325 47.8602C23.5378 47.9534 23.7677 48.0012 24 48.0012V0.00195312C23.7674 0.00195312 23.5373 0.0497678 23.3243 0.142954Z" fill="url(#paint1_linear_75_309)"/>
</g>
<mask id="mask1_75_309" style="mask-type:alpha" maskUnits="userSpaceOnUse" x="3" y="0" width="21" height="49">
<path d="M23.3235 0.142953L6.33225 7.58145C4.42196 8.41765 3.1875 10.3052 3.1875 12.3905V39.0455L23.3235 47.8595C23.5369 47.9526 23.7672 48.0005 24 48.0005V0.00195312C23.7671 0.00195312 23.5368 0.0502827 23.3235 0.143703V0.142953Z" fill="white"/>
</mask>
<g mask="url(#mask1_75_309)">
</g>
<mask id="mask2_75_309" style="mask-type:alpha" maskUnits="userSpaceOnUse" x="12" y="0" width="24" height="48">
<path d="M25.2675 47.4273L34.32 37.1223C35.1614 36.1641 35.6252 34.9324 35.625 33.6573V4.93526L24.6765 0.142757C24.2452 -0.045958 23.7548 -0.045958 23.3235 0.142757L12.375 4.93526V33.6573C12.3748 34.9324 12.8386 36.1641 13.68 37.1223L22.7325 47.4273C23.0539 47.79 23.5153 47.9976 24 47.9976C24.4847 47.9976 24.9461 47.79 25.2675 47.4273Z" fill="white"/>
</mask>
<g mask="url(#mask2_75_309)">
<path d="M22.7325 47.4272C23.0529 47.7917 23.5147 48.0006 24 48.0006C24.4853 48.0006 24.9471 47.7917 25.2675 47.4272L34.32 37.1222C35.1614 36.164 35.6252 34.9323 35.625 33.6572V4.93518L24.675 0.142677C24.2445 -0.0459313 23.7547 -0.0459313 23.3242 0.142677L12.375 4.89243V33.6572C12.3748 34.9323 12.8386 36.164 13.68 37.1222L22.7325 47.4272Z" fill="url(#paint2_linear_75_309)"/>
</g>
<path d="M37.3935 27.8031C37.2902 26.7298 36.6741 25.7727 35.7398 25.2342C34.8056 24.6958 33.6686 24.6425 32.688 25.0911L27.8678 20.9489C28.3156 19.6969 27.9776 18.2986 27.0074 17.3894C26.0372 16.4803 24.6199 16.2337 23.3996 16.7618C22.1794 17.29 21.389 18.492 21.3878 19.8216C21.3874 20.0592 21.4128 20.296 21.4635 20.5281L12.7733 26.7839C12.2403 26.449 11.6229 26.2729 10.9935 26.2761C9.15026 26.279 7.65836 27.7756 7.66126 29.6189C7.66416 31.4621 9.16076 32.954 11.004 32.9511C11.6939 32.9523 12.3669 32.7375 12.9285 32.3369L22.8728 37.1594C22.9203 38.8553 24.2327 40.2457 25.923 40.3911C27.6134 40.5364 29.1439 39.3904 29.4802 37.7275C29.8166 36.0645 28.8518 34.4139 27.2378 33.8909L26.3453 23.5139C26.3385 23.4375 26.3794 23.3649 26.4482 23.3311C26.5171 23.2974 26.5996 23.3095 26.6558 23.3616L30.9278 26.9999L30.9315 27.0029C30.7255 27.5689 30.6791 28.1807 30.7973 28.7714C31.1422 30.5167 32.7955 31.6846 34.5558 31.4264C36.316 31.1682 37.5643 29.5747 37.3935 27.8039V27.8031ZM24.096 34.2479L14.3445 29.5199C14.2275 29.4616 14.1499 29.346 14.1402 29.2157C14.1305 29.0853 14.1902 28.9595 14.2973 28.8846L23.0978 22.5501C23.2063 22.4736 23.3474 22.461 23.4678 22.517C23.5882 22.5731 23.6693 22.6893 23.6805 22.8216L24.6315 33.8841C24.6431 34.0179 24.5814 34.1474 24.4703 34.2228C24.3592 34.2981 24.216 34.3074 24.096 34.2471V34.2479ZM33.0735 19.3499C33.0098 19.3215 32.9681 19.2591 32.9663 19.1894C32.8386 14.9469 29.5023 11.4991 25.2663 11.2321C21.0304 10.9651 17.2876 13.9668 16.6283 18.1596C16.6209 18.2081 16.5941 18.2514 16.554 18.2796L13.8278 20.1951C13.7901 20.2226 13.7405 20.2274 13.6983 20.2076C13.6561 20.1877 13.6281 20.1464 13.6253 20.0999C13.6114 19.8811 13.6043 19.662 13.6043 19.4429C13.6043 13.2872 18.5944 8.29712 24.75 8.29712C30.9056 8.29712 35.8958 13.2872 35.8958 19.4429C35.8958 19.7654 35.8808 20.0849 35.8538 20.3999C35.8496 20.441 35.826 20.4777 35.7902 20.4985C35.7544 20.5193 35.7108 20.5217 35.673 20.5049L33.0735 19.3499Z" fill="white"/>
</g>
<defs>
<radialGradient id="paint0_radial_75_309" cx="0" cy="0" r="1" gradientUnits="userSpaceOnUse" gradientTransform="translate(35.4456 30.9973) scale(40.8544 40.8544)">
<stop stop-color="#36D1C0"/>
<stop offset="0.514" stop-color="#03AD9A"/>
</radialGradient>
<linearGradient id="paint1_linear_75_309" x1="16.4503" y1="2.83845" x2="-1.22731" y2="33.4568" gradientUnits="userSpaceOnUse">
<stop offset="0.004" stop-color="#15DEC6"/>
<stop offset="0.026" stop-color="#15DEC6" stop-opacity="0.915"/>
<stop offset="0.094" stop-color="#15DEC6" stop-opacity="0.675"/>
<stop offset="0.164" stop-color="#15DEC6" stop-opacity="0.468"/>
<stop offset="0.233" stop-color="#15DEC6" stop-opacity="0.299"/>
<stop offset="0.301" stop-color="#15DEC6" stop-opacity="0.168"/>
<stop offset="0.369" stop-color="#15DEC6" stop-opacity="0.075"/>
<stop offset="0.435" stop-color="#15DEC6" stop-opacity="0.019"/>
<stop offset="0.499" stop-color="#15DEC6" stop-opacity="0"/>
</linearGradient>
<linearGradient id="paint2_linear_75_309" x1="24" y1="0.000926799" x2="24" y2="48.0009" gradientUnits="userSpaceOnUse">
<stop stop-color="#009684" stop-opacity="0"/>
<stop offset="0.089" stop-color="#009684" stop-opacity="0.028"/>
<stop offset="0.181" stop-color="#009684" stop-opacity="0.111"/>
<stop offset="0.275" stop-color="#009684" stop-opacity="0.249"/>
<stop offset="0.37" stop-color="#009684" stop-opacity="0.443"/>
<stop offset="0.465" stop-color="#009684" stop-opacity="0.689"/>
<stop offset="0.502" stop-color="#009684" stop-opacity="0.8"/>
<stop offset="0.628" stop-color="#009684" stop-opacity="0.772"/>
<stop offset="0.759" stop-color="#009684" stop-opacity="0.689"/>
<stop offset="0.891" stop-color="#009684" stop-opacity="0.552"/>
<stop offset="1" stop-color="#009684" stop-opacity="0.4"/>
</linearGradient>
<clipPath id="clip0_75_309">
<rect width="48" height="48" fill="white"/>
</clipPath>
</defs>
</svg>
