<svg width="48" height="48" viewBox="0 0 48 48" fill="none" xmlns="http://www.w3.org/2000/svg">
<g clip-path="url(#clip0_79_105)">
<rect width="48" height="48" fill="#005941"/>
<path d="M23.9996 42.9C27.7377 42.9 31.3918 41.7915 34.4999 39.7148C37.608 37.638 40.0304 34.6862 41.4609 31.2327C42.8914 27.7792 43.2657 23.979 42.5365 20.3128C41.8072 16.6465 40.0071 13.2789 37.3639 10.6357C34.7207 7.99245 31.3531 6.1924 27.6868 5.46314C24.0206 4.73388 20.2204 5.10816 16.7669 6.53866C13.3134 7.96916 10.3616 10.3916 8.28483 13.4997C6.20807 16.6078 5.09961 20.2619 5.09961 24C5.10517 29.0109 7.0982 33.8149 10.6414 37.3582C14.1847 40.9014 18.9887 42.8944 23.9996 42.9ZM42.0996 24C42.0987 25.1863 41.9811 26.3697 41.7486 27.533C41.0562 26.3693 40.7158 25.03 40.7686 23.677C40.8024 23.3308 40.7636 22.9814 40.6546 22.6512C40.5456 22.3209 40.3688 22.017 40.1356 21.759C39.1986 20.782 37.5196 20.792 36.2716 20.784H35.5636L35.7836 21.333C35.7916 21.354 36.6316 23.49 35.8676 24.706C35.5836 25.1306 35.2606 25.5276 34.9026 25.892C34.4872 26.2385 34.1491 26.6682 33.9098 27.1534C33.6706 27.6386 33.5356 28.1685 33.5136 28.709C33.5476 30.12 31.3176 32.527 30.3656 33.555L30.1596 33.779C29.6276 34.358 28.8736 34.884 28.4006 34.767C28.0406 34.677 27.8456 34.186 27.7446 33.79C27.2419 32.0506 27.3405 30.1924 28.0246 28.516C28.1555 28.2646 28.2206 27.9842 28.2136 27.7008C28.2066 27.4175 28.1278 27.1406 27.9846 26.896C27.5546 26.241 26.5546 25.906 24.9286 25.873C23.2356 25.837 22.3386 25.687 22.0606 22.855C22.071 22.3617 22.1807 21.8757 22.3833 21.4258C22.5859 20.976 22.8771 20.5716 23.2396 20.237C24.1707 19.1261 25.4389 18.3495 26.8516 18.025C27.0246 18.025 27.2766 18.053 27.5696 18.085C28.6226 18.197 30.0616 18.351 30.8136 17.735C30.9491 17.6242 31.0607 17.487 31.1417 17.3318C31.2226 17.1766 31.2713 17.0065 31.2846 16.832C31.3244 16.203 31.1925 15.575 30.9029 15.0152C30.6133 14.4554 30.177 13.9849 29.6406 13.654C28.3596 12.565 27.2616 11.614 30.8766 7.26498C34.1935 8.63055 37.0306 10.9497 39.0285 13.9289C41.0263 16.908 42.0952 20.413 42.0996 24ZM30.0816 6.97398C26.4746 11.396 27.4016 12.801 29.1226 14.264C29.9176 14.939 30.6036 15.522 30.4876 16.758C30.4848 16.827 30.4673 16.8947 30.4362 16.9564C30.4052 17.0181 30.3613 17.0725 30.3076 17.116C29.8126 17.519 28.4626 17.376 27.6546 17.289C27.3881 17.2553 27.1201 17.2339 26.8516 17.225C25.7516 17.225 23.9046 18.312 22.6466 19.7C22.2105 20.1181 21.8632 20.6199 21.6258 21.1755C21.3883 21.731 21.2654 22.3288 21.2646 22.933C21.5716 26.055 22.6846 26.626 24.9126 26.673C26.6486 26.709 27.1626 27.103 27.3146 27.335C27.3646 27.412 27.5186 27.645 27.2846 28.212C26.5327 30.0467 26.4218 32.0814 26.9696 33.987C27.1946 34.87 27.6096 35.394 28.2066 35.543C28.3194 35.5714 28.4353 35.5855 28.5516 35.585C29.4165 35.4524 30.2005 35.0011 30.7496 34.32L30.9526 34.099C32.0576 32.906 34.3546 30.425 34.3136 28.689C34.3404 28.2518 34.459 27.8251 34.6616 27.4368C34.8642 27.0484 35.1464 26.7071 35.4896 26.435C35.8818 26.0351 36.2351 25.5988 36.5446 25.132C37.0671 24.0178 37.1265 22.7419 36.7096 21.584C37.7158 21.4733 38.728 21.732 39.5576 22.312C39.7155 22.4925 39.8337 22.7042 39.9047 22.9333C39.9756 23.1624 39.9978 23.4038 39.9696 23.642C39.8934 25.4214 40.4272 27.1734 41.4826 28.608C40.729 31.499 39.2694 34.1576 37.2348 36.3453C35.2002 38.5329 32.6542 40.1812 29.8253 41.142C26.9964 42.1029 23.9733 42.3463 21.0271 41.8504C18.081 41.3546 15.3041 40.1349 12.9456 38.301C13.1917 37.5208 13.372 36.7213 13.4846 35.911C13.7402 34.4013 14.2819 32.9543 15.0806 31.648C15.2524 31.3854 15.3657 31.089 15.413 30.7788C15.4603 30.4686 15.4403 30.1518 15.3546 29.85C15.1666 29.3669 14.8835 28.9265 14.5221 28.555C14.1607 28.1834 13.7283 27.8882 13.2506 27.687C12.8736 27.499 12.3766 27.306 11.8006 27.082C10.4116 26.542 8.50961 25.804 8.04761 24.91C7.56061 23.963 8.75561 23.193 10.3686 22.285L10.4966 22.213C11.4906 21.652 11.3426 20.665 11.2346 19.944C11.1356 19.284 11.0916 18.864 11.4196 18.582C11.8277 18.2328 12.2734 17.9303 12.7486 17.68C13.1663 17.4955 13.5378 17.2206 13.8363 16.8751C14.1348 16.5296 14.3528 16.122 14.4746 15.682C14.9716 14.272 14.1396 12.967 12.3126 10.202C14.7246 8.14062 17.64 6.75579 20.7618 6.18871C23.8835 5.62164 27.0988 5.89261 30.0816 6.97398ZM11.7136 10.747C13.3406 13.21 14.0816 14.39 13.7206 15.416C13.6299 15.7646 13.4597 16.0875 13.2232 16.3592C12.9867 16.6309 12.6904 16.8441 12.3576 16.982C11.8357 17.2584 11.3461 17.5917 10.8976 17.976C10.6419 18.2513 10.4649 18.5902 10.385 18.9574C10.3051 19.3245 10.3254 19.7063 10.4436 20.063C10.5676 20.889 10.5716 21.252 10.1036 21.516L9.97661 21.587C8.49161 22.424 6.45661 23.569 7.33661 25.276C7.93661 26.44 9.91861 27.209 11.5106 27.828C12.0446 28.035 12.5496 28.231 12.8936 28.403C13.2717 28.5561 13.6159 28.7824 13.9064 29.0688C14.1969 29.3552 14.4281 29.6961 14.5866 30.072C14.641 30.2679 14.6521 30.4732 14.6193 30.6739C14.5865 30.8745 14.5105 31.0656 14.3966 31.234C13.5375 32.6328 12.9584 34.1852 12.6916 35.805C12.5979 36.4653 12.4565 37.118 12.2686 37.758C10.3203 36.1059 8.74533 34.0586 7.64802 31.7519C6.5507 29.4451 5.95611 26.9315 5.90363 24.3776C5.85116 21.8236 6.342 19.2877 7.34363 16.9378C8.34526 14.5879 9.83482 12.4777 11.7136 10.747Z" fill="#00392A" stroke="#00392A" stroke-width="1.5"/>
</g>
<defs>
<clipPath id="clip0_79_105">
<rect width="48" height="48" fill="white"/>
</clipPath>
</defs>
</svg>
