<svg width="48" height="48" viewBox="0 0 48 48" fill="none" xmlns="http://www.w3.org/2000/svg">
<g clip-path="url(#clip0_79_105)">
<rect width="48" height="48" fill="#005941"/>
<path d="M23.9996 42.9001C27.7377 42.9001 31.3918 41.7916 34.4999 39.7149C37.608 37.6381 40.0304 34.6863 41.4609 31.2328C42.8914 27.7793 43.2657 23.9791 42.5365 20.3129C41.8072 16.6467 40.0071 13.279 37.3639 10.6358C34.7207 7.99258 31.3531 6.19253 27.6868 5.46326C24.0206 4.734 20.2204 5.10829 16.7669 6.53878C13.3134 7.96928 10.3616 10.3917 8.28483 13.4998C6.20807 16.6079 5.09961 20.262 5.09961 24.0001C5.10517 29.011 7.0982 33.8151 10.6414 37.3583C14.1847 40.9015 18.9887 42.8946 23.9996 42.9001ZM42.0996 24.0001C42.0987 25.1864 41.9811 26.3698 41.7486 27.5331C41.0562 26.3695 40.7158 25.0301 40.7686 23.6771C40.8024 23.331 40.7636 22.9816 40.6546 22.6513C40.5456 22.321 40.3688 22.0171 40.1356 21.7591C39.1986 20.7821 37.5196 20.7921 36.2716 20.7841H35.5636L35.7836 21.3331C35.7916 21.3541 36.6316 23.4901 35.8676 24.7061C35.5836 25.1307 35.2606 25.5277 34.9026 25.8921C34.4872 26.2387 34.1491 26.6684 33.9098 27.1535C33.6706 27.6387 33.5356 28.1686 33.5136 28.7091C33.5476 30.1201 31.3176 32.5271 30.3656 33.5551L30.1596 33.7791C29.6276 34.3581 28.8736 34.8841 28.4006 34.7671C28.0406 34.6771 27.8456 34.1861 27.7446 33.7901C27.2419 32.0507 27.3405 30.1925 28.0246 28.5161C28.1555 28.2647 28.2206 27.9843 28.2136 27.7009C28.2066 27.4176 28.1278 27.1407 27.9846 26.8961C27.5546 26.2411 26.5546 25.9061 24.9286 25.8731C23.2356 25.8371 22.3386 25.6871 22.0606 22.8551C22.071 22.3619 22.1807 21.8758 22.3833 21.426C22.5859 20.9761 22.8771 20.5718 23.2396 20.2371C24.1707 19.1263 25.4389 18.3496 26.8516 18.0251C27.0246 18.0251 27.2766 18.0531 27.5696 18.0851C28.6226 18.1971 30.0616 18.3511 30.8136 17.7351C30.9491 17.6243 31.0607 17.4871 31.1417 17.3319C31.2226 17.1767 31.2713 17.0067 31.2846 16.8321C31.3244 16.2031 31.1925 15.5751 30.9029 15.0153C30.6133 14.4555 30.177 13.985 29.6406 13.6541C28.3596 12.5651 27.2616 11.6141 30.8766 7.26511C34.1935 8.63067 37.0306 10.9499 39.0285 13.929C41.0263 16.9081 42.0952 20.4131 42.0996 24.0001ZM30.0816 6.97411C26.4746 11.3961 27.4016 12.8011 29.1226 14.2641C29.9176 14.9391 30.6036 15.5221 30.4876 16.7581C30.4848 16.8271 30.4673 16.8948 30.4362 16.9565C30.4052 17.0183 30.3613 17.0727 30.3076 17.1161C29.8126 17.5191 28.4626 17.3761 27.6546 17.2891C27.3881 17.2554 27.1201 17.2341 26.8516 17.2251C25.7516 17.2251 23.9046 18.3121 22.6466 19.7001C22.2105 20.1182 21.8632 20.6201 21.6258 21.1756C21.3883 21.7311 21.2654 22.3289 21.2646 22.9331C21.5716 26.0551 22.6846 26.6261 24.9126 26.6731C26.6486 26.7091 27.1626 27.1031 27.3146 27.3351C27.3646 27.4121 27.5186 27.6451 27.2846 28.2121C26.5327 30.0468 26.4218 32.0815 26.9696 33.9871C27.1946 34.8701 27.6096 35.3941 28.2066 35.5431C28.3194 35.5715 28.4353 35.5856 28.5516 35.5851C29.4165 35.4525 30.2005 35.0013 30.7496 34.3201L30.9526 34.0991C32.0576 32.9061 34.3546 30.4251 34.3136 28.6891C34.3404 28.2519 34.459 27.8252 34.6616 27.4369C34.8642 27.0485 35.1464 26.7072 35.4896 26.4351C35.8818 26.0352 36.2351 25.5989 36.5446 25.1321C37.0671 24.0179 37.1265 22.742 36.7096 21.5841C37.7158 21.4734 38.728 21.7321 39.5576 22.3121C39.7155 22.4927 39.8337 22.7043 39.9047 22.9334C39.9756 23.1625 39.9978 23.4039 39.9696 23.6421C39.8934 25.4215 40.4272 27.1735 41.4826 28.6081C40.729 31.4991 39.2694 34.1577 37.2348 36.3454C35.2002 38.5331 32.6542 40.1813 29.8253 41.1422C26.9964 42.103 23.9733 42.3464 21.0271 41.8506C18.081 41.3547 15.3041 40.1351 12.9456 38.3011C13.1917 37.5209 13.372 36.7214 13.4846 35.9111C13.7402 34.4014 14.2819 32.9545 15.0806 31.6481C15.2524 31.3855 15.3657 31.0891 15.413 30.7789C15.4603 30.4687 15.4403 30.1519 15.3546 29.8501C15.1666 29.367 14.8835 28.9267 14.5221 28.5551C14.1607 28.1835 13.7283 27.8884 13.2506 27.6871C12.8736 27.4991 12.3766 27.3061 11.8006 27.0821C10.4116 26.5421 8.50961 25.8041 8.04761 24.9101C7.56061 23.9631 8.75561 23.1931 10.3686 22.2851L10.4966 22.2131C11.4906 21.6521 11.3426 20.6651 11.2346 19.9441C11.1356 19.2841 11.0916 18.8641 11.4196 18.5821C11.8277 18.2329 12.2734 17.9304 12.7486 17.6801C13.1663 17.4957 13.5378 17.2208 13.8363 16.8752C14.1348 16.5297 14.3528 16.1222 14.4746 15.6821C14.9716 14.2721 14.1396 12.9671 12.3126 10.2021C14.7246 8.14074 17.64 6.75591 20.7618 6.18883C23.8835 5.62176 27.0988 5.89273 30.0816 6.97411ZM11.7136 10.7471C13.3406 13.2101 14.0816 14.3901 13.7206 15.4161C13.6299 15.7647 13.4597 16.0876 13.2232 16.3593C12.9867 16.631 12.6904 16.8442 12.3576 16.9821C11.8357 17.2585 11.3461 17.5919 10.8976 17.9761C10.6419 18.2514 10.4649 18.5903 10.385 18.9575C10.3051 19.3246 10.3254 19.7065 10.4436 20.0631C10.5676 20.8891 10.5716 21.2521 10.1036 21.5161L9.97661 21.5871C8.49161 22.4241 6.45661 23.5691 7.33661 25.2761C7.93661 26.4401 9.91861 27.2091 11.5106 27.8281C12.0446 28.0351 12.5496 28.2311 12.8936 28.4031C13.2717 28.5563 13.6159 28.7825 13.9064 29.0689C14.1969 29.3553 14.4281 29.6962 14.5866 30.0721C14.641 30.268 14.6521 30.4734 14.6193 30.674C14.5865 30.8746 14.5105 31.0657 14.3966 31.2341C13.5375 32.6329 12.9584 34.1854 12.6916 35.8051C12.5979 36.4655 12.4565 37.1182 12.2686 37.7581C10.3203 36.106 8.74533 34.0588 7.64802 31.752C6.5507 29.4452 5.95611 26.9316 5.90363 24.3777C5.85116 21.8238 6.342 19.2878 7.34363 16.9379C8.34526 14.5881 9.83482 12.4778 11.7136 10.7471Z" fill="white"/>
</g>
<defs>
<clipPath id="clip0_79_105">
<rect width="48" height="48" fill="white"/>
</clipPath>
</defs>
</svg>
