<svg width="48" height="48" viewBox="0 0 48 48" fill="none" xmlns="http://www.w3.org/2000/svg">
<g clip-path="url(#clip0_79_82)">
<rect width="48" height="48" fill="#005941"/>
<path d="M42.8416 36.2851C42.7864 36.1734 42.6961 36.0827 42.5846 36.0271L37.5896 33.5421L31.2126 36.7131C30.991 36.8225 30.7472 36.8793 30.5001 36.8793C30.253 36.8793 30.0092 36.8225 29.7876 36.7131L23.4106 33.5431L18.4166 36.0261C18.2819 36.0924 18.1789 36.2094 18.1302 36.3514C18.0814 36.4935 18.0909 36.649 18.1566 36.7841C18.212 36.8965 18.3026 36.9878 18.4146 37.0441L29.9176 42.7631C30.0987 42.8526 30.2981 42.8992 30.5001 42.8992C30.7021 42.8992 30.9015 42.8526 31.0826 42.7631L42.5846 37.0441C42.7184 36.9769 42.8204 36.8596 42.8685 36.7178C42.9166 36.5759 42.907 36.4199 42.8416 36.2851ZM30.7266 42.0471C30.6565 42.0824 30.5791 42.1008 30.5006 42.1008C30.4221 42.1008 30.3447 42.0824 30.2746 42.0471L19.1886 36.5351L23.4106 34.4361L29.4306 37.4301C29.7631 37.594 30.1289 37.6792 30.4996 37.6792C30.8703 37.6792 31.2361 37.594 31.5686 37.4301L37.5886 34.4361L41.8106 36.5361L30.7266 42.0471ZM40.8766 17.8331C40.7636 17.7321 40.6376 17.6201 40.5766 17.5551C40.4183 14.9917 39.2871 12.5854 37.4142 10.8281C35.5412 9.07076 33.0679 8.09496 30.4996 8.1001C29.9786 8.1001 29.5216 8.1381 29.2226 8.1651C29.1476 8.1151 29.0426 8.0251 28.9036 7.9141C26.8534 6.11782 24.2254 5.11901 21.4996 5.1001C15.7396 5.1001 10.7856 9.9681 10.1246 16.2271C8.88361 16.7881 3.09961 19.7701 3.09961 26.5001C3.09961 30.9051 5.97961 35.3651 11.4856 35.3651C13.6159 35.3095 15.7007 34.736 17.5596 33.6941C17.6907 33.6246 17.7941 33.5126 17.853 33.3764C17.9119 33.2403 17.9227 33.0882 17.8836 32.9451C17.845 32.8013 17.7578 32.6753 17.6367 32.5887C17.5156 32.5021 17.3682 32.4602 17.2196 32.4701C11.4626 32.7991 8.89961 29.6211 8.89961 26.5001C8.89961 23.1801 11.7566 20.3401 15.5456 19.8971L16.0696 19.8361L15.8696 19.3481C15.445 18.2692 15.2047 17.1266 15.1586 15.9681C15.1586 12.3931 18.4996 9.9001 21.4996 9.9001C22.5811 9.90902 23.6392 10.2154 24.5582 10.7856C25.4772 11.3559 26.2215 12.168 26.7096 13.1331C27.0056 13.6011 27.1676 13.8581 27.4806 13.8581C27.6526 13.839 27.8163 13.7741 27.9546 13.6701C28.7195 13.1919 29.5979 12.9261 30.4996 12.9001C31.113 12.8645 31.727 12.9591 32.3012 13.1777C32.8754 13.3963 33.3969 13.7339 33.8314 14.1683C34.2658 14.6028 34.6034 15.1243 34.822 15.6985C35.0406 16.2727 35.1352 16.8867 35.0996 17.5001C35.0905 18.1029 35.0488 18.7048 34.9746 19.3031C34.9546 19.4751 34.9446 19.5931 34.9446 19.6361C34.9439 19.7809 34.9839 19.9229 35.0601 20.046C35.1363 20.1691 35.2457 20.2683 35.3756 20.3321L43.3216 24.2491C43.4305 24.3021 43.552 24.3239 43.6726 24.312C43.7931 24.3002 43.9081 24.2552 44.0046 24.1821C44.1009 24.1084 44.1746 24.0092 44.2174 23.8957C44.2602 23.7822 44.2703 23.659 44.2466 23.5401C43.8151 21.306 42.6245 19.2898 40.8766 17.8331ZM35.7436 19.6411C35.7456 19.6021 35.7556 19.5151 35.7696 19.3921C35.8474 18.7643 35.8908 18.1327 35.8996 17.5001C35.9329 16.7821 35.8161 16.0651 35.5565 15.3948C35.2969 14.7246 34.9003 14.1159 34.3921 13.6076C33.8838 13.0994 33.2751 12.7028 32.6049 12.4432C31.9346 12.1836 31.2176 12.0668 30.4996 12.1001C29.4589 12.1229 28.4434 12.4251 27.5596 12.9751C27.5008 12.8867 27.4435 12.7974 27.3876 12.7071C26.8266 11.6276 25.982 10.7213 24.9446 10.0858C23.9072 9.4503 22.7162 9.10951 21.4996 9.1001C19.65 9.09223 17.87 9.80498 16.5369 11.0873C15.2038 12.3695 14.4225 14.1205 14.3586 15.9691C14.3965 17.0612 14.5964 18.1417 14.9516 19.1751C11.0116 19.8501 8.09961 22.9241 8.09961 26.5001C8.09961 29.7711 10.7196 33.2921 16.4696 33.2921L16.5776 33.2911C14.9964 34.0897 13.2566 34.525 11.4856 34.5651C6.50561 34.5651 3.89961 30.5081 3.89961 26.5001C3.89961 19.5571 10.5756 16.9001 10.6436 16.8741L10.8756 16.7841L10.8976 16.5351C11.4206 10.5711 16.0776 5.9001 21.4996 5.9001C24.0417 5.92384 26.4909 6.85922 28.4016 8.5361C28.7836 8.8441 28.9416 8.9711 29.1516 8.9711C29.1686 8.9711 29.2216 8.9681 29.3016 8.9611C29.5076 8.9411 29.9686 8.9001 30.4996 8.9001C32.8815 8.89741 35.1733 9.8099 36.9016 11.449C38.6298 13.088 39.6623 15.3284 39.7856 17.7071C39.8056 17.9501 39.9856 18.1101 40.3456 18.4301C41.8858 19.7005 42.9595 21.4473 43.3976 23.3951L35.7436 19.6411ZM18.4146 28.0441L29.9176 33.7631C30.0987 33.8526 30.2981 33.8991 30.5001 33.8991C30.7021 33.8991 30.9015 33.8526 31.0826 33.7631L42.5846 28.0441C42.6792 27.997 42.7588 27.9245 42.8144 27.8347C42.8701 27.7448 42.8995 27.6413 42.8995 27.5356C42.8995 27.4299 42.8701 27.3264 42.8144 27.2365C42.7588 27.1467 42.6792 27.0742 42.5846 27.0271L30.8196 21.1751C30.7203 21.1259 30.6109 21.1003 30.5001 21.1003C30.3893 21.1003 30.2799 21.1259 30.1806 21.1751L18.4166 27.0251C18.3214 27.0718 18.2412 27.1442 18.185 27.2341C18.1288 27.3241 18.0989 27.4279 18.0987 27.534C18.0985 27.64 18.1279 27.744 18.1838 27.8342C18.2396 27.9243 18.3196 27.997 18.4146 28.0441ZM30.4626 21.8911L41.8106 27.5351L30.7266 33.0471C30.6565 33.0823 30.5791 33.1006 30.5006 33.1006C30.4221 33.1006 30.3447 33.0823 30.2746 33.0471L19.1876 27.5351L30.4626 21.8911Z" fill="white"/>
</g>
<defs>
<clipPath id="clip0_79_82">
<rect width="48" height="48" fill="white"/>
</clipPath>
</defs>
</svg>
