<svg width="48" height="48" viewBox="0 0 48 48" fill="none" xmlns="http://www.w3.org/2000/svg">
<g clip-path="url(#clip0_75_159)">
<path d="M3 12.5412V39.0439L23.325 47.8594C23.7555 48.0463 24.2443 48.0466 24.675 47.8602L41.712 40.4704C43.7084 39.6044 45 37.6358 45 35.4597V8.95691L24.675 0.141411C24.244 -0.0450212 23.7552 -0.0450212 23.3243 0.141411L6.288 7.53041C4.29161 8.39645 3 10.365 3 12.5412Z" fill="url(#paint0_radial_75_159)"/>
<mask id="mask0_75_159" style="mask-type:alpha" maskUnits="userSpaceOnUse" x="3" y="0" width="21" height="49">
<path d="M23.3235 0.142727L6.33225 7.57898C4.42196 8.41518 3.1875 10.3027 3.1875 12.388V39.0452L23.3235 47.8592C23.5369 47.9524 23.7672 48.0002 24 48.0002V0.000976562C23.7672 0.000976562 23.5369 0.0488143 23.3235 0.141977V0.142727Z" fill="white"/>
</mask>
<g mask="url(#mask0_75_159)">
<path d="M23.3242 0.14175L6.27448 7.53525C4.28694 8.39735 3.00073 10.357 3.00073 12.5235V39.0435L23.3242 47.8575C23.5376 47.9507 23.7679 47.9985 24.0007 47.9985V0C23.7679 0 23.5375 0.0483296 23.3242 0.14175Z" fill="url(#paint1_linear_75_159)"/>
</g>
<mask id="mask1_75_159" style="mask-type:alpha" maskUnits="userSpaceOnUse" x="3" y="0" width="21" height="49">
<path d="M23.3235 0.142727L6.33225 7.57898C4.42196 8.41518 3.1875 10.3027 3.1875 12.388V39.0452L23.3235 47.8592C23.5369 47.9524 23.7672 48.0002 24 48.0002V0.000976562C23.7672 0.000976562 23.5369 0.0488143 23.3235 0.141977V0.142727Z" fill="white"/>
</mask>
<g mask="url(#mask1_75_159)">
</g>
<mask id="mask2_75_159" style="mask-type:alpha" maskUnits="userSpaceOnUse" x="12" y="0" width="24" height="48">
<path d="M25.2675 47.4258L34.32 37.1208C35.1614 36.1626 35.6252 34.9309 35.625 33.6558V4.93526L24.6765 0.142757C24.2452 -0.045958 23.7548 -0.045958 23.3235 0.142757L12.375 4.93526V33.6573C12.3748 34.9324 12.8386 36.1641 13.68 37.1223L22.7325 47.4273C23.0539 47.79 23.5153 47.9976 24 47.9976C24.4847 47.9976 24.9461 47.79 25.2675 47.4273V47.4258Z" fill="white"/>
</mask>
<g mask="url(#mask2_75_159)">
<path d="M22.7325 47.4258C23.0529 47.7903 23.5147 47.9992 24 47.9992C24.4853 47.9992 24.9471 47.7903 25.2675 47.4258L34.32 37.1208C35.1614 36.1626 35.6252 34.9309 35.625 33.6558V4.93526L24.6765 0.142757C24.2452 -0.045958 23.7548 -0.045958 23.3235 0.142757L12.375 4.89176V33.6565C12.3748 34.9317 12.8386 36.1633 13.68 37.1215L22.7325 47.4258Z" fill="url(#paint2_linear_75_159)"/>
</g>
<path d="M24 9.67493C15.6744 9.67493 8.92505 16.4242 8.92505 24.7499C8.92505 33.0756 15.6744 39.8249 24 39.8249C32.3257 39.8249 39.075 33.0756 39.075 24.7499C39.075 20.7518 37.4868 16.9174 34.6597 14.0903C31.8326 11.2632 27.9982 9.67493 24 9.67493ZM24 36.3494C21.0664 36.3532 18.235 35.2712 16.0515 33.3119C16.2423 32.1723 16.6504 31.0799 17.2538 30.0944C17.895 29.0324 17.0198 28.1099 16.0395 27.6194C15.0593 27.1289 12.6488 26.4937 12.1208 25.4692C11.5928 24.4447 12.9818 23.7037 14.0205 23.1179C15.0593 22.5314 13.854 21.1889 14.646 20.5057C15.7598 19.5442 16.3238 19.8269 16.7865 18.5167C17.097 17.6362 16.5068 16.7894 15.807 15.6802C19.0508 12.5414 22.3245 12.3007 24 12.5017C29.9715 13.2157 26.5755 15.1762 27.0128 16.2967C27.45 17.4172 29.253 17.7824 29.0925 19.4999C28.9875 20.6204 26.745 20.1802 26.0775 20.1802C24.9345 20.1802 22.2728 22.0807 22.4483 23.8679C22.662 26.0384 23.4158 26.2244 24.8213 26.2529C26.2283 26.2829 27.132 26.6347 26.6633 27.7769C26.1395 29.0818 26.063 30.5235 26.4458 31.8764C26.856 33.4882 28.0575 32.6969 28.7018 31.9934C29.3468 31.2907 31.2518 29.3272 31.2218 28.0964C31.1925 26.8664 32.247 26.3684 32.892 25.3424C33.537 24.3172 32.8545 22.4707 32.8545 22.4707C34.0448 22.4707 36.0053 22.4999 35.9243 24.3502C35.6355 30.9292 30.5858 36.3502 24 36.3502V36.3494Z" fill="white"/>
</g>
<defs>
<radialGradient id="paint0_radial_75_159" cx="0" cy="0" r="1" gradientUnits="userSpaceOnUse" gradientTransform="translate(35.4456 30.9967) scale(40.8544 40.8544)">
<stop stop-color="#379BE8"/>
<stop offset="0.515" stop-color="#006FDE"/>
</radialGradient>
<linearGradient id="paint1_linear_75_159" x1="16.4511" y1="2.8365" x2="-1.22652" y2="33.4549" gradientUnits="userSpaceOnUse">
<stop offset="0.004" stop-color="#0088FF"/>
<stop offset="0.059" stop-color="#0A8DFF" stop-opacity="0.797"/>
<stop offset="0.123" stop-color="#1592FF" stop-opacity="0.588"/>
<stop offset="0.188" stop-color="#1E96FF" stop-opacity="0.408"/>
<stop offset="0.253" stop-color="#269AFF" stop-opacity="0.261"/>
<stop offset="0.316" stop-color="#2C9CFF" stop-opacity="0.147"/>
<stop offset="0.38" stop-color="#309EFF" stop-opacity="0.065"/>
<stop offset="0.442" stop-color="#32A0FF" stop-opacity="0.016"/>
<stop offset="0.501" stop-color="#33A0FF" stop-opacity="0"/>
</linearGradient>
<linearGradient id="paint2_linear_75_159" x1="24" y1="0.00100693" x2="24" y2="47.9995" gradientUnits="userSpaceOnUse">
<stop offset="0.003" stop-color="#0A67C4" stop-opacity="0"/>
<stop offset="0.08" stop-color="#0A67C4" stop-opacity="0.021"/>
<stop offset="0.16" stop-color="#0A67C4" stop-opacity="0.085"/>
<stop offset="0.241" stop-color="#0A67C4" stop-opacity="0.191"/>
<stop offset="0.323" stop-color="#0A67C4" stop-opacity="0.339"/>
<stop offset="0.405" stop-color="#0A67C4" stop-opacity="0.53"/>
<stop offset="0.487" stop-color="#0A67C4" stop-opacity="0.76"/>
<stop offset="0.5" stop-color="#0A67C4" stop-opacity="0.8"/>
<stop offset="0.589" stop-color="#0A67C4" stop-opacity="0.779"/>
<stop offset="0.682" stop-color="#0A67C4" stop-opacity="0.715"/>
<stop offset="0.776" stop-color="#0A67C4" stop-opacity="0.609"/>
<stop offset="0.871" stop-color="#0A67C4" stop-opacity="0.461"/>
<stop offset="0.966" stop-color="#0A67C4" stop-opacity="0.273"/>
<stop offset="0.998" stop-color="#0A67C4" stop-opacity="0.2"/>
</linearGradient>
<clipPath id="clip0_75_159">
<rect width="48" height="48" fill="white"/>
</clipPath>
</defs>
</svg>
