<svg width="16" height="16" viewBox="0 0 16 16" fill="none" xmlns="http://www.w3.org/2000/svg">
<g clip-path="url(#clip0_117_40)">
<g clip-path="url(#clip1_117_40)">
<mask id="mask0_117_40" style="mask-type:alpha" maskUnits="userSpaceOnUse" x="-1" y="-1" width="17" height="18">
<path d="M8.1622 15.6269L15.1612 10.6279C15.922 10.0869 16.2071 9.07027 15.838 8.21285L12.839 1.21383C12.422 0.239097 11.3327 -0.223002 10.3673 0.103478L7.36728 1.10348C6.68857 1.32907 6.17978 1.90621 6.03916 2.60739L5.30088 6.30075L1.60752 7.03903C0.882914 7.18356 0.298934 7.71383 0.0850636 8.42184C-0.127826 9.12887 0.0645536 9.89254 0.586044 10.414L5.58604 15.414C6.28857 16.1166 7.37917 16.1878 8.1622 15.6269ZM1.04306 8.70992C1.14951 8.35738 1.44247 8.09176 1.8038 8.01949L6.15048 7.15035L7.01962 2.80367C7.08993 2.45211 7.34384 2.165 7.68368 2.05172C10.9036 0.978408 10.7722 0.999957 11.0001 0.999957C11.3897 0.999957 11.7579 1.22945 11.919 1.60641L14.919 8.60641C15.1046 9.03805 14.964 9.54098 14.5812 9.81344L7.58115 14.8134C7.18295 15.0982 6.63853 15.0525 6.29306 14.707L1.29306 9.70699C1.03232 9.44625 0.936614 9.06344 1.04306 8.70992ZM14.0001 8.99996L11.0001 1.99996L8.00009 2.99996L7.00009 7.99996L2.00009 8.99996L7.00009 14L14.0001 8.99996ZM7.8497 8.84957L8.86728 3.76559L10.4435 3.23922L12.7638 8.65426L7.10849 12.6943L4.02841 9.61422L7.8497 8.84957Z" fill="#231F20"/>
<path opacity="0.25" d="M12.7637 8.6543L10.4434 3.23926L8.86719 3.76562L7.84961 8.84961L4.02832 9.61426L7.1084 12.6943L12.7637 8.6543Z" fill="#231F20"/>
</mask>
<g mask="url(#mask0_117_40)">
<path d="M0 0H16V16H0V0Z" fill="#6E9D42"/>
</g>
</g>
</g>
<defs>
<clipPath id="clip0_117_40">
<rect width="16" height="16" fill="white"/>
</clipPath>
<clipPath id="clip1_117_40">
<rect width="16" height="16" fill="white"/>
</clipPath>
</defs>
</svg>
