<svg width="60" height="56" viewBox="0 0 60 56" fill="none" xmlns="http://www.w3.org/2000/svg">
<ellipse cx="30" cy="28" rx="30" ry="28" fill="black"/>
<path d="M41.7692 23.3L39.2308 18.1667C39.0128 17.8083 38.7072 17.5127 38.3434 17.3083C37.9797 17.104 37.57 16.9978 37.1538 17H22.8462C22.43 16.9978 22.0203 17.104 21.6566 17.3083C21.2928 17.5127 20.9872 17.8083 20.7692 18.1667L18.2308 23.3L15.3692 25.988C15.2529 26.0971 15.1601 26.2292 15.0966 26.3761C15.0331 26.5231 15.0002 26.6817 15 26.842V36.8333C15 37.1428 15.1216 37.4395 15.338 37.6583C15.5543 37.8771 15.8478 38 16.1538 38H20.7692C21.2308 38 21.9231 37.5333 21.9231 37.0667V35.6667H38.0769V36.8333C38.0769 37.3 38.5385 38 39 38H43.8462C44.1522 38 44.4457 37.8771 44.662 37.6583C44.8784 37.4395 45 37.1428 45 36.8333V26.842C44.9998 26.6817 44.9669 26.5231 44.9034 26.3761C44.8399 26.2292 44.7471 26.0971 44.6308 25.988L41.7692 23.3ZM23.0769 19.3334H36.9231L39.2308 24H20.7692L23.0769 19.3334ZM24.2308 30.0667C24.2308 30.5333 23.5385 31 23.0769 31H18.2308C17.7692 31 17.3077 30.3 17.3077 29.8333V27.2667C17.5385 26.5667 18 26.1 18.6923 26.3334L23.3077 27.2667C23.7692 27.2667 24.2308 27.9667 24.2308 28.4333V30.0667ZM42.6923 29.8333C42.6923 30.3 42.2308 31 41.7692 31H36.9231C36.4615 31 35.7692 30.5333 35.7692 30.0667V28.4333C35.7692 27.9667 36.2308 27.2667 36.6923 27.2667L41.3077 26.3334C42 26.1 42.4615 26.5667 42.6923 27.2667V29.8333Z" fill="white"/>
</svg>
