<svg width="64" height="64" xmlns="http://www.w3.org/2000/svg" xmlns:xlink="http://www.w3.org/1999/xlink" xml:space="preserve" overflow="hidden"><g transform="translate(-1139 -440)"><path d="M1161.67 478.8 1197.67 478.8 1197.67 479.867 1161.67 479.867ZM1145.67 457.2 1156.33 457.2 1156.33 456.133 1145.67 456.133ZM1145.67 462.533 1156.33 462.533 1156.33 461.467 1145.67 461.467ZM1145.67 467.867 1156.33 467.867 1156.33 466.8 1145.67 466.8ZM1175.13 490.667 1176.2 490.667 1176.2 488 1175.13 488ZM1171.13 490.667 1172.2 490.667 1172.2 486.667 1171.13 486.667ZM1179.13 490.667 1180.2 490.667 1180.2 484 1179.13 484ZM1187.13 490.667 1188.2 490.667 1188.2 482.667 1187.13 482.667ZM1183.13 490.667 1184.2 490.667 1184.2 485.333 1183.13 485.333ZM1151 488.133C1148.72 488.141 1146.87 486.303 1146.86 484.027 1146.86 482.201 1148.05 480.588 1149.8 480.064L1149.8 478.953C1147.01 479.617 1145.29 482.417 1145.95 485.208 1146.61 488 1149.41 489.725 1152.2 489.061 1154.17 488.595 1155.68 487.035 1156.09 485.06L1154.98 485.06C1154.5 486.867 1152.87 488.128 1151 488.133ZM1156.2 483.333 1156.2 483.725 1151.14 483.725 1151.14 478.8 1151.67 478.8C1154.17 478.803 1156.2 480.831 1156.2 483.333ZM1155.09 482.8C1154.86 481.31 1153.69 480.141 1152.2 479.907L1152.2 482.8ZM1200.2 451.419 1200.2 492.581C1200.25 493.603 1199.47 494.475 1198.45 494.533L1143.55 494.533C1142.53 494.475 1141.75 493.603 1141.8 492.581L1141.8 451.419C1141.75 450.397 1142.53 449.525 1143.55 449.467L1198.45 449.467C1199.47 449.525 1200.25 450.397 1200.2 451.419ZM1159.13 493.467 1159.13 450.533 1143.55 450.533C1143.13 450.6 1142.82 450.988 1142.87 451.419L1142.87 492.581C1142.82 493.012 1143.13 493.4 1143.55 493.467ZM1199.13 451.419C1199.18 450.988 1198.87 450.6 1198.45 450.533L1160.2 450.533 1160.2 493.467 1198.45 493.467C1198.87 493.4 1199.18 493.012 1199.13 492.581ZM1191.67 458.133C1193.07 458.134 1194.2 459.269 1194.2 460.668 1194.2 461.867 1193.36 462.902 1192.18 463.147 1192.19 463.209 1192.2 463.271 1192.2 463.333 1192.21 464.365 1191.37 465.205 1190.34 465.21 1189.31 465.214 1188.47 464.382 1188.47 463.35 1188.46 462.688 1188.81 462.074 1189.38 461.736 1189.22 461.402 1189.14 461.037 1189.13 460.667 1189.13 459.268 1190.27 458.135 1191.67 458.133ZM1191.13 463.333C1191.13 462.891 1190.77 462.534 1190.33 462.535 1189.89 462.535 1189.53 462.894 1189.53 463.336 1189.53 463.777 1189.89 464.135 1190.33 464.135 1190.78 464.133 1191.13 463.775 1191.13 463.333ZM1191.67 459.2C1190.86 459.201 1190.2 459.857 1190.2 460.667 1190.21 460.96 1190.31 461.244 1190.48 461.48 1190.97 461.518 1191.42 461.748 1191.74 462.119 1192.55 462.098 1193.18 461.428 1193.16 460.621 1193.14 459.815 1192.47 459.178 1191.67 459.199ZM1196.2 475.867 1163.13 475.867 1163.13 453.467 1196.2 453.467ZM1186.13 460.357 1184.19 462.288C1184.39 462.24 1184.6 462.217 1184.8 462.217 1185.18 462.259 1185.56 462.155 1185.87 461.925 1186.16 461.632 1186.14 461.013 1186.13 460.357ZM1186.62 454.533 1179.57 461.583C1179.72 461.75 1179.85 461.94 1179.95 462.145 1180.01 462.302 1180.11 462.445 1180.23 462.569 1180.57 462.908 1181.03 463.112 1181.51 463.145 1181.63 463.117 1181.74 463.072 1181.85 463.012 1181.91 462.983 1181.98 462.953 1182.05 462.923L1186.27 458.699C1186.36 458.37 1186.52 458.067 1186.75 457.819 1187.02 457.554 1187.35 457.362 1187.71 457.259L1190.44 454.533ZM1189.46 457.021C1190.02 456.823 1190.45 456.385 1190.65 455.829ZM1181.28 454.533 1167.89 467.931 1167.89 467.932C1168.51 468.075 1169.53 468.315 1169.53 469.311 1169.54 469.422 1169.56 469.532 1169.6 469.637 1169.63 469.746 1169.65 469.856 1169.67 469.968L1173.6 466.04C1173.62 465.564 1173.85 465.12 1174.21 464.82 1174.43 464.599 1174.52 464.501 1174.52 464.353L1174.52 463.704C1174.52 463.053 1174.97 462.491 1175.61 462.344 1175.94 462.297 1176.28 462.348 1176.59 462.491 1176.92 462.619 1177.01 462.717 1177.41 462.144 1177.62 461.787 1177.93 461.503 1178.31 461.331L1185.11 454.533ZM1175.95 454.533 1175.79 454.693C1175.79 454.866 1175.8 455.038 1175.83 455.208 1176.11 456.198 1175.68 457.254 1174.79 457.769 1174.52 457.962 1174.31 458.224 1174.18 458.528 1173.94 459.189 1173.33 459.647 1172.63 459.696 1172.23 459.68 1171.86 459.527 1171.56 459.263 1171.5 459.212 1171.43 459.166 1171.36 459.123L1170.86 459.623C1170.79 460.692 1169.97 461.561 1168.9 461.697 1168.86 461.697 1168.83 461.688 1168.8 461.687L1166.93 463.549C1167.12 463.509 1167.32 463.499 1167.52 463.52 1168.31 463.6 1168.6 464.459 1168.6 464.983 1168.54 465.607 1168.23 466.18 1167.73 466.564 1167.66 466.632 1167.62 466.684 1167.56 466.743L1179.77 454.533ZM1166.32 461.956C1166.31 462.3 1166.22 462.636 1166.04 462.932L1167.68 461.292C1167.54 461.173 1167.41 461.028 1167.32 460.865 1167.02 460.323 1166.89 460.161 1166.67 460.161 1166.35 460.191 1166.11 460.472 1166.13 460.793 1166.14 460.944 1166.16 461.094 1166.21 461.239 1166.28 461.471 1166.32 461.713 1166.32 461.956ZM1168.29 474.8 1167.91 472.012C1167.88 471.907 1167.85 471.797 1167.85 471.685 1167.88 471.234 1168.07 470.81 1168.39 470.488 1168.49 470.385 1168.57 470.27 1168.63 470.147 1168.62 470.076 1168.6 470.006 1168.57 469.937 1168.51 469.735 1168.47 469.524 1168.46 469.311 1168.46 469.161 1167.97 469.047 1167.65 468.971 1167.12 468.847 1166.57 468.717 1166.33 468.245 1165.91 467.385 1166.19 466.347 1166.98 465.808 1167.32 465.465 1167.53 465.239 1167.53 464.981 1167.53 464.836 1167.49 464.695 1167.4 464.579 1167.23 464.564 1167.05 464.597 1166.9 464.676 1166.62 464.798 1166.32 464.861 1166.02 464.863 1165.33 464.906 1164.74 464.385 1164.7 463.697 1164.7 463.692 1164.69 463.686 1164.69 463.68 1164.71 463.283 1164.83 462.897 1165.04 462.561 1165.16 462.382 1165.23 462.173 1165.25 461.956 1165.25 461.804 1165.22 461.653 1165.18 461.508 1165.11 461.276 1165.07 461.035 1165.07 460.793 1165.04 459.882 1165.76 459.122 1166.67 459.095 1167.56 459.095 1167.95 459.803 1168.24 460.319 1168.33 460.493 1168.47 460.631 1168.9 460.631 1169.43 460.631 1169.81 459.817 1169.81 459.395 1169.79 458.637 1170.38 458.003 1171.14 457.977 1171.54 457.994 1171.91 458.148 1172.21 458.412 1172.74 458.817 1172.82 458.765 1173.25 458.005 1173.47 457.522 1173.83 457.114 1174.28 456.832 1174.74 456.584 1174.89 456.145 1174.77 455.365 1174.73 455.09 1174.72 454.811 1174.73 454.533L1164.2 454.533 1164.2 474.8ZM1170.17 474.8 1174.43 470.541C1174.38 470.407 1174.35 470.264 1174.34 470.119L1174.35 469.807C1174.35 469.615 1174.43 469.504 1174.6 469.284 1174.79 469.054 1174.95 468.798 1175.07 468.523 1174.96 468.215 1174.79 467.932 1174.57 467.692 1174.6 467.727 1174.52 467.679 1174.45 467.599L1174.34 467.481C1174.23 467.367 1174.13 467.242 1174.04 467.108L1169.02 472.125 1169.37 474.8ZM1174.85 474.8 1174.9 471.581 1171.68 474.8ZM1195.13 470.032C1194.79 470.069 1194.51 470.105 1194.38 470.127 1194.22 470.143 1194.06 470.147 1193.9 470.139 1193.62 470.124 1193.34 470.132 1193.06 470.163 1192.86 470.263 1192.66 470.38 1192.47 470.512L1192.34 470.579C1191.75 470.822 1191.12 470.923 1190.49 470.872 1190.3 470.842 1190.1 470.834 1189.91 470.851 1189.81 470.855 1189.7 470.856 1189.59 470.853 1189.41 470.831 1189.23 470.772 1189.06 470.68 1188.94 470.618 1188.82 470.567 1188.69 470.529 1188.48 470.568 1188.28 470.598 1188.07 470.62 1187.9 470.622 1187.73 470.606 1187.57 470.573 1187.45 470.549 1187.33 470.535 1187.2 470.533 1187.1 470.653 1187.01 470.776 1186.91 470.903 1186.86 470.97 1186.81 471.037 1186.76 471.101 1186.62 471.27 1186.46 471.414 1186.28 471.525 1186.25 471.539 1186.21 471.548 1186.18 471.561 1186.06 472.95 1184.83 473.978 1183.44 473.858 1182.52 473.777 1181.71 473.194 1181.34 472.34L1181.31 472.323C1181.19 472.236 1181.09 472.136 1180.99 472.024 1180.85 471.87 1180.7 471.728 1180.54 471.6 1180.41 471.561 1180.28 471.531 1180.15 471.512L1180.15 471.499C1179.51 471.381 1178.93 471.049 1178.51 470.559 1178.43 470.456 1178.34 470.362 1178.24 470.28 1178.17 470.219 1178.11 470.155 1178.04 470.087 1177.93 469.942 1177.86 469.773 1177.83 469.593 1177.81 469.478 1177.77 469.366 1177.71 469.263 1177.61 469.182 1177.49 469.123 1177.36 469.087 1177.15 469.194 1176.91 469.234 1176.67 469.203 1176.5 469.171 1176.34 469.143 1176.17 469.119L1175.99 469.084C1175.83 469.378 1175.66 469.657 1175.45 469.919L1175.41 469.989C1175.44 470.186 1175.53 470.369 1175.67 470.511 1175.87 470.702 1176 470.959 1176.03 471.236 1176.02 471.379 1175.99 471.521 1175.95 471.657L1175.91 474.8 1195.13 474.8ZM1183.67 472.8C1184.48 472.8 1185.13 472.143 1185.13 471.333 1185.13 470.523 1184.48 469.867 1183.67 469.867 1182.86 469.867 1182.2 470.523 1182.2 471.333 1182.2 472.143 1182.86 472.799 1183.67 472.8ZM1195.13 454.533 1192.22 454.533C1191.81 456.139 1191.11 458.147 1189.05 458.147 1188.51 458.085 1187.96 458.234 1187.52 458.564 1187.2 459.092 1187.08 459.72 1187.19 460.328 1187.33 461.152 1187.13 461.996 1186.63 462.669 1186.13 463.117 1185.47 463.339 1184.8 463.283 1184.67 463.279 1184.53 463.294 1184.39 463.327 1184.16 463.392 1183.87 463.488 1183.61 463.577 1183.31 463.708 1182.98 463.795 1182.65 463.835 1182.54 463.863 1182.42 463.908 1182.32 463.968 1182.07 464.111 1181.8 464.195 1181.51 464.212 1180.77 464.185 1180.06 463.886 1179.52 463.371 1179.3 463.162 1179.12 462.913 1179 462.637 1178.83 462.315 1178.81 462.315 1178.75 462.315 1178.62 462.315 1178.52 462.425 1178.29 462.757 1178.02 463.271 1177.51 463.611 1176.94 463.655 1176.69 463.646 1176.44 463.589 1176.21 463.487 1176.08 463.418 1175.94 463.386 1175.79 463.395 1175.67 463.451 1175.59 463.57 1175.58 463.704L1175.58 464.353C1175.56 464.828 1175.34 465.272 1174.97 465.572 1174.75 465.793 1174.67 465.891 1174.67 466.041L1174.77 466.143C1174.84 466.248 1174.89 466.369 1174.92 466.497 1174.97 466.59 1175.03 466.673 1175.11 466.744L1175.27 466.911C1175.23 466.867 1175.31 466.915 1175.37 466.985 1175.63 467.29 1175.85 467.633 1176.01 468.003 1176.12 468.025 1176.22 468.047 1176.33 468.064 1176.59 468.105 1176.84 468.144 1176.91 468.163 1176.85 468.148 1176.9 468.128 1176.95 468.112 1177.08 468.059 1177.23 468.029 1177.37 468.021L1177.38 468.021C1177.86 468.064 1178.3 468.304 1178.61 468.684 1178.73 468.884 1178.81 469.103 1178.86 469.332 1178.87 469.396 1178.91 469.454 1178.96 469.492 1179.18 469.667 1179.35 469.883 1179.48 470.128 1179.53 470.14 1180.04 470.36 1180.38 470.477L1180.38 470.483C1180.63 470.517 1180.87 470.588 1181.1 470.692 1181.13 470.712 1181.17 470.747 1181.2 470.772 1181.51 469.409 1182.86 468.555 1184.23 468.864 1185.02 469.044 1185.68 469.594 1186 470.343L1186.06 470.257C1186.26 469.931 1186.56 469.671 1186.9 469.511 1187.18 469.451 1187.46 469.454 1187.73 469.52 1187.83 469.537 1187.92 469.549 1188.01 469.555 1188.14 469.548 1188.48 469.484 1188.57 469.467L1188.66 469.448 1188.82 469.467C1189.06 469.519 1189.3 469.603 1189.52 469.719 1189.58 469.748 1189.63 469.773 1189.69 469.793L1189.87 469.784C1190.18 469.756 1190.5 469.779 1190.8 469.853 1191.19 469.802 1191.57 469.713 1191.93 469.587 1192.21 469.38 1192.53 469.22 1192.86 469.113 1193.21 469.067 1193.56 469.054 1193.92 469.073 1194.05 469.073 1194.16 469.079 1194.22 469.073 1194.35 469.049 1194.71 469.005 1195.13 468.959Z" fill="#027ECF"/></g></svg>