<svg width="48" height="48" viewBox="0 0 48 48" fill="none" xmlns="http://www.w3.org/2000/svg">
<g clip-path="url(#clip0_88_147)">
<rect width="48" height="48" fill="#005941"/>
<path d="M5.08888 38.39C5.08849 38.5739 5.12451 38.7561 5.19488 38.926C5.26525 39.0959 5.36857 39.2502 5.49888 39.38L7.12488 41.005C7.70693 41.5854 8.49539 41.9114 9.31738 41.9114C10.1394 41.9114 10.9278 41.5854 11.5099 41.005L20.5129 32.002C21.8191 32.6197 23.2504 32.9272 24.6951 32.9006C26.1397 32.8739 27.5587 32.5139 28.8413 31.8485C30.1239 31.1831 31.2354 30.2303 32.0891 29.0646C32.9428 27.8988 33.5156 26.5516 33.7629 25.128C33.9279 24.1612 33.9444 23.1748 33.8119 22.203C33.7944 22.0756 33.7416 21.9558 33.6594 21.8569C33.5772 21.7581 33.4689 21.6843 33.3469 21.644C33.2222 21.6012 33.088 21.5943 32.9596 21.6242C32.8312 21.6541 32.7138 21.7195 32.6209 21.813L27.4069 27.027L22.8849 25.116L20.9739 20.592L26.1869 15.378C26.2802 15.2856 26.3456 15.1688 26.3757 15.0409C26.4057 14.9131 26.3992 14.7793 26.3569 14.655C26.3166 14.5326 26.2428 14.4241 26.1437 14.3417C26.0447 14.2593 25.9245 14.2064 25.7969 14.189C24.8601 14.0617 23.9097 14.0722 22.9759 14.22C21.0784 14.5018 19.3164 15.3694 17.936 16.7015C16.5557 18.0336 15.626 19.7637 15.2769 21.65C14.92 23.4749 15.1071 25.3645 15.8149 27.084L5.49988 37.399C5.36935 37.5287 5.26581 37.6829 5.19527 37.8529C5.12472 38.0228 5.08856 38.206 5.08888 38.39ZM6.06488 37.965L16.7679 27.262L16.6549 27.011C15.9253 25.3769 15.7182 23.5573 16.0619 21.801C16.3812 20.0768 17.2313 18.4955 18.4934 17.2781C19.7554 16.0607 21.3663 15.2681 23.1009 15.011C23.564 14.938 24.0321 14.9013 24.5009 14.901C24.8276 14.9006 25.1542 14.9186 25.4789 14.955L20.0259 20.408L22.2729 25.726L27.5929 27.973L33.0369 22.457C33.1382 23.3016 33.117 24.1564 32.9739 24.995C32.7432 26.319 32.2047 27.5704 31.4018 28.6482C30.5989 29.7259 29.554 30.6 28.3513 31.2C27.1487 31.8 25.8219 32.109 24.478 32.1022C23.134 32.0955 21.8104 31.773 20.6139 31.161L20.3539 31.029L10.9439 40.44C10.5121 40.8707 9.92721 41.1126 9.31738 41.1126C8.70755 41.1126 8.12262 40.8707 7.69088 40.44L6.06488 38.814C6.0091 38.7583 5.96484 38.6921 5.93465 38.6193C5.90445 38.5464 5.88891 38.4683 5.88891 38.3895C5.88891 38.3106 5.90445 38.2326 5.93465 38.1597C5.96484 38.0869 6.0091 38.0207 6.06488 37.965ZM37.1079 32.432L39.4349 34.759C39.521 34.8445 39.6251 34.9096 39.7397 34.9495C39.8543 34.9895 39.9763 35.0033 40.0969 34.99C40.216 34.9773 40.3308 34.9379 40.4326 34.8747C40.5344 34.8115 40.6207 34.7262 40.6849 34.625C42.8731 31.1618 43.9898 27.1294 43.8948 23.0338C43.7998 18.9383 42.4974 14.962 40.1509 11.604C40.0964 11.527 40.026 11.4626 39.9443 11.4153C39.8627 11.368 39.7718 11.3389 39.6779 11.33C39.583 11.32 39.4871 11.3316 39.3974 11.364C39.3077 11.3964 39.2265 11.4487 39.1599 11.517L36.7129 13.963C36.5849 14.0908 36.5048 14.2587 36.4859 14.4386C36.4669 14.6184 36.5104 14.7993 36.6089 14.951C38.1695 17.4105 39.0292 20.2494 39.0951 23.1615C39.161 26.0736 38.4307 28.9484 36.9829 31.476C36.8959 31.627 36.8611 31.8024 36.8837 31.9751C36.9063 32.1479 36.985 32.3084 37.1079 32.432ZM39.8999 23.535C39.9065 20.3435 38.9972 17.2171 37.2799 14.527L39.5999 12.21C41.8094 15.4335 43.0249 19.2342 43.096 23.1415C43.1671 27.0489 42.0906 30.8913 39.9999 34.193L37.6759 31.873C39.1306 29.3348 39.8969 26.4605 39.8989 23.535H39.8999ZM23.9999 3.073C19.9479 3.07504 15.9982 4.34544 12.7049 6.706C12.61 6.77321 12.5309 6.86044 12.4734 6.96151C12.4159 7.06259 12.3812 7.17507 12.3719 7.291C12.3619 7.40789 12.3777 7.52554 12.4179 7.63574C12.4581 7.74594 12.522 7.84602 12.6049 7.929L14.9169 10.239C15.0468 10.3678 15.2171 10.448 15.3992 10.4662C15.5812 10.4844 15.764 10.4395 15.9169 10.339C18.3124 8.748 21.1242 7.89934 23.9999 7.89934C26.8756 7.89934 29.6874 8.748 32.0829 10.339C32.2135 10.4251 32.3665 10.471 32.5229 10.471C32.6268 10.4712 32.7298 10.4509 32.8259 10.4113C32.922 10.3717 33.0093 10.3135 33.0829 10.24L35.3929 7.93C35.4762 7.84704 35.5405 7.74687 35.5811 7.63649C35.6217 7.52612 35.6376 7.4082 35.6279 7.291C35.6185 7.17507 35.5839 7.06259 35.5264 6.96151C35.4688 6.86044 35.3898 6.77321 35.2949 6.706C32.0015 4.34544 28.0518 3.07504 23.9999 3.073ZM32.5209 9.67C29.996 7.99317 27.0321 7.09914 24.0011 7.10003C20.9701 7.10092 18.0068 7.99668 15.4829 9.675L13.1679 7.358C16.3243 5.09116 20.1126 3.87225 23.9987 3.87315C27.8848 3.87404 31.6725 5.0947 34.8279 7.363L32.5209 9.67ZM5.99988 31.325C6.05707 31.3374 6.11538 31.3437 6.17388 31.344C6.38762 31.3438 6.59257 31.259 6.74388 31.108L9.27788 28.573C9.37652 28.4739 9.44717 28.3505 9.48265 28.2152C9.51813 28.08 9.51718 27.9378 9.47988 27.803C8.88398 25.6461 8.74625 23.3884 9.07555 21.1751C9.40485 18.9618 10.1939 16.842 11.3919 14.952C11.4906 14.8 11.5341 14.6186 11.5149 14.4384C11.4958 14.2581 11.4153 14.0899 11.2869 13.962L8.97388 11.649C8.89064 11.5654 8.79002 11.501 8.67916 11.4606C8.5683 11.4202 8.4499 11.4046 8.33236 11.415C8.21481 11.4254 8.10099 11.4615 7.99895 11.5208C7.89691 11.5801 7.80915 11.661 7.74188 11.758C5.85351 14.5173 4.6569 17.6905 4.2531 21.0097C3.8493 24.3288 4.25018 27.6964 5.42188 30.828C5.46888 30.9526 5.54644 31.0635 5.64743 31.1503C5.74842 31.2371 5.86962 31.2972 5.99988 31.325ZM8.39988 12.213L8.40588 12.215L10.7159 14.521C9.45623 16.5033 8.62679 18.7279 8.28123 21.051C7.93568 23.3741 8.08171 25.7439 8.70988 28.007L6.16888 30.547C5.04307 27.5363 4.65779 24.299 5.04555 21.1081C5.43331 17.9173 6.58274 14.8664 8.39688 12.213H8.39988ZM16.6699 42.489C19.824 43.7758 23.2612 44.2098 26.6362 43.7474C30.0112 43.2851 33.205 41.9426 35.8969 39.855C35.9873 39.7855 36.0617 39.6974 36.1152 39.5966C36.1687 39.4959 36.1999 39.3848 36.2069 39.271C36.2143 39.1565 36.1973 39.0417 36.1569 38.9343C36.1166 38.8269 36.0538 38.7293 35.9729 38.648L33.7059 36.382C33.572 36.247 33.394 36.1648 33.2044 36.1505C33.0149 36.1361 32.8265 36.1907 32.6739 36.304C30.8337 37.6684 28.6976 38.5795 26.4391 38.9631C24.1806 39.3468 21.8634 39.1922 19.6759 38.512C19.5381 38.4681 19.3909 38.4631 19.2505 38.4975C19.11 38.5319 18.9818 38.6044 18.8799 38.707L16.4109 41.176C16.3177 41.2697 16.249 41.385 16.2107 41.5115C16.1725 41.638 16.1659 41.772 16.1916 41.9017C16.2173 42.0313 16.2744 42.1527 16.358 42.2551C16.4416 42.3575 16.548 42.4378 16.6699 42.489ZM19.4379 39.276C21.7437 39.9935 24.1863 40.1565 26.5669 39.7516C28.9475 39.3467 31.199 38.3854 33.1379 36.946L35.4089 39.22C32.1459 41.7543 28.1314 43.129 23.9999 43.127C21.5906 43.1301 19.2043 42.6591 16.9769 41.741L19.4379 39.276Z" fill="white"/>
</g>
<defs>
<clipPath id="clip0_88_147">
<rect width="48" height="48" fill="white"/>
</clipPath>
</defs>
</svg>
