<svg width="64" height="64" xmlns="http://www.w3.org/2000/svg" xmlns:xlink="http://www.w3.org/1999/xlink" xml:space="preserve" overflow="hidden"><g transform="translate(-712 -320)"><path d="M718.012 357.771 713.993 337.819C714.321 337.797 714.783 337.765 715.34 337.72L720.023 354.733 757.744 343.3 759.184 348.933 760.217 348.668 758.767 342.991 762.4 341.889 755.267 320.364 754.716 320.641C748.417 323.728 741.879 326.301 735.165 328.333L735.148 328.337C728.436 330.375 721.57 331.866 714.617 332.796L714.004 332.871 715.051 336.672C713.987 336.755 713.347 336.792 713.321 336.792L712.705 336.825 717.183 359.053 745.909 352.495 747.328 351.077ZM754.64 321.867 761.043 341.187 720.76 353.395 715.36 333.773C722.168 332.834 728.891 331.357 735.467 329.356 742.045 327.369 748.456 324.864 754.64 321.867ZM732.42 336.36C732.034 339.08 732.966 341.821 734.929 343.743 736.068 344.817 737.572 345.419 739.137 345.428 739.76 345.429 740.379 345.33 740.971 345.135 744.291 344.033 745.98 340.084 744.736 336.332 744.174 334.571 742.991 333.074 741.408 332.119 739.925 331.206 738.117 330.987 736.459 331.52 734.329 332.274 732.78 334.13 732.419 336.36ZM736.793 332.533C738.16 332.098 739.649 332.283 740.868 333.04 742.228 333.863 743.242 335.152 743.724 336.667 744.783 339.861 743.396 343.205 740.635 344.12 738.889 344.675 736.979 344.231 735.657 342.963 733.968 341.289 733.157 338.923 733.467 336.565 733.756 334.714 735.032 333.169 736.795 332.533ZM751.337 337.361 753.031 342.468 752.017 342.803 750.324 337.697ZM757.077 337.584C756.728 336.607 755.653 336.098 754.676 336.447 753.73 336.784 753.217 337.806 753.512 338.767L753.935 340.043C754.269 341.025 755.336 341.551 756.318 341.216 757.289 340.886 757.816 339.838 757.501 338.861ZM755.972 340.221C755.547 340.36 755.09 340.13 754.948 339.707L754.525 338.431C754.379 338.008 754.603 337.546 755.026 337.399 755.449 337.253 755.911 337.477 756.057 337.9 756.06 337.907 756.062 337.913 756.064 337.92L756.488 339.196C756.628 339.622 756.397 340.08 755.972 340.221ZM719.473 335.3 720.52 335.087 721.589 340.359 720.544 340.571ZM722.511 336.741 722.777 338.059C722.984 339.075 723.974 339.731 724.991 339.525 726.007 339.319 726.663 338.328 726.457 337.312L726.191 335.995C725.985 334.978 724.994 334.322 723.977 334.528 722.961 334.734 722.305 335.725 722.511 336.741ZM724.191 335.573C724.244 335.562 724.299 335.556 724.353 335.556 724.738 335.557 725.069 335.829 725.145 336.207L725.412 337.524C725.501 337.963 725.218 338.391 724.779 338.48 724.34 338.569 723.912 338.286 723.823 337.847L723.556 336.529C723.468 336.091 723.751 335.664 724.189 335.573Z" stroke="#FFFFFF" stroke-width="1.33333" fill="#FFFFFF"/><path d="M736.803 376.333C735.794 377.303 735.763 378.907 736.733 379.915 737.702 380.924 739.306 380.955 740.315 379.985 740.338 379.963 740.361 379.94 740.384 379.916L756.985 363.316 758.023 364.353 758.367 364.697 759.404 365.735 758.529 366.609C757.802 367.339 757.802 368.52 758.529 369.249L759.627 370.347C760.356 371.074 761.537 371.074 762.267 370.347L769.333 363.28C770.061 362.55 770.06 361.369 769.332 360.64L768.233 359.543C767.504 358.814 766.323 358.814 765.593 359.543L765.52 359.617 764.483 358.58 757.965 352.063 756.928 351.025 757.069 350.884C757.798 350.155 757.798 348.973 757.069 348.244L755.972 347.147C755.243 346.418 754.061 346.418 753.332 347.147L746.267 354.213C745.539 354.943 745.539 356.124 746.267 356.853L747.364 357.951C748.093 358.679 749.275 358.679 750.004 357.951L750.812 357.143 751.849 358.18 752.365 358.696 753.403 359.733ZM739.629 379.163C739.049 379.716 738.136 379.716 737.556 379.163 736.983 378.59 736.983 377.661 737.555 377.089 737.556 377.088 737.556 377.088 737.556 377.088L754.156 360.488 756.232 362.563ZM766.915 360.064C767.127 360.064 767.33 360.148 767.48 360.297L768.579 361.396C768.89 361.709 768.89 362.215 768.579 362.528L761.512 369.592C761.195 369.893 760.698 369.893 760.381 369.592L759.283 368.495C758.971 368.182 758.971 367.676 759.283 367.363L766.349 360.297C766.499 360.148 766.703 360.064 766.915 360.064ZM749.251 357.197C748.938 357.51 748.43 357.51 748.117 357.197 748.117 357.197 748.117 357.197 748.117 357.197L747.021 356.099C746.711 355.786 746.711 355.281 747.021 354.968L754.085 347.901C754.398 347.588 754.906 347.588 755.219 347.901 755.219 347.901 755.219 347.901 755.219 347.901L756.316 349C756.629 349.312 756.629 349.819 756.317 350.131 756.316 350.132 756.316 350.132 756.316 350.132ZM751.567 356.388 756.175 351.781 757.211 352.817 763.728 359.335 764.765 360.372 760.157 364.98 759.12 363.943 758.72 363.543 753.177 358 752.604 357.427ZM774.895 377.468 773.2 377.468 773.2 375.772C773.222 375.26 772.827 374.827 772.316 374.8L751.684 374.8C751.172 374.827 750.777 375.261 750.8 375.773L750.8 377.467 749.107 377.467C748.569 377.467 748.133 377.902 748.133 378.44L748.133 383.867 775.867 383.867 775.867 378.44C775.867 377.902 775.431 377.467 774.893 377.467ZM751.867 375.867 772.133 375.867 772.133 377.467 751.867 377.467ZM774.8 382.8 749.2 382.8 749.2 378.533 774.8 378.533Z" stroke="#FFFFFF" stroke-width="1.33333" fill="#FFFFFF"/></g></svg>