<svg width="64" height="64" xmlns="http://www.w3.org/2000/svg" xmlns:xlink="http://www.w3.org/1999/xlink" xml:space="preserve" overflow="hidden"><g transform="translate(-819 -560)"><path d="M878.671 597.497C878.8 597.239 878.867 596.955 878.867 596.667L878.867 584.667C878.867 582.935 872.845 582.8 871 582.8 869.155 582.8 863.133 582.935 863.133 584.667L863.133 596.667C863.134 597.567 863.777 598.339 864.663 598.503 864.534 598.761 864.467 599.045 864.467 599.333L864.467 616.667C864.467 618.399 870.488 618.533 872.333 618.533 874.179 618.533 880.2 618.399 880.2 616.667L880.2 599.333C880.199 598.433 879.556 597.661 878.671 597.497ZM871 583.867C873.237 583.753 875.477 584.024 877.623 584.667 875.477 585.309 873.237 585.58 871 585.467 868.763 585.58 866.523 585.309 864.377 584.667 866.523 584.024 868.763 583.753 871 583.867ZM879.133 616.564C878.719 616.891 876.384 617.467 872.333 617.467 868.283 617.467 865.948 616.891 865.533 616.564L865.533 614.533 873.667 614.533 873.667 613.467 865.533 613.467 865.533 610.533 873.667 610.533 873.667 609.467 865.533 609.467 865.533 606.533 873.667 606.533 873.667 605.467 865.533 605.467 865.533 602.533 873.667 602.533 873.667 601.467 865.533 601.467 865.533 599.333C865.533 598.891 865.891 598.533 866.333 598.533L873.667 598.533 873.667 597.467 865 597.467C864.558 597.467 864.2 597.109 864.2 596.667L864.2 594.533 871 594.533 871 593.467 864.2 593.467 864.2 590.533 871 590.533 871 589.467 864.2 589.467 864.2 585.724C866.414 586.328 868.706 586.601 871 586.533 873.294 586.601 875.586 586.328 877.8 585.724L877.8 596.667C877.8 597.109 877.442 597.467 877 597.467L877 598.533 878.333 598.533C878.775 598.533 879.133 598.891 879.133 599.333ZM839 613.467 836.2 613.467 836.2 612.667C836.2 612.378 836.133 612.094 836.004 611.836 836.889 611.672 837.532 610.9 837.533 610L837.533 594C837.533 592.268 831.512 592.133 829.667 592.133 827.821 592.133 821.8 592.268 821.8 594L821.8 610C821.8 610.288 821.867 610.573 821.996 610.831 821.111 610.994 820.468 611.766 820.467 612.667L820.467 614C820.467 614.336 820.481 615.333 825.133 615.733L825.133 616.667C825.133 618.399 831.155 618.533 833 618.533 834.845 618.533 840.867 618.399 840.867 616.667L840.867 615.333C840.866 614.303 840.031 613.467 839 613.467ZM829.667 593.2C831.904 593.087 834.144 593.357 836.289 594 834.144 594.643 831.904 594.913 829.667 594.8 827.43 594.913 825.19 594.643 823.044 594 825.19 593.357 827.43 593.087 829.667 593.2ZM821.533 612.667C821.533 612.225 821.891 611.867 822.333 611.867L831 611.867 831 610.8 823.667 610.8C823.225 610.8 822.867 610.442 822.867 610L822.867 607.867 831 607.867 831 606.8 822.867 606.8 822.867 603.867 831 603.867 831 602.8 822.867 602.8 822.867 599.867 831 599.867 831 598.8 822.867 598.8 822.867 595.057C825.081 595.662 827.372 595.934 829.667 595.867 831.961 595.934 834.252 595.662 836.467 595.057L836.467 610C836.467 610.442 836.109 610.8 835.667 610.8L834.333 610.8 834.333 611.867C834.775 611.867 835.133 612.225 835.133 612.667L835.133 613.467 827 613.467C826.226 613.469 825.534 613.948 825.26 614.672 823.978 614.668 822.71 614.404 821.533 613.896ZM839.8 616.564C839.385 616.891 837.051 617.467 833 617.467 828.949 617.467 826.615 616.891 826.2 616.564L826.2 615.333C826.2 614.891 826.558 614.533 827 614.533L839 614.533C839.442 614.533 839.8 614.891 839.8 615.333ZM851 566.844C849.171 566.844 843.247 566.977 843.143 568.667L843.133 568.667 843.133 572.667C843.133 572.955 843.2 573.239 843.329 573.497 842.444 573.661 841.801 574.433 841.8 575.333L841.8 580.667C841.801 581.567 842.444 582.339 843.329 582.503 843.2 582.761 843.133 583.045 843.133 583.333L843.133 588.667C843.133 588.955 843.2 589.239 843.329 589.497 842.444 589.661 841.801 590.433 841.8 591.333L841.8 600.667C841.801 601.567 842.444 602.339 843.329 602.503 843.2 602.761 843.133 603.045 843.133 603.333L843.133 612.667C843.133 614.399 849.155 614.533 851 614.533 852.845 614.533 858.867 614.399 858.867 612.667L858.867 603.333C858.866 602.433 858.223 601.661 857.337 601.497 857.466 601.239 857.533 600.955 857.533 600.667L857.533 591.333C857.533 591.045 857.466 590.761 857.337 590.503 858.223 590.339 858.866 589.567 858.867 588.667L858.867 583.333C858.866 582.433 858.223 581.661 857.337 581.497 857.466 581.239 857.533 580.955 857.533 580.667L857.533 575.333C857.533 575.045 857.466 574.761 857.337 574.503 858.223 574.339 858.866 573.567 858.867 572.667L858.867 568.667 858.857 568.667C858.753 566.977 852.831 566.843 851 566.843ZM851 567.911C853.237 567.797 855.477 568.068 857.623 568.711 855.477 569.353 853.237 569.624 851 569.511 848.763 569.624 846.523 569.353 844.377 568.711 846.523 568.068 848.763 567.797 851 567.911ZM857 573.467 855.667 573.467 855.667 574.533C856.109 574.533 856.467 574.891 856.467 575.333L856.467 580.667C856.467 581.109 856.109 581.467 855.667 581.467L855.667 582.533 857 582.533C857.442 582.533 857.8 582.891 857.8 583.333L857.8 588.667C857.8 589.109 857.442 589.467 857 589.467L855.667 589.467 855.667 590.533C856.109 590.533 856.467 590.891 856.467 591.333L856.467 600.667C856.467 601.109 856.109 601.467 855.667 601.467L855.667 602.533 857 602.533C857.442 602.533 857.8 602.891 857.8 603.333L857.8 612.564C857.385 612.891 855.051 613.467 851 613.467 846.949 613.467 844.615 612.891 844.2 612.564L844.2 610.533 851 610.533 851 609.467 844.2 609.467 844.2 606.533 851 606.533 851 605.467 844.2 605.467 844.2 603.333C844.2 602.891 844.558 602.533 845 602.533L852.333 602.533 852.333 601.467 843.667 601.467C843.225 601.467 842.867 601.109 842.867 600.667L842.867 598.533 849.667 598.533 849.667 597.467 842.867 597.467 842.867 594.533 849.667 594.533 849.667 593.467 842.867 593.467 842.867 591.333C842.867 590.891 843.225 590.533 843.667 590.533L852.333 590.533 852.333 589.467 845 589.467C844.558 589.467 844.2 589.109 844.2 588.667L844.2 586.533 851 586.533 851 585.467 844.2 585.467 844.2 583.333C844.2 582.891 844.558 582.533 845 582.533L852.333 582.533 852.333 581.467 843.667 581.467C843.225 581.467 842.867 581.109 842.867 580.667L842.867 578.533 849.667 578.533 849.667 577.467 842.867 577.467 842.867 575.333C842.867 574.891 843.225 574.533 843.667 574.533L852.333 574.533 852.333 573.467 845 573.467C844.558 573.467 844.2 573.109 844.2 572.667L844.2 569.768C846.414 570.372 848.706 570.644 851 570.576 853.294 570.644 855.586 570.372 857.8 569.768L857.8 572.667C857.8 573.109 857.442 573.467 857 573.467Z" stroke="#FFFFFF" stroke-width="1.33333" fill="#FFFFFF"/></g></svg>