<svg width="68" height="64" viewBox="0 0 68 64" fill="none" xmlns="http://www.w3.org/2000/svg">
<g filter="url(#filter0_d_2109_213)">
<ellipse cx="34" cy="28" rx="30" ry="28" fill="black"/>
</g>
<path d="M45.7692 23.3L43.2308 18.1667C43.0128 17.8083 42.7072 17.5127 42.3434 17.3083C41.9797 17.104 41.57 16.9978 41.1538 17H26.8462C26.43 16.9978 26.0203 17.104 25.6566 17.3083C25.2928 17.5127 24.9872 17.8083 24.7692 18.1667L22.2308 23.3L19.3692 25.988C19.2529 26.0971 19.1601 26.2292 19.0966 26.3761C19.0331 26.5231 19.0002 26.6817 19 26.842V36.8333C19 37.1428 19.1216 37.4395 19.338 37.6583C19.5543 37.8771 19.8478 38 20.1538 38H24.7692C25.2308 38 25.9231 37.5333 25.9231 37.0667V35.6667H42.0769V36.8333C42.0769 37.3 42.5385 38 43 38H47.8462C48.1522 38 48.4457 37.8771 48.662 37.6583C48.8784 37.4395 49 37.1428 49 36.8333V26.842C48.9998 26.6817 48.9669 26.5231 48.9034 26.3761C48.8399 26.2292 48.7471 26.0971 48.6308 25.988L45.7692 23.3ZM27.0769 19.3334H40.9231L43.2308 24H24.7692L27.0769 19.3334ZM28.2308 30.0667C28.2308 30.5333 27.5385 31 27.0769 31H22.2308C21.7692 31 21.3077 30.3 21.3077 29.8333V27.2667C21.5385 26.5667 22 26.1 22.6923 26.3334L27.3077 27.2667C27.7692 27.2667 28.2308 27.9667 28.2308 28.4333V30.0667ZM46.6923 29.8333C46.6923 30.3 46.2308 31 45.7692 31H40.9231C40.4615 31 39.7692 30.5333 39.7692 30.0667V28.4333C39.7692 27.9667 40.2308 27.2667 40.6923 27.2667L45.3077 26.3334C46 26.1 46.4615 26.5667 46.6923 27.2667V29.8333Z" fill="white"/>
<defs>
<filter id="filter0_d_2109_213" x="0" y="0" width="68" height="64" filterUnits="userSpaceOnUse" color-interpolation-filters="sRGB">
<feFlood flood-opacity="0" result="BackgroundImageFix"/>
<feColorMatrix in="SourceAlpha" type="matrix" values="0 0 0 0 0 0 0 0 0 0 0 0 0 0 0 0 0 0 127 0" result="hardAlpha"/>
<feOffset dy="4"/>
<feGaussianBlur stdDeviation="2"/>
<feComposite in2="hardAlpha" operator="out"/>
<feColorMatrix type="matrix" values="0 0 0 0 0 0 0 0 0 0 0 0 0 0 0 0 0 0 0.25 0"/>
<feBlend mode="normal" in2="BackgroundImageFix" result="effect1_dropShadow_2109_213"/>
<feBlend mode="normal" in="SourceGraphic" in2="effect1_dropShadow_2109_213" result="shape"/>
</filter>
</defs>
</svg>
