<svg width="696" height="136" viewBox="0 0 696 136" fill="none" xmlns="http://www.w3.org/2000/svg">
<rect x="19" y="105" width="170" height="7" fill="#2A322C"/>
<rect x="171.15" y="91" width="17.5" height="7" fill="#EFEFEF"/>
<rect width="7" height="80" fill="#2A322C"/>
<path d="M171.145 69H180.145V91H171.145V69Z" fill="#EFEFEF"/>
<rect width="467" height="7" fill="#2A322C"/>
<path d="M45.0156 58.8379C45.0156 58.0762 44.8984 57.3926 44.6641 56.7871C44.4492 56.1621 44.0391 55.5957 43.4336 55.0879C42.8281 54.5605 41.9785 54.043 40.8848 53.5352C39.791 53.0273 38.375 52.5 36.6367 51.9531C34.7031 51.3281 32.8672 50.625 31.1289 49.8438C29.4102 49.0625 27.8867 48.1543 26.5586 47.1191C25.25 46.0645 24.2148 44.8438 23.4531 43.457C22.7109 42.0703 22.3398 40.459 22.3398 38.623C22.3398 36.8457 22.7305 35.2344 23.5117 33.7891C24.293 32.3242 25.3867 31.0742 26.793 30.0391C28.1992 28.9844 29.8594 28.1738 31.7734 27.6074C33.707 27.041 35.8262 26.7578 38.1309 26.7578C41.2754 26.7578 44.0195 27.3242 46.3633 28.457C48.707 29.5898 50.5234 31.1426 51.8125 33.1152C53.1211 35.0879 53.7754 37.3438 53.7754 39.8828H45.0449C45.0449 38.6328 44.7812 37.5391 44.2539 36.6016C43.7461 35.6445 42.9648 34.8926 41.9102 34.3457C40.875 33.7988 39.5664 33.5254 37.9844 33.5254C36.4609 33.5254 35.1914 33.7598 34.1758 34.2285C33.1602 34.6777 32.3984 35.293 31.8906 36.0742C31.3828 36.8359 31.1289 37.6953 31.1289 38.6523C31.1289 39.375 31.3047 40.0293 31.6562 40.6152C32.0273 41.2012 32.5742 41.748 33.2969 42.2559C34.0195 42.7637 34.9082 43.2422 35.9629 43.6914C37.0176 44.1406 38.2383 44.5801 39.625 45.0098C41.9492 45.7129 43.9902 46.5039 45.748 47.3828C47.5254 48.2617 49.0098 49.248 50.2012 50.3418C51.3926 51.4355 52.291 52.6758 52.8965 54.0625C53.502 55.4492 53.8047 57.0215 53.8047 58.7793C53.8047 60.6348 53.4434 62.2949 52.7207 63.7598C51.998 65.2246 50.9531 66.4648 49.5859 67.4805C48.2188 68.4961 46.5879 69.2676 44.6934 69.7949C42.7988 70.3223 40.6797 70.5859 38.3359 70.5859C36.2266 70.5859 34.1465 70.3125 32.0957 69.7656C30.0449 69.1992 28.1797 68.3496 26.5 67.2168C24.8398 66.084 23.5117 64.6387 22.5156 62.8809C21.5195 61.123 21.0215 59.043 21.0215 56.6406H29.8398C29.8398 57.9688 30.0449 59.0918 30.4551 60.0098C30.8652 60.9277 31.4414 61.6699 32.1836 62.2363C32.9453 62.8027 33.8438 63.2129 34.8789 63.4668C35.9336 63.7207 37.0859 63.8477 38.3359 63.8477C39.8594 63.8477 41.1094 63.6328 42.0859 63.2031C43.082 62.7734 43.8145 62.1777 44.2832 61.416C44.7715 60.6543 45.0156 59.7949 45.0156 58.8379ZM95.098 27.3438V70H86.309L69.1703 41.4062V70H60.3812V27.3438H69.1703L86.3383 55.9668V27.3438H95.098ZM138.384 47.6758V49.6973C138.384 52.9395 137.944 55.8496 137.065 58.4277C136.186 61.0059 134.946 63.2031 133.345 65.0195C131.743 66.8164 129.829 68.1934 127.602 69.1504C125.395 70.1074 122.944 70.5859 120.249 70.5859C117.573 70.5859 115.122 70.1074 112.895 69.1504C110.688 68.1934 108.774 66.8164 107.153 65.0195C105.532 63.2031 104.272 61.0059 103.374 58.4277C102.495 55.8496 102.055 52.9395 102.055 49.6973V47.6758C102.055 44.4141 102.495 41.5039 103.374 38.9453C104.253 36.3672 105.493 34.1699 107.095 32.3535C108.716 30.5371 110.63 29.1504 112.837 28.1934C115.063 27.2363 117.514 26.7578 120.19 26.7578C122.886 26.7578 125.337 27.2363 127.544 28.1934C129.77 29.1504 131.684 30.5371 133.286 32.3535C134.907 34.1699 136.157 36.3672 137.036 38.9453C137.934 41.5039 138.384 44.4141 138.384 47.6758ZM129.507 49.6973V47.6172C129.507 45.3516 129.302 43.3594 128.891 41.6406C128.481 39.9219 127.876 38.4766 127.075 37.3047C126.274 36.1328 125.298 35.2539 124.145 34.668C122.993 34.0625 121.675 33.7598 120.19 33.7598C118.706 33.7598 117.387 34.0625 116.235 34.668C115.102 35.2539 114.136 36.1328 113.335 37.3047C112.554 38.4766 111.958 39.9219 111.548 41.6406C111.137 43.3594 110.932 45.3516 110.932 47.6172V49.6973C110.932 51.9434 111.137 53.9355 111.548 55.6738C111.958 57.3926 112.563 58.8477 113.364 60.0391C114.165 61.2109 115.141 62.0996 116.294 62.7051C117.446 63.3105 118.764 63.6133 120.249 63.6133C121.733 63.6133 123.052 63.3105 124.204 62.7051C125.356 62.0996 126.323 61.2109 127.104 60.0391C127.886 58.8477 128.481 57.3926 128.891 55.6738C129.302 53.9355 129.507 51.9434 129.507 49.6973ZM173.759 44.7168V51.5723H151.493V44.7168H173.759ZM154.101 27.3438V70H145.312V27.3438H154.101ZM180.029 27.3438V70H171.269V27.3438H180.029ZM223.314 47.6758V49.6973C223.314 52.9395 222.875 55.8496 221.996 58.4277C221.117 61.0059 219.877 63.2031 218.275 65.0195C216.673 66.8164 214.759 68.1934 212.533 69.1504C210.326 70.1074 207.875 70.5859 205.179 70.5859C202.504 70.5859 200.052 70.1074 197.826 69.1504C195.619 68.1934 193.705 66.8164 192.084 65.0195C190.462 63.2031 189.203 61.0059 188.304 58.4277C187.425 55.8496 186.986 52.9395 186.986 49.6973V47.6758C186.986 44.4141 187.425 41.5039 188.304 38.9453C189.183 36.3672 190.423 34.1699 192.025 32.3535C193.646 30.5371 195.56 29.1504 197.767 28.1934C199.994 27.2363 202.445 26.7578 205.121 26.7578C207.816 26.7578 210.267 27.2363 212.474 28.1934C214.701 29.1504 216.615 30.5371 218.216 32.3535C219.837 34.1699 221.087 36.3672 221.966 38.9453C222.865 41.5039 223.314 44.4141 223.314 47.6758ZM214.437 49.6973V47.6172C214.437 45.3516 214.232 43.3594 213.822 41.6406C213.412 39.9219 212.806 38.4766 212.005 37.3047C211.205 36.1328 210.228 35.2539 209.076 34.668C207.923 34.0625 206.605 33.7598 205.121 33.7598C203.636 33.7598 202.318 34.0625 201.166 34.668C200.033 35.2539 199.066 36.1328 198.265 37.3047C197.484 38.4766 196.888 39.9219 196.478 41.6406C196.068 43.3594 195.863 45.3516 195.863 47.6172V49.6973C195.863 51.9434 196.068 53.9355 196.478 55.6738C196.888 57.3926 197.494 58.8477 198.295 60.0391C199.095 61.2109 200.072 62.0996 201.224 62.7051C202.377 63.3105 203.695 63.6133 205.179 63.6133C206.664 63.6133 207.982 63.3105 209.134 62.7051C210.287 62.0996 211.254 61.2109 212.035 60.0391C212.816 58.8477 213.412 57.3926 213.822 55.6738C214.232 53.9355 214.437 51.9434 214.437 49.6973ZM234.256 27.3438H241.697L252.654 58.6621L263.611 27.3438H271.053L255.643 70H249.666L234.256 27.3438ZM230.242 27.3438H237.654L239.002 57.8711V70H230.242V27.3438ZM267.654 27.3438H275.096V70H266.307V57.8711L267.654 27.3438ZM292.746 27.3438V70H283.987V27.3438H292.746ZM323.786 58.8379C323.786 58.0762 323.669 57.3926 323.434 56.7871C323.22 56.1621 322.809 55.5957 322.204 55.0879C321.598 54.5605 320.749 54.043 319.655 53.5352C318.561 53.0273 317.145 52.5 315.407 51.9531C313.473 51.3281 311.638 50.625 309.899 49.8438C308.18 49.0625 306.657 48.1543 305.329 47.1191C304.02 46.0645 302.985 44.8438 302.223 43.457C301.481 42.0703 301.11 40.459 301.11 38.623C301.11 36.8457 301.501 35.2344 302.282 33.7891C303.063 32.3242 304.157 31.0742 305.563 30.0391C306.97 28.9844 308.63 28.1738 310.544 27.6074C312.477 27.041 314.596 26.7578 316.901 26.7578C320.046 26.7578 322.79 27.3242 325.134 28.457C327.477 29.5898 329.294 31.1426 330.583 33.1152C331.891 35.0879 332.546 37.3438 332.546 39.8828H323.815C323.815 38.6328 323.552 37.5391 323.024 36.6016C322.516 35.6445 321.735 34.8926 320.68 34.3457C319.645 33.7988 318.337 33.5254 316.755 33.5254C315.231 33.5254 313.962 33.7598 312.946 34.2285C311.93 34.6777 311.169 35.293 310.661 36.0742C310.153 36.8359 309.899 37.6953 309.899 38.6523C309.899 39.375 310.075 40.0293 310.427 40.6152C310.798 41.2012 311.345 41.748 312.067 42.2559C312.79 42.7637 313.679 43.2422 314.733 43.6914C315.788 44.1406 317.009 44.5801 318.395 45.0098C320.72 45.7129 322.761 46.5039 324.518 47.3828C326.296 48.2617 327.78 49.248 328.971 50.3418C330.163 51.4355 331.061 52.6758 331.667 54.0625C332.272 55.4492 332.575 57.0215 332.575 58.7793C332.575 60.6348 332.214 62.2949 331.491 63.7598C330.768 65.2246 329.723 66.4648 328.356 67.4805C326.989 68.4961 325.358 69.2676 323.464 69.7949C321.569 70.3223 319.45 70.5859 317.106 70.5859C314.997 70.5859 312.917 70.3125 310.866 69.7656C308.815 69.1992 306.95 68.3496 305.27 67.2168C303.61 66.084 302.282 64.6387 301.286 62.8809C300.29 61.123 299.792 59.043 299.792 56.6406H308.61C308.61 57.9688 308.815 59.0918 309.225 60.0098C309.636 60.9277 310.212 61.6699 310.954 62.2363C311.716 62.8027 312.614 63.2129 313.649 63.4668C314.704 63.7207 315.856 63.8477 317.106 63.8477C318.63 63.8477 319.88 63.6328 320.856 63.2031C321.852 62.7734 322.585 62.1777 323.054 61.416C323.542 60.6543 323.786 59.7949 323.786 58.8379ZM367.599 44.7168V51.5723H345.333V44.7168H367.599ZM347.941 27.3438V70H339.152V27.3438H347.941ZM373.868 27.3438V70H365.109V27.3438H373.868ZM422.383 55.8496H431.143C430.967 58.7207 430.176 61.2695 428.77 63.4961C427.383 65.7227 425.439 67.4609 422.939 68.7109C420.459 69.9609 417.471 70.5859 413.975 70.5859C411.24 70.5859 408.789 70.1172 406.621 69.1797C404.453 68.2227 402.598 66.8555 401.055 65.0781C399.531 63.3008 398.369 61.1523 397.568 58.6328C396.768 56.1133 396.367 53.291 396.367 50.166V47.207C396.367 44.082 396.777 41.2598 397.598 38.7402C398.438 36.2012 399.629 34.043 401.172 32.2656C402.734 30.4883 404.6 29.1211 406.768 28.1641C408.936 27.207 411.357 26.7285 414.033 26.7285C417.588 26.7285 420.586 27.373 423.027 28.6621C425.488 29.9512 427.393 31.7285 428.74 33.9941C430.107 36.2598 430.928 38.8379 431.201 41.7285H422.412C422.314 40.0098 421.973 38.5547 421.387 37.3633C420.801 36.1523 419.912 35.2441 418.721 34.6387C417.549 34.0137 415.986 33.7012 414.033 33.7012C412.568 33.7012 411.289 33.9746 410.195 34.5215C409.102 35.0684 408.184 35.8984 407.441 37.0117C406.699 38.125 406.143 39.5312 405.771 41.2305C405.42 42.9102 405.244 44.8828 405.244 47.1484V50.166C405.244 52.373 405.41 54.3164 405.742 55.9961C406.074 57.6562 406.582 59.0625 407.266 60.2148C407.969 61.3477 408.867 62.207 409.961 62.793C411.074 63.3594 412.412 63.6426 413.975 63.6426C415.811 63.6426 417.324 63.3496 418.516 62.7637C419.707 62.1777 420.615 61.3086 421.24 60.1562C421.885 59.0039 422.266 57.5684 422.383 55.8496ZM472.553 47.6758V49.6973C472.553 52.9395 472.114 55.8496 471.235 58.4277C470.356 61.0059 469.116 63.2031 467.514 65.0195C465.913 66.8164 463.998 68.1934 461.772 69.1504C459.565 70.1074 457.114 70.5859 454.418 70.5859C451.743 70.5859 449.291 70.1074 447.065 69.1504C444.858 68.1934 442.944 66.8164 441.323 65.0195C439.702 63.2031 438.442 61.0059 437.543 58.4277C436.664 55.8496 436.225 52.9395 436.225 49.6973V47.6758C436.225 44.4141 436.664 41.5039 437.543 38.9453C438.422 36.3672 439.663 34.1699 441.264 32.3535C442.885 30.5371 444.799 29.1504 447.006 28.1934C449.233 27.2363 451.684 26.7578 454.36 26.7578C457.055 26.7578 459.506 27.2363 461.713 28.1934C463.94 29.1504 465.854 30.5371 467.455 32.3535C469.077 34.1699 470.327 36.3672 471.205 38.9453C472.104 41.5039 472.553 44.4141 472.553 47.6758ZM463.676 49.6973V47.6172C463.676 45.3516 463.471 43.3594 463.061 41.6406C462.651 39.9219 462.045 38.4766 461.245 37.3047C460.444 36.1328 459.467 35.2539 458.315 34.668C457.163 34.0625 455.844 33.7598 454.36 33.7598C452.875 33.7598 451.557 34.0625 450.405 34.668C449.272 35.2539 448.305 36.1328 447.504 37.3047C446.723 38.4766 446.127 39.9219 445.717 41.6406C445.307 43.3594 445.102 45.3516 445.102 47.6172V49.6973C445.102 51.9434 445.307 53.9355 445.717 55.6738C446.127 57.3926 446.733 58.8477 447.534 60.0391C448.334 61.2109 449.311 62.0996 450.463 62.7051C451.616 63.3105 452.934 63.6133 454.418 63.6133C455.903 63.6133 457.221 63.3105 458.373 62.7051C459.526 62.0996 460.493 61.2109 461.274 60.0391C462.055 58.8477 462.651 57.3926 463.061 55.6738C463.471 53.9355 463.676 51.9434 463.676 49.6973ZM503.036 27.3438H511.796V55.5273C511.796 58.8086 511.093 61.5723 509.686 63.8184C508.3 66.0645 506.376 67.7539 503.915 68.8867C501.473 70.0195 498.661 70.5859 495.477 70.5859C492.294 70.5859 489.462 70.0195 486.981 68.8867C484.52 67.7539 482.587 66.0645 481.18 63.8184C479.794 61.5723 479.1 58.8086 479.1 55.5273V27.3438H487.889V55.5273C487.889 57.4414 488.192 59.0039 488.798 60.2148C489.403 61.4258 490.272 62.3145 491.405 62.8809C492.557 63.4473 493.915 63.7305 495.477 63.7305C497.079 63.7305 498.436 63.4473 499.55 62.8809C500.682 62.3145 501.542 61.4258 502.128 60.2148C502.733 59.0039 503.036 57.4414 503.036 55.5273V27.3438ZM554.349 27.3438V70H545.56L528.421 41.4062V70H519.632V27.3438H528.421L545.589 55.9668V27.3438H554.349ZM580.789 27.3438V70H572.029V27.3438H580.789ZM593.914 27.3438V34.2285H559.109V27.3438H593.914ZM605.852 27.3438L614.758 46.7969L623.664 27.3438H633.244L619.211 54.4727V70H610.305V54.4727L596.242 27.3438H605.852Z" fill="#EFEFEF"/>
<path d="M203.679 107.123H192.63L192.571 101.038H201.847C203.482 101.038 204.821 100.831 205.865 100.417C206.909 99.9842 207.686 99.3639 208.198 98.5564C208.73 97.7292 208.996 96.7249 208.996 95.5432C208.996 94.204 208.74 93.1208 208.228 92.2937C207.736 91.4666 206.958 90.8659 205.894 90.4917C204.851 90.1175 203.501 89.9304 201.847 89.9304H195.703V126H186.84V82.9883H201.847C204.348 82.9883 206.584 83.2246 208.553 83.6973C210.542 84.1699 212.226 84.8888 213.604 85.8538C214.983 86.8188 216.037 88.0398 216.765 89.5168C217.494 90.9742 217.858 92.7073 217.858 94.7161C217.858 96.4885 217.455 98.1231 216.647 99.6199C215.859 101.117 214.609 102.338 212.896 103.283C211.202 104.228 208.986 104.75 206.249 104.849L203.679 107.123ZM203.295 126H190.208L193.664 119.087H203.295C204.851 119.087 206.121 118.841 207.105 118.349C208.09 117.837 208.819 117.148 209.292 116.281C209.764 115.414 210 114.42 210 113.297C210 112.037 209.784 110.944 209.351 110.018C208.937 109.093 208.267 108.384 207.342 107.891C206.416 107.379 205.195 107.123 203.679 107.123H195.141L195.2 101.038H205.835L207.874 103.431C210.493 103.391 212.6 103.854 214.195 104.819C215.81 105.764 216.982 106.995 217.711 108.512C218.459 110.028 218.833 111.653 218.833 113.386C218.833 116.143 218.233 118.467 217.031 120.358C215.83 122.229 214.067 123.637 211.743 124.582C209.439 125.527 206.623 126 203.295 126ZM224.875 82.9883H240.916C244.205 82.9883 247.031 83.4806 249.394 84.4653C251.777 85.45 253.609 86.9074 254.889 88.8374C256.169 90.7674 256.809 93.1405 256.809 95.9568C256.809 98.261 256.415 100.24 255.627 101.895C254.859 103.529 253.766 104.898 252.348 106.001C250.95 107.084 249.305 107.95 247.415 108.6L244.608 110.077H230.665L230.606 103.165H240.975C242.531 103.165 243.821 102.889 244.845 102.338C245.869 101.786 246.637 101.018 247.149 100.033C247.681 99.0487 247.947 97.9065 247.947 96.6067C247.947 95.2281 247.69 94.0366 247.178 93.0322C246.666 92.0278 245.888 91.2598 244.845 90.728C243.801 90.1963 242.491 89.9304 240.916 89.9304H233.737V126H224.875V82.9883ZM248.921 126L239.114 106.828L248.478 106.769L258.404 125.586V126H248.921ZM298.359 103.49V105.528C298.359 108.797 297.916 111.732 297.03 114.331C296.143 116.931 294.893 119.146 293.278 120.978C291.663 122.79 289.733 124.178 287.488 125.143C285.262 126.108 282.791 126.591 280.073 126.591C277.375 126.591 274.903 126.108 272.658 125.143C270.433 124.178 268.503 122.79 266.868 120.978C265.234 119.146 263.963 116.931 263.057 114.331C262.171 111.732 261.728 108.797 261.728 105.528V103.49C261.728 100.201 262.171 97.2664 263.057 94.6865C263.944 92.0869 265.194 89.8713 266.809 88.0398C268.444 86.2083 270.374 84.81 272.599 83.845C274.844 82.88 277.316 82.3975 280.014 82.3975C282.732 82.3975 285.203 82.88 287.429 83.845C289.674 84.81 291.604 86.2083 293.219 88.0398C294.853 89.8713 296.114 92.0869 297 94.6865C297.906 97.2664 298.359 100.201 298.359 103.49ZM289.408 105.528V103.431C289.408 101.146 289.201 99.1374 288.788 97.4043C288.374 95.6712 287.763 94.2139 286.956 93.0322C286.149 91.8506 285.164 90.9644 284.002 90.3735C282.84 89.763 281.511 89.4578 280.014 89.4578C278.517 89.4578 277.188 89.763 276.026 90.3735C274.884 90.9644 273.909 91.8506 273.101 93.0322C272.314 94.2139 271.713 95.6712 271.299 97.4043C270.886 99.1374 270.679 101.146 270.679 103.431V105.528C270.679 107.793 270.886 109.802 271.299 111.554C271.713 113.288 272.323 114.755 273.131 115.956C273.938 117.138 274.923 118.034 276.085 118.644C277.247 119.255 278.576 119.56 280.073 119.56C281.57 119.56 282.899 119.255 284.061 118.644C285.223 118.034 286.198 117.138 286.986 115.956C287.773 114.755 288.374 113.288 288.788 111.554C289.201 109.802 289.408 107.793 289.408 105.528ZM320.973 90.344L309.275 126H299.851L315.833 82.9883H321.83L320.973 90.344ZM330.692 126L318.964 90.344L318.019 82.9883H324.075L340.145 126H330.692ZM330.16 109.989V116.931H307.443V109.989H330.16ZM356.733 126H347.369L347.428 119.087H356.733C359.057 119.087 361.017 118.566 362.612 117.522C364.207 116.458 365.408 114.912 366.216 112.884C367.043 110.855 367.456 108.403 367.456 105.528V103.431C367.456 101.225 367.22 99.2851 366.747 97.6111C366.295 95.9371 365.615 94.529 364.709 93.3867C363.803 92.2445 362.691 91.3878 361.371 90.8167C360.052 90.2258 358.535 89.9304 356.822 89.9304H347.191V82.9883H356.822C359.697 82.9883 362.326 83.4806 364.709 84.4653C367.112 85.4303 369.19 86.8188 370.942 88.6306C372.695 90.4425 374.044 92.6088 374.989 95.1296C375.954 97.6308 376.437 100.417 376.437 103.49V105.528C376.437 108.581 375.954 111.367 374.989 113.888C374.044 116.409 372.695 118.575 370.942 120.387C369.209 122.179 367.132 123.568 364.709 124.552C362.306 125.517 359.648 126 356.733 126ZM352.391 82.9883V126H343.528V82.9883H352.391ZM399.11 107.123H388.062L388.003 101.038H397.279C398.913 101.038 400.253 100.831 401.296 100.417C402.34 99.9842 403.118 99.3639 403.63 98.5564C404.162 97.7292 404.428 96.7249 404.428 95.5432C404.428 94.204 404.172 93.1208 403.66 92.2937C403.167 91.4666 402.389 90.8659 401.326 90.4917C400.282 90.1175 398.933 89.9304 397.279 89.9304H391.134V126H382.272V82.9883H397.279C399.78 82.9883 402.015 83.2246 403.985 83.6973C405.974 84.1699 407.657 84.8888 409.036 85.8538C410.415 86.8188 411.468 88.0398 412.197 89.5168C412.926 90.9742 413.29 92.7073 413.29 94.7161C413.29 96.4885 412.886 98.1231 412.079 99.6199C411.291 101.117 410.04 102.338 408.327 103.283C406.633 104.228 404.418 104.75 401.68 104.849L399.11 107.123ZM398.726 126H385.64L389.096 119.087H398.726C400.282 119.087 401.552 118.841 402.537 118.349C403.522 117.837 404.25 117.148 404.723 116.281C405.196 115.414 405.432 114.42 405.432 113.297C405.432 112.037 405.215 110.944 404.782 110.018C404.369 109.093 403.699 108.384 402.773 107.891C401.848 107.379 400.627 107.123 399.11 107.123H390.573L390.632 101.038H401.267L403.305 103.431C405.924 103.391 408.032 103.854 409.627 104.819C411.242 105.764 412.414 106.995 413.142 108.512C413.891 110.028 414.265 111.653 414.265 113.386C414.265 116.143 413.664 118.467 412.463 120.358C411.261 122.229 409.499 123.637 407.175 124.582C404.871 125.527 402.055 126 398.726 126ZM437.795 90.344L426.097 126H416.673L432.655 82.9883H438.651L437.795 90.344ZM447.514 126L435.786 90.344L434.841 82.9883H440.897L456.967 126H447.514ZM446.982 109.989V116.931H424.265V109.989H446.982ZM495.356 82.9883V126H486.494L469.212 97.168V126H460.35V82.9883H469.212L486.523 111.85V82.9883H495.356ZM515.666 126H506.302L506.361 119.087H515.666C517.99 119.087 519.95 118.566 521.545 117.522C523.14 116.458 524.341 114.912 525.149 112.884C525.976 110.855 526.389 108.403 526.389 105.528V103.431C526.389 101.225 526.153 99.2851 525.681 97.6111C525.228 95.9371 524.548 94.529 523.642 93.3867C522.736 92.2445 521.624 91.3878 520.304 90.8167C518.985 90.2258 517.468 89.9304 515.755 89.9304H506.124V82.9883H515.755C518.63 82.9883 521.259 83.4806 523.642 84.4653C526.045 85.4303 528.123 86.8188 529.875 88.6306C531.628 90.4425 532.977 92.6088 533.922 95.1296C534.887 97.6308 535.37 100.417 535.37 103.49V105.528C535.37 108.581 534.887 111.367 533.922 113.888C532.977 116.409 531.628 118.575 529.875 120.387C528.142 122.179 526.065 123.568 523.642 124.552C521.24 125.517 518.581 126 515.666 126ZM511.324 82.9883V126H502.461V82.9883H511.324ZM559.713 82.9883H567.216L578.265 114.568L589.313 82.9883H596.816L581.278 126H575.252L559.713 82.9883ZM555.666 82.9883H563.14L564.499 113.77V126H555.666V82.9883ZM593.39 82.9883H600.893V126H592.031V113.77L593.39 82.9883ZM626.077 90.344L614.379 126H604.956L620.937 82.9883H626.934L626.077 90.344ZM635.796 126L624.069 90.344L623.123 82.9883H629.179L645.25 126H635.796ZM635.265 109.989V116.931H612.548V109.989H635.265ZM665.382 110.668H654.423V103.756H665.382C667.076 103.756 668.455 103.48 669.518 102.928C670.582 102.357 671.359 101.57 671.852 100.565C672.344 99.5608 672.59 98.4284 672.59 97.168C672.59 95.8879 672.344 94.6964 671.852 93.5935C671.359 92.4906 670.582 91.6044 669.518 90.9348C668.455 90.2652 667.076 89.9304 665.382 89.9304H657.495V126H648.633V82.9883H665.382C668.75 82.9883 671.635 83.5988 674.038 84.8198C676.46 86.0212 678.311 87.6853 679.592 89.8123C680.872 91.9392 681.512 94.3714 681.512 97.1089C681.512 99.8857 680.872 102.288 679.592 104.317C678.311 106.345 676.46 107.911 674.038 109.014C671.635 110.117 668.75 110.668 665.382 110.668Z" fill="#6E9D42"/>
</svg>
