<svg width="68" height="64" viewBox="0 0 68 64" fill="none" xmlns="http://www.w3.org/2000/svg">
<g filter="url(#filter0_d_2109_216)">
<ellipse cx="34" cy="28" rx="30" ry="28" fill="black"/>
</g>
<path d="M33.4999 30.6186C37.3588 30.6186 40.5912 29.4005 40.7866 27.8088L38.9702 23.0804C38.5439 24.222 36.185 25.0321 33.4999 25.0321C30.8148 25.0321 28.4559 24.222 28.0296 23.0804L26.2148 27.8088C26.4102 29.4005 29.641 30.6186 33.4999 30.6186ZM33.4999 20.5601C35.3147 20.5601 36.9987 20.0381 37.4928 19.2265C36.8131 17.4533 36.2302 15.9307 35.8604 14.9721C35.615 14.3315 34.5026 14 33.4999 14C32.4972 14 31.3848 14.3315 31.1393 14.9721L29.507 19.2265C30.001 20.0381 31.6867 20.5601 33.4999 20.5601ZM47.6761 32.1008L41.6133 29.8295L42.3124 31.6402C42.2769 33.5589 38.2694 35.089 33.4999 35.089C28.732 35.089 24.7213 33.5604 24.6874 31.6402L25.3865 29.8295L19.3237 32.1008C17.6235 32.7368 17.5508 33.9144 19.1654 34.717L30.5678 40.3981C32.1791 41.2006 34.819 41.2006 36.432 40.3981L47.836 34.717C49.4489 33.9144 49.3763 32.7368 47.6761 32.1008Z" fill="white"/>
<defs>
<filter id="filter0_d_2109_216" x="0" y="0" width="68" height="64" filterUnits="userSpaceOnUse" color-interpolation-filters="sRGB">
<feFlood flood-opacity="0" result="BackgroundImageFix"/>
<feColorMatrix in="SourceAlpha" type="matrix" values="0 0 0 0 0 0 0 0 0 0 0 0 0 0 0 0 0 0 127 0" result="hardAlpha"/>
<feOffset dy="4"/>
<feGaussianBlur stdDeviation="2"/>
<feComposite in2="hardAlpha" operator="out"/>
<feColorMatrix type="matrix" values="0 0 0 0 0 0 0 0 0 0 0 0 0 0 0 0 0 0 0.25 0"/>
<feBlend mode="normal" in2="BackgroundImageFix" result="effect1_dropShadow_2109_216"/>
<feBlend mode="normal" in="SourceGraphic" in2="effect1_dropShadow_2109_216" result="shape"/>
</filter>
</defs>
</svg>
