<svg width="68" height="64" viewBox="0 0 68 64" fill="none" xmlns="http://www.w3.org/2000/svg">
<g filter="url(#filter0_d_2109_217)">
<ellipse cx="34" cy="28" rx="30" ry="28" fill="black"/>
</g>
<path d="M45.7692 29.82L43.2308 25.5667C43.0128 25.2697 42.7072 25.0247 42.3434 24.8554C41.9797 24.6861 41.57 24.5982 41.1538 24.6H26.8462C26.43 24.5982 26.0203 24.6861 25.6566 24.8554C25.2928 25.0247 24.9872 25.2697 24.7692 25.5667L22.2308 29.82L19.3692 32.0472C19.2529 32.1376 19.1601 32.247 19.0966 32.3688C19.0331 32.4905 19.0002 32.6219 19 32.7548V41.0333C19 41.2897 19.1216 41.5356 19.338 41.7169C19.5543 41.8982 19.8478 42 20.1538 42H24.7692C25.2308 42 25.9231 41.6133 25.9231 41.2267V40.0667H42.0769V41.0333C42.0769 41.42 42.5385 42 43 42H47.8462C48.1522 42 48.4457 41.8982 48.662 41.7169C48.8784 41.5356 49 41.2897 49 41.0333V32.7548C48.9998 32.6219 48.9669 32.4905 48.9034 32.3688C48.8399 32.247 48.7471 32.1376 48.6308 32.0472L45.7692 29.82ZM27.0769 26.5333H40.9231L43.2308 30.4H24.7692L27.0769 26.5333ZM28.2308 35.4267C28.2308 35.8133 27.5385 36.2 27.0769 36.2H22.2308C21.7692 36.2 21.3077 35.62 21.3077 35.2333V33.1067C21.5385 32.5267 22 32.14 22.6923 32.3333L27.3077 33.1067C27.7692 33.1067 28.2308 33.6867 28.2308 34.0733V35.4267ZM46.6923 35.2333C46.6923 35.62 46.2308 36.2 45.7692 36.2H40.9231C40.4615 36.2 39.7692 35.8133 39.7692 35.4267V34.0733C39.7692 33.6867 40.2308 33.1067 40.6923 33.1067L45.3077 32.3333C46 32.14 46.4615 32.5267 46.6923 33.1067V35.2333ZM35.1538 20.7333H32.8462L30.5385 13H37.4615L35.1538 20.7333ZM19.2308 16.48L25.2308 13.58L27.7692 21.3133L25.9231 22.0867L19.2308 16.48ZM42.7692 13.58L48.7692 16.48L42.0769 22.28L40 21.3133L42.7692 13.58Z" fill="white"/>
<defs>
<filter id="filter0_d_2109_217" x="0" y="0" width="68" height="64" filterUnits="userSpaceOnUse" color-interpolation-filters="sRGB">
<feFlood flood-opacity="0" result="BackgroundImageFix"/>
<feColorMatrix in="SourceAlpha" type="matrix" values="0 0 0 0 0 0 0 0 0 0 0 0 0 0 0 0 0 0 127 0" result="hardAlpha"/>
<feOffset dy="4"/>
<feGaussianBlur stdDeviation="2"/>
<feComposite in2="hardAlpha" operator="out"/>
<feColorMatrix type="matrix" values="0 0 0 0 0 0 0 0 0 0 0 0 0 0 0 0 0 0 0.25 0"/>
<feBlend mode="normal" in2="BackgroundImageFix" result="effect1_dropShadow_2109_217"/>
<feBlend mode="normal" in="SourceGraphic" in2="effect1_dropShadow_2109_217" result="shape"/>
</filter>
</defs>
</svg>
