<svg width="68" height="64" viewBox="0 0 68 64" fill="none" xmlns="http://www.w3.org/2000/svg">
<g filter="url(#filter0_d_2109_228)">
<ellipse cx="34" cy="28" rx="30" ry="28" fill="black"/>
</g>
<path d="M29.6364 28.2329C30.4073 28.4462 30.8727 29.284 30.6691 30.0913L28.7782 37.4488C28.5746 38.2714 27.7746 38.7436 27.0037 38.5303C26.8187 38.4818 26.6451 38.3944 26.4934 38.2734C26.3416 38.1525 26.215 38.0004 26.1211 37.8266C26.0273 37.6528 25.9681 37.4608 25.9473 37.2623C25.9265 37.0638 25.9444 36.8629 26 36.6719L27.8618 29.3144C28.0655 28.4919 28.8655 28.0196 29.6364 28.2329ZM35.4546 28.2329C36.2255 28.4462 36.6909 29.284 36.4873 30.0913L33.4764 41.8663C33.2727 42.7042 32.4727 43.1611 31.6873 42.9479C30.9164 42.7042 30.4509 41.8968 30.6546 41.0742L33.68 29.3144C33.8836 28.4919 34.6836 28.0196 35.4546 28.2329ZM41.2727 28.2329C42.0436 28.4462 42.5091 29.284 42.3055 30.0913L40.4146 37.4488C40.2109 38.2714 39.4109 38.7436 38.64 38.5303C38.455 38.4818 38.2814 38.3944 38.1297 38.2734C37.978 38.1525 37.8514 38.0004 37.7575 37.8266C37.6636 37.6528 37.6045 37.4608 37.5837 37.2623C37.5628 37.0638 37.5808 36.8629 37.6364 36.6719L39.4982 29.3144C39.7018 28.4919 40.5018 28.0196 41.2727 28.2329ZM41.2727 25.1863V23.663C41.2727 21.643 40.5065 19.7057 39.1426 18.2774C37.7787 16.849 35.9289 16.0466 34 16.0466C30.3636 16.0466 27.3818 18.819 26.8146 22.4292C26.3346 22.2464 25.8109 22.1397 25.2727 22.1397C24.1154 22.1397 23.0055 22.6212 22.1872 23.4782C21.3688 24.3352 20.9091 25.4976 20.9091 26.7096C20.9091 28.4005 21.7818 29.8781 23.0909 30.6702V30.6549C23.8182 31.0815 24.0218 32.0411 23.6291 32.7418C23.2218 33.4578 22.3637 33.7167 21.6364 33.2902V33.3055C20.5288 32.6394 19.6091 31.6784 18.9705 30.5201C18.3319 29.3617 17.9971 28.0472 18 26.7096C18 24.6896 18.7663 22.7523 20.1302 21.324C21.4941 19.8956 23.3439 19.0932 25.2727 19.0932C26.7273 15.5134 30.0727 13 34 13C38.9891 13 43.0764 17.052 43.4545 22.1854L44.1818 22.1397C45.7249 22.1397 47.2048 22.7817 48.2959 23.9244C49.387 25.0671 50 26.6169 50 28.2329C50 30.5178 48.8364 32.4524 47.0909 33.5035C46.3636 33.9148 45.5055 33.671 45.0982 32.9399C44.7055 32.2087 44.9091 31.2795 45.6364 30.853V30.8682C46.5091 30.3503 47.0909 29.3601 47.0909 28.2329C47.0909 27.4249 46.7844 26.65 46.2389 26.0786C45.6933 25.5073 44.9534 25.1863 44.1818 25.1863H41.2727Z" fill="white"/>
<defs>
<filter id="filter0_d_2109_228" x="0" y="0" width="68" height="64" filterUnits="userSpaceOnUse" color-interpolation-filters="sRGB">
<feFlood flood-opacity="0" result="BackgroundImageFix"/>
<feColorMatrix in="SourceAlpha" type="matrix" values="0 0 0 0 0 0 0 0 0 0 0 0 0 0 0 0 0 0 127 0" result="hardAlpha"/>
<feOffset dy="4"/>
<feGaussianBlur stdDeviation="2"/>
<feComposite in2="hardAlpha" operator="out"/>
<feColorMatrix type="matrix" values="0 0 0 0 0 0 0 0 0 0 0 0 0 0 0 0 0 0 0.25 0"/>
<feBlend mode="normal" in2="BackgroundImageFix" result="effect1_dropShadow_2109_228"/>
<feBlend mode="normal" in="SourceGraphic" in2="effect1_dropShadow_2109_228" result="shape"/>
</filter>
</defs>
</svg>
