<svg width="2750" height="1230" xmlns="http://www.w3.org/2000/svg" xmlns:xlink="http://www.w3.org/1999/xlink" xml:space="preserve" overflow="hidden"><defs><clipPath id="clip0"><rect x="550" y="502" width="2750" height="1230"/></clipPath><clipPath id="clip1"><rect x="550" y="501" width="2750" height="957"/></clipPath><clipPath id="clip2"><rect x="550" y="501" width="2751" height="957"/></clipPath><clipPath id="clip3"><rect x="550" y="501" width="2751" height="957"/></clipPath></defs><g clip-path="url(#clip0)" transform="translate(-550 -502)"><g clip-path="url(#clip1)"><g clip-path="url(#clip2)"><g clip-path="url(#clip3)"><path d="M1971.82 920.195 1971.76 920.985 1971.33 921.697 1970.65 922.584 1969.65 923.261 1968.37 925.035 1968 926.032 1967.45 926.671 1939.42 926.207 1909.36 925.286 1882.72 924.179 1842.89 923.533 1814.43 923.261 1804.73 923.33 1801.92 923.367 1752.97 921.876 1736.68 921.662 1724.37 921.807 1701.04 920.635 1655.3 919.284 1650.05 918.967 1638.83 918.662 1634.07 918.201 1634.08 918.177 1610.07 916.018 1597.95 914.561 1587.06 913.608 1569.44 912.697 1566.67 912.495 1538.37 911.426 1515.29 911.065 1511.2 911.085 1509.65 911.309 1508.42 911.8 1501.5 911.762 1498.8 912.33 1471.42 913.749 1454.82 915.155 1436.81 914.898 1436.66 914.877 1400.8 914.031 1385.37 913.227 1369.18 912.722 1365.52 912.519 1356.77 912.649 1344.88 912.082 1320.32 910.491 1299.56 909.693 1299.46 909.679 1297.97 909.538 1285.9 908.425 1285.54 908.456 1252.57 906.496 1250.49 906.362 1247.26 906.084 1247.19 906.06 1246.43 905.977 1245.56 905.953 1225.25 904.368 1213.93 903.151 1206.51 902.77 1202.31 902.67 1201.97 902.787 1175.31 902.062 1174.25 902.089 1173.9 902.12 1173.88 902.124 1164.11 901.849 1153.84 906.08 1153.95 904.887 1152.05 904.558 1151.7 906.988 1148.03 908.59 1140.68 901.832 1136.37 901.962 1135.98 901.969 1105.36 902.952 1092.49 903.066 1077.05 903.554 1076.15 903.526 1075.52 903.557 1071.31 903.708 1065.29 903.825 1050.53 904.032 1050.38 904.049 1020.45 904.867 990.949 905.413 957.993 905.596 957.849 905.599 953.112 905.616 944.343 905.661 943.456 905.644 925.599 905.733 924.553 905.757 905.585 905.898 902.536 905.898 899.257 906.005 863.17 906.586 862.634 906.586 840.898 906.967 811.35 907.638 780.426 908.672 781.464 897.847 775.046 897.353 735.199 893.111 725.794 892.767 718.448 892.719 719.111 899.253 720.197 902.412 721.858 905.094 722.298 906.08 722.707 907.796 722.669 909.655 725.694 919.438 726.815 926.121 727.262 930.15 728.403 934.072 728.925 937.623 729.297 941.552 728.829 944.938 728.338 946.787 727.935 947.543 727.774 948.527 727.918 949.654 727.777 951.067 727.303 952.291 725.642 954.535 724.171 955.962 723.391 957 702.24 956.498 647.082 955.828 645.628 955.811 644.229 955.793 619.829 955.714 610.191 955.591 609.51 955.673 603.8 955.618 599.053 955.601 592.577 955.463 592.477 955.446 591.291 955.474 583.089 955.34 573.939 955.295 550.027 955.185 534.593 955.037 525.391 954.975 510.541 955.003 502.721 954.972 500.552 954.948 489.115 955.113 486.31 955.378 482.047 955.195 463.523 955.206 453.372 955.047 451.443 955.03 450.412 955.02 443.51 954.931 436.6 954.862 432.826 954.828 427.683 954.779 419.873 954.704 419.224 954.687 406.842 954.377 406.783 954.377 393.102 953.985 373.801 953.673 372.886 953.576 367.758 953.446 354.705 954.841 351.701 955.202 345.001 955.835 344.513 955.958 341.875 956.309 338.205 956.285 334.39 956.326 337.709 945.99 339.696 940.961 340.231 937.537 340.283 935.956 340.488 934.811 344.238 926.307 344.84 923.632 345.592 917.606 346.06 915.557 346.321 914.898 347.59 913.079 349.147 911.58 351.725 910.381 355.362 909.473 358.129 909.026 360.216 909.047 362.663 911.58 364.018 913.337 367.41 919.012 369.366 922.711 373.845 928.403 375.904 930.645 376.949 931.525 379.246 932.858 379.723 932.931 385.935 932.264 388.565 931.36 391.38 928.95 392.487 927.544 395.612 919.923 396.1 914.024 396.602 911.371 397.024 910.202 398.482 907.693 399.85 905.874 401.112 904.602 403.559 902.567 406.45 899.116 408.024 896.902 405.274 894.932 404.374 894.709 405.065 893.973 405.491 892.695 405.477 890.089 405.048 888.893 403.532 887.088 400.816 884.5 397.485 880.663 396.505 879.23 396.148 877.773 396.058 875.772 396.413 872.764 396.98 870.918 398.764 868.141 400.768 865.855 402.188 864.968 405.164 863.778 405.797 863.72 408.622 865.026 410.114 864.92 412.806 865.239 414.745 866.453 416.206 866.542 417.419 866.532 418.478 865.425 419.399 863.662 420.148 860.898 420.293 859.169 420.069 858.034 419.045 855.731 418.162 854.58 416.625 853.737 415.401 853.538 412.266 853.497 408.935 853.218 407.512 852.583 405.35 850.926 404.608 850.018 402.796 846.759 402.414 845.811 402.28 844.748 402.466 843.453 402.377 838.172 402.586 837.028 402.865 836.602 403.937 835.168 404.797 834.556 405.811 834.199 407.914 834.206 408.523 833.92 409.613 832.748 411.276 832.552 414.047 832.48 415.762 828.884 417.258 823.666 419.224 819.847 419.863 818.218 422.201 806.554 424.263 799.745 424.655 798.026 425.202 793.073 425.157 791.811 424.988 790.683 424.053 788.844 422.163 786.393 420.588 785.046 419.653 784.496 417.725 783.918 416.642 784.001 415.552 784.383 413.913 783.351 407.574 778.009 405.924 776.834 404.59 775.143 403.886 773.953 402.352 770.553 401.816 768.439 401.345 764.713 401.668 761.485 402.236 759.089 403.277 755.855 405.457 751.513 409.331 746.261 410.245 745.697 410.671 745.931 411.586 745.614 413.091 744.49 413.971 743.401 414.652 741.51 414.913 741.122 417.722 739.145 418.595 738.241 419.038 737.471 420.43 736.653 421.682 735.484 425.147 727.643 425.824 725.773 426.085 724.271 426.889 722.109 428.715 718.829 431.654 715.423 436.841 710.538 441.622 705.485 442.678 705.11 444.84 702.529 449.398 700.755 451.701 698.926 450.959 699.146 453.114 697.778 458.164 696.245 462.849 695.812 469.899 696.2 472.856 696.637 475.953 697.647 477.077 697.819 481.099 699.607 490.597 703.041 500.428 707.774 504.453 709.307 508.795 710.6 511.173 711.941 514.147 714.182 516.282 716.361 517.282 717.692 520.303 719.881 523.81 722.731 525.807 723.852 528.124 725.66 529.787 726.574 532.259 727.564 533.173 727.76 538.213 727.042 540.657 727.578 542.431 728.214 554.665 734.126 556.631 734.676 558.731 734.786 560.075 735.336 564.197 737.739 567.133 739.764 569.192 741.665 570.536 742.417 572.698 745.669 574.1 747.354 576.194 748.653 578.858 750.87 583.028 753.019 586.974 754.023 589.865 754.597 591.883 754.724 594.712 754.713 598.809 753.778 600.865 754.05 602.786 753.655 607.685 751.664 611.775 742.796 612.305 739.492 612.078 739.252 612.078 739.008 614.278 733.336 614.598 732.848 617.43 724.446 617.537 723.542 616.481 721.638 615.966 721.311 615.515 720.727 614.859 719.376 614.955 718.733 613.721 713.673 613.222 713.054 612.528 710.442 610.871 705.255 610.05 703.993 607.736 701.669 605.392 700.422 604.031 699.301 602.198 696.761 601.758 695.915 600.26 691.914 599.607 690.731 598.149 689.167 595.757 687.328 593.687 684.932 593.316 684.265 593.997 682.643 593.244 680.226 591.432 676.411 591.797 673.936 592.697 671.22 593.508 669.491 594.526 667.875 595.815 664.3 597.647 660.763 598.74 658.127 599.699 656.494 600.408 654.335 600.937 650.997 601.078 647.518 602.102 643.772 602.652 639.53 604.467 636.161 605.712 634.621 608.523 631.775 610.197 630.613 613.278 628.925 615.031 628.296 617.086 627.839 619.19 626.924 620.758 626.034 621.981 625.766 623.318 626.147 625.254 627.048 628.011 628.901 630.908 631.29 632.067 633.26 632.703 633.837 634.339 634.222 635.456 633.765 636.347 633.074 639.207 630.967 643.548 625.047 644.28 624.291 646.965 622.356 648.013 621.827 649.423 620.242 653.634 618.008 658.24 615.931 665.789 614.439 670.753 614.415 674.396 614.209 679.556 613.205 684.774 612.59 688.576 611.909 689.58 611.256 693.773 610.778 700.023 609.094 700.741 609.118 702.058 609.496 707.362 608.826 711.239 608.592 712.566 608.709 712.566 609.063 712.79 609.297 713.563 609.297 714.56 608.709 716.323 606.031 717.922 604.804 719.029 605.395 719.249 605.512 720.246 604.45 720.799 603.268 720.833 602.831 720.61 602.711 720.28 601.769 720.723 600.352 721.084 597.015 720.648 595.977 720.72 594.021 720.507 593.233 718.881 589.803 717.963 588.534 716.306 587.383 713.982 586.606 713.453 586.269 712.095 584.647 709.71 580.439 708.452 578.696 705.959 576.534 703.911 574.382 701.027 572.657 700.525 572.199 699.734 570.023 698.648 567.803 698.369 566.215 698.576 564.633 698.424 563.231 698.005 561.581 695.021 554.709 693.839 551.117 693.399 548.546 693.323 545.249 692.918 543.366 692.883 542.19 693.113 540.657 693.447 539.688 695.317 535.882 697.091 533.184 700.27 529.973 700.824 527.942 702.907 524.353 703.653 523.418 704.969 522.373 708.025 521.173 709.521 520.41 711.257 518.543 714.065 516.605 715.199 515.955 717.877 514.91 720.369 512.978 721.569 511.548 724.323 507.413 726.413 502.707 726.908 500.916 727.506 496.506 728.348 493.759 729.314 492.157 730.568 491.122 732.569 490.335 734.243 490.146 737.22 490.793 739.389 491.683 740.53 492.374 741.08 492.992 742.225 493.659 743.022 493.804 745.295 495.172 746.604 496.385 747.044 497.392 749.963 500.507 752.084 501.04 753.222 500.823 753.83 500.414 754.387 499.771 756.075 495.206 756.855 494.56 757.185 493.793 757.116 492.57 757.797 491.683 759.227 490.899 761.623 490.074 763.919 488.981 765.139 488.091 765.768 486.324 765.995 484.433 764.864 477.266 764.149 475.169 762.833 472.931 759.296 469.645 756.748 466.314 756.209 465.334 755.672 463.746 755.384 462.254 755.435 460.749 755.655 459.185 756.14 458.054 756.59 457.407 757.917 455.696 759.162 454.393 760.88 451.88 765.713 445.73 767.632 444.782 769.227 444.634 771.836 445.246 773.547 446.04 774.912 447.14 776.902 449.288 777.604 450.443 778.848 453.723 779.274 454.493 782.595 457.205 782.853 457.603 783.709 459.178 783.729 460.728 783.85 461.117 784.733 462.038 785.936 462.921 786.878 463.213 793.313 463.691 796.971 463.664 798.191 463.502 799.473 463.2 800.264 462.767 803.292 460.312 803.866 459.693 806.358 458.016 812.666 456.662 814.619 456.772 817.376 457.6 818.991 457.414 821.071 456.933 823.855 455.713 827.441 453.836 828.671 453.465 829.723 453.544 831.036 454.032 832.253 454.908 833.673 456.253 834.089 457.071 834.704 459.941 834.718 461.433 834.353 462.976 833.762 464.069 832.989 465.028 831.762 466.142 831.129 467.033 829.352 470.656 829.276 474.09 829.623 476.18 830.05 477.733 831.091 479.39 831.985 480.329 833.663 480.934 836.897 481.446 839.554 481.494 842.421 481.092 845.498 480.346 848.241 479.301 849.09 478.627 850.75 476.884 855.054 470.394 855.845 468.823 855.934 466.005 855.033 459.357 853.456 457.476 852.07 456.273 850.214 455.163 846.852 452.227 845.989 450.845 845.144 448.896 844.528 446.975 844.374 445.074 845.326 442.64 847.076 440.797 849.547 438.604 850.86 436.783 851.63 433.417 851.146 432.513 851.146 431.176 851.544 429.801 852.228 428.498 853.569 427.666 854.652 427.305 855.535 427.233 856.649 427.45 858.017 428.175 858.932 428.859 859.843 430.234 860.214 432.08 859.966 434.902 860.609 437.57 861.644 439.825 862.366 441.018 864.225 443.468 866.525 445.541 868.058 446.535 872.156 448.838 875.366 450.168 877.869 452.406 879.017 452.296 880.828 451.416 883.884 448.7 885.043 447.422 890.983 442.551 895.276 439.742 896.039 439.392 899.157 438.752 901.533 438.529 904.368 438.546 908.916 439.45 909.336 439.825 915.3 441.86 917.527 443.145 917.641 443.266 917.448 443.682 917.558 443.874 920.04 446.652 920.607 447.136 921.559 447.305 922.584 448.13 923.178 448.9 925.372 450.694 928.091 451.993 928.441 451.763 929.125 451.746 932.47 452.653 937.52 455.29 945.491 460.893 946.77 462.007 948.757 464.54 950.947 466.534 960.73 473.107 963.16 474.155 966.061 475.035 972.386 475.908 975.019 475.564 976.721 475.963 977.446 476.345 978.429 477.173 979.966 479.153 983.256 485.004 984.524 488.221 985.765 493.656 986.769 495.677 987.367 496.241 989.735 497.032 992.045 497.155 995.246 496.385 997.889 495.244 1001.66 492.212 1003.56 490.143 1004.39 488.654 1005.09 487.059 1007.24 480.934 1007.94 478.101 1009.06 471.463 1009.69 469.274 1011.23 465.279 1011.46 463.743 1011.36 461.976 1011.15 460.501 1010.65 459.219 1010.55 458.391 1010.87 456.978 1011.69 455.345 1014.2 452.344 1020.79 447.621 1022.79 446.634 1029.74 443.812 1032.56 442.85 1033.78 443.022 1039.52 442.606 1042.74 442.097 1044.34 442.093 1046.74 441.475 1050.22 439.175 1051.57 438.041 1054.51 434.507 1056.54 431.454 1057.57 430.313 1059.13 429.141 1060.7 427.512 1061.68 426.057 1062.74 424.899 1064.81 423.163 1066.79 422.177 1070.74 420.826 1074.07 418.949 1075.05 418.784 1076.42 418.969 1077.66 419.595 1082.2 422.551 1083.45 425.779 1084.18 428.392 1086.48 434.294 1090.74 442.977 1094.75 450.068 1099.39 455.96 1100.32 456.775 1102.94 457.387 1104.02 457.215 1104.69 456.871 1107.06 455.317 1111.57 451.646 1113.28 450 1114.73 449.302 1116.98 449.343 1120.44 450.01 1123.52 450.89 1124.38 451.612 1124.83 452.368 1125.22 453.874 1125.24 455.379 1125.04 456.607 1123.91 459.776 1121.16 465.795 1120.34 468.184 1119.98 470.281 1120.23 472.897 1121.19 474.908 1122.03 475.499 1122.83 475.812 1124.11 475.888 1126.89 475.423 1128.03 475.014 1130.46 473.78 1133.47 471.759 1135.19 470.838 1136.49 469.803 1138.35 466.513 1138.57 465.51 1138.52 465.035 1137.98 463.849 1138.28 461.804 1138.33 460.309 1137.78 454.29 1137.85 452.289 1138.25 450.766 1138.91 449.563 1141.06 447.081 1141.64 446.672 1143.42 446.363 1147.43 446.717 1152.49 448.281 1154.71 448.632 1156.58 448.58 1158.26 447.999 1160.84 446.717 1163.18 445.287 1164.09 444.307 1164.44 443.623 1164.31 441.557 1163.65 439.367 1162.73 437.755 1161.03 436.002 1160.48 435.047 1159.53 432.252 1159.14 430.059 1159.22 425.136 1158.95 419.148 1159 415.979 1159.29 413.899 1159.37 411.83 1159.2 408.475 1160.1 404.69 1160.79 403.635 1161.39 403.129 1162.97 402.473 1166.31 401.998 1171.91 402.064 1174.34 401.833 1179.96 400.287 1183.94 396.688 1185.49 394.243 1186.26 390.091 1185.13 387.148 1178.07 383.652 1176.63 381.923 1175.96 379.892 1176 377.118 1176.8 375.365 1178.55 373.46 1180.64 372.484 1185.79 372.883 1189.49 375.939 1193.39 380.249 1194.37 380.394 1195.92 379.527 1198.48 373.423 1200.61 371.742 1201.88 371.25 1208.39 372.034 1213.33 371.752 1215.26 370.435 1216.67 368.201 1217.29 365.162 1215.96 362.66 1208.06 360.752 1202.9 359.081 1201.28 356.472 1201.07 351.223 1202.31 348.501 1206.14 346.524 1209.74 347.768 1214 352.278 1218.47 355.915 1222.17 357.744 1226.84 361.305 1231.4 368.62 1231.56 371.436 1229.44 382.889 1229.43 386.227 1230.89 394.147 1232.68 397.691 1232.8 397.884 1234.4 399.479 1237.62 401.974 1242.45 404.336 1244.59 406.519 1246.07 408.457 1250.04 410.647 1254.46 412.613 1257.87 414.473 1259.81 414.975 1261.19 414.989 1268.68 412.964 1272.53 412.768 1275.2 413.033 1278.07 413.71 1281.6 415.332 1283.95 416.707 1286.09 418.258 1287.41 419.667 1287.81 420.21 1287.54 420.973 1288.48 423.198 1290.41 427.388 1291.3 428.938 1293.53 431.743 1295.09 433.263 1296.02 433.665 1296.83 433.754 1298.02 433.269 1298.64 432.42 1299.11 431.365 1299.39 429.282 1298.85 425.356 1298.92 424.06 1299.65 422.146 1300.49 421.228 1303.02 419.97 1306.3 419.097 1309.88 418.536 1315.74 417.275 1320.8 416.893 1322.75 416.536 1326.17 414.6 1327.55 413.346 1328.8 411.936 1330.18 410.073 1331.04 408.183 1331.33 406.931 1331.85 403.693 1332.19 398.939 1332.58 396.172 1332.97 394.498 1333.67 391.999 1335.67 387.362 1336.13 382.253 1335.95 378.338 1334.73 367.826 1334.93 360.174 1338.09 351.794 1338.92 350.271 1343.06 344.864 1346.39 341.744 1351.27 337.671 1352.98 335.101 1354.63 331.651 1355.12 327.512 1355.09 325.261 1356 321.375 1357.57 318.215 1359.17 316.834 1361.33 315.962 1365.21 315.236 1367.07 314.618 1367.64 314.182 1368.35 313.928 1371.37 313.964 1373.54 314.799 1375.65 316.87 1375.71 317.161 1375.48 317.887 1377.05 319.74 1379.93 321.447 1381.67 321.701 1383.41 320.904 1399.15 311.421 1401.59 309.296 1403.39 305.952 1405.9 302.725 1407.68 299.922 1409.8 294.175 1411.92 287.438 1412.14 285.738 1411.99 281.851 1412.13 280.565 1413.59 274.988 1414.43 272.572 1416.81 267.192 1417.18 265.515 1417.13 265.002 1420.8 259.108 1421.88 258.089 1426.47 255.03 1430.03 254.012 1436.29 253.798 1441.07 252.996 1443.75 252.191 1446.66 251.075 1451.82 248.567 1453.94 246.214 1456.37 242.207 1456.84 241.233 1457.35 238.989 1457.86 237.61 1458.81 235.513 1459.42 234.709 1460.99 233.251 1462.18 232.405 1463.33 231.75 1468.11 229.639 1470.56 228.282 1472.66 226.526 1473.43 225.487 1475.07 222.14 1475.56 220.106 1475.66 216.797 1475.5 213.828 1474.34 210.18 1469.7 201.157 1469.33 199.904 1469.01 198.561 1468.79 196.743 1468.76 188.72 1469.25 182.685 1468.96 178.879 1467.23 174.948 1464.19 170.562 1463.9 169.474 1463.76 167.988 1464.05 165.606 1465.15 160.602 1466.08 159.133 1467.96 156.764 1469.24 154.368 1470.3 153.253 1473.73 151.287 1475.27 150.761 1476.9 150.466 1479.87 150.868 1487.91 152.843 1490.33 152.88 1493.77 152.455 1496.85 151.631 1499.74 150.603 1506.8 148.795 1511.6 148.517 1515.53 148.97 1517.76 149.435 1520.27 150.219 1523.79 152.388 1524.95 154.43 1526.02 155.798 1529.62 162.025 1531.02 163.669 1533.27 165.682 1535.76 167.054 1539.75 168.421 1540.67 168.546 1543.58 168.255 1544.88 168.373 1549.55 166.85 1552.2 165.689 1554.53 164.322 1556.14 163.151 1559.47 159.914 1563.6 156.421 1563.57 156.113 1564.62 154.764 1565.29 154.224 1570.65 151.066 1572.3 149.582 1573.57 148.825 1576.89 147.589 1580.4 145.431 1582.41 143.854 1590.72 139.63 1594.1 136.703 1595.24 135.956 1596.93 135.361 1600.15 135.033 1604.77 135.488 1609.01 136.499 1610.88 136.369 1613.19 135.677 1618.25 133.275 1622.06 130.89 1624.33 129.756 1626.04 129.409 1634.89 131.029 1637.45 131.804 1640.94 133.201 1642.93 133.596 1645.02 133.632 1646.94 133.128 1647.44 132.543 1647.77 131.415 1647.79 130.099 1647.14 127.376 1646.41 125.506 1643.39 120.633 1642.59 118.155 1642.57 116.241 1643.28 114.675 1644.45 113.106 1646.22 111.56 1650.19 108.886 1652.91 106.298 1653.68 105.279 1654.45 103.904 1655.17 102.01 1655.51 99.8769 1655.32 98.0017 1654.99 97.3493 1654.5 96.7969 1651.04 94.1071 1647.48 92.6186 1645.68 92.4952 1642.43 91.8404 1633.79 91.6946 1631.79 91.1529 1631.12 90.6926 1629.15 87.5311 1628.64 85.9224 1628.51 84.9289 1628.94 83.3745 1630.94 80.1216 1632.65 78.046 1641.09 69.5877 1641.82 68.3045 1642.6 65.3978 1642.38 63.3755 1641.57 60.9455 1640.53 58.5475 1639.76 57.3619 1637.69 55.1533 1637.02 53.8275 1636.76 52.9736 1634.87 49.9355 1631.1 44.7886 1627.49 41.6756 1625.72 39.183 1624.23 35.9693 1623.4 34.9281 1623.35 33.1027 1624.35 31.2341 1625.77 29.798 1633.81 25.4768 1636.98 21.7575 1639.85 19.1752 1642.22 16.7397 1643.63 15.9128 1645.37 15.4314 1647.19 15.0595 1647.62 14.8353 1648.05 14.0856 1652.88 12.6901 1654.63 11.8234 1655.68 10.8079 1660.6 3.27247 1664.1 0.294171 1665.16 0.0367716 1667.04 0 1670.49 1.10312 1672.18 2.02236 1674.34 3.8236 1675.63 5.44125 1679.08 10.4774 1682.56 15.9169 1683.96 17.2765 1686.12 18.0846 1689.29 18.1948 1691.82 19.1135 1693.79 20.5097 1698.9 25.9838 1702.41 27.1971 1705.89 27.2775 1707.67 26.9554 1710.31 25.4959 1716.09 24.0368 1718.43 22.0896 1720.26 19.3339 1721.14 18.3051 1722.17 17.6804 1724.25 17.5701 1724.88 17.7539 1729.64 20.326 1731.09 20.3627 1733.89 19.7748 1736.08 18.6795 1737.65 17.3496 1738.45 16.5412 1740.16 13.4909 1742.1 11.2857 1743.44 10.4036 1745.07 9.55811 1747.49 9.44783 1749.4 9.96246 1750.98 10.9204 1752.28 12.1307 1753.6 13.8949 1755.05 16.6143 1755.82 19.554 1755.51 20.2154 1755.3 22.2729 1755.79 23.3384 1755.88 25.4324 1755.73 27.3793 1755.96 29.3628 1756.68 32.7781 1757.23 33.99 1757.85 34.6888 1759.06 35.4678 1763.2 37.4052 1764.46 37.4052 1764.92 37.148 1766.85 37.5519 1768.94 37.5887 1776.47 38.984 1780.57 40.5989 1783.34 42.1042 1786.14 44.0866 1789.8 47.9342 1792.36 51.7973 1793.88 55.6394 1794.48 57.9477 1794.71 59.5574 1795.11 65.7975 1797.08 70.3842 1799.43 74.2789 1800.86 75.6195 1804.88 81.0886 1805.96 82.3295 1809.2 88.2571 1810.05 89.6672 1810.77 90.5008 1812.39 93.3171 1813 96.5783 1813.06 97.9856 1813.14 100.774 1812.6 107.841 1812.73 111.834 1813.29 116.271 1813.61 117.736 1815 120.988 1815.93 122.419 1818.54 125.364 1820.62 126.506 1822.69 127.116 1834.79 129.315 1840.73 131.3 1846.27 133.774 1848.22 135.045 1852.35 136.509 1858.87 138.254 1861.17 138.007 1864.53 137.917 1866.57 138.218 1872.66 136.576 1877.51 134.713 1880.55 134.07 1885.3 132.171 1890.05 132.068 1892.5 132.512 1895.23 133.447 1899.66 136.751 1899.62 137.622 1900.07 137.856 1902.86 138.55 1904.09 138.514 1906.64 139.1 1911.45 140.037 1915.42 141.2 1917.32 142.012 1919.46 143.258 1921.44 145.218 1922.39 146.774 1923.11 148.561 1923.55 150.335 1924.1 152.921 1924.17 154.144 1924.4 155.151 1924.71 156.011 1925.82 157.493 1926.59 158.168 1930.06 160.52 1932.33 161.297 1934.49 161.602 1936.7 162.313 1938.95 163.406 1939.96 164.205 1940.96 165.611 1942 169.533 1942.81 174.538 1943.2 176.166 1944.23 179.306 1945.03 180.376 1946.24 181.23 1947 181.514 1950.57 182.424 1953.91 183.037 1958.88 183.486 1959.7 184.018 1959.98 184.598 1960.98 185.353 1962.48 185.991 1963.66 186.034 1968.93 188.894 1970.66 189.571 1973.9 190.289 1975.1 190.34 1976.41 190.098 1977.52 189.681 1978.23 189.364 1979.14 188.579 1980.23 187.026 1981.06 184.738 1981.93 181.381 1982.09 178.933 1982.66 175.734 1983 174.765 1983.62 173.754 1985.64 171.549 1988.83 169.811 2000.52 166.696 2000.42 167.034 2002.13 166.634 2004.2 165.71 2007.78 164.462 2012.33 163.249 2015.86 162.906 2018.26 163.391 2020.6 164.29 2023.74 166.142 2025.7 167.636 2028.56 170.5 2029.78 172.011 2030.95 172.98 2033.3 173.657 2034.09 173.53 2036.96 174.926 2038.84 175.212 2044.6 175.552 2046.92 176.257 2054.7 177.472 2057.12 178.092 2059.86 179.165 2062.78 180.818 2067.47 183.862 2070.99 186.85 2072.49 189.36 2073.02 192.244 2073.14 194.679 2073.43 196.069 2073.87 197.161 2075.61 199.324 2076.64 200.233 2078.32 201.198 2080.53 201.779 2082.05 201.271 2082.72 200.81 2087.85 195.021 2088.09 193.884 2089.14 192.674 2089.96 192.24 2091.83 191.992 2092.82 190.963 2094.4 190.338 2096.12 190.1 2098.15 190.472 2100.81 191.717 2104.25 193.753 2106.69 194.346 2109.84 194.111 2115.19 193.142 2117.45 193.21 2119.68 193.035 2123.69 191.382 2124.91 190.21 2125.92 188.957 2127.65 185.849 2128.41 184.019 2129.48 178.923 2130.82 176.413 2132.38 174.363 2133.79 173.072 2135.13 172.306 2140.41 170.927 2146.08 168.046 2149.28 165.542 2152.35 160.978 2153.46 158.034 2154.17 156.654 2155.01 155.319 2155.67 154.618 2156.46 154.098 2158.22 153.496 2161.06 153.033 2164.63 153.282 2166.14 153.574 2168.39 154.415 2170.3 154.525 2173.35 153.502 2176.15 151.235 2180.64 148.199 2186.19 145.714 2194.6 143.337 2196.03 143.52 2198.79 145.202 2199.93 146.738 2200.76 148.456 2201.13 149.626 2201.53 153.721 2201.39 155.95 2201.16 157.302 2199.99 162.2 2199.53 164.977 2199.33 167.608 2200.1 170.293 2201.62 171.992 2203.41 175.242 2204.52 178.493 2205.41 183.714 2205.27 188.533 2205.55 192.937 2205.98 195.624 2206.83 198.952 2208.01 202.297 2208.83 203.867 2210.19 205.583 2215.71 210.492 2221.43 213.964 2224.38 215.143 2227.31 215.481 2231.81 214.98 2238.69 215.493 2241.15 215.393 2242.89 216 2244.37 217.436 2245.95 218.573 2249.96 220.837 2250.94 221.648 2252.84 223.905 2256.9 231.348 2259.8 234.881 2262.23 238.158 2264.69 240.507 2267.74 242.663 2271.62 244.395 2273.23 245.345 2274.56 246.277 2275.51 247.396 2276.16 248.637 2277.33 251.627 2278.28 259.789 2279.37 263.692 2280.3 265.474 2279.56 266.976 2279.32 268.723 2279.34 269.795 2279.92 272.927 2279.12 275.174 2278.71 275.896 2278.57 276.915 2278.7 277.509 2279.82 279.697 2279.81 279.701 2280.49 282.477 2280.22 283.653 2279.45 285.293 2279.2 286.201 2279.01 288.731 2279.07 293.45 2279.49 294.199 2280.62 294.631 2281.43 295.139 2281.93 295.746 2282.67 297.393 2285.07 299.497 2286.28 302.941 2286.52 304.039 2286.49 304.83 2286.23 305.42 2284.67 307.791 2283.78 309.613 2283.33 310.926 2283.39 311.417 2284.27 312.781 2284.35 315.25 2284.55 316.406 2285.13 317.944 2285.74 318.958 2285.72 322.899 2284.7 326.191 2283.69 328.448 2283.06 329.255 2282.47 329.529 2279.93 329.588 2277.29 328.916 2276.98 328.916 2276.46 329.398 2275 332.989 2274.92 333.545 2275.54 336.37 2275.94 337.5 2276.86 338.413 2278.4 339.21 2278.94 339.775 2278.82 345.723 2278.69 347.091 2277.28 350.573 2275.26 356.41 2274.65 356.885 2272.95 357.325 2271.24 356.792 2267.36 356.568 2266.23 357.132 2265.74 358.607 2267.39 361.78 2267.55 363.443 2267.58 366.585 2267.86 368.194 2268.1 368.627 2268.72 369.06 2271.03 369.724 2272.19 370.239 2272.46 370.752 2272.46 373.928 2272.69 374.567 2272.95 374.832 2273.89 375.021 2276.61 374.797 2277.75 375.702 2278.46 376.049 2279.06 376.578 2280.32 378.41 2280.84 378.761 2281.98 379.132 2282.58 379.813 2282.73 383.054 2282.63 384.433 2283.05 385.732 2285.89 388.836 2288.27 389.366 2290.02 392.191 2292.4 392.93 2292.87 393.735 2292.92 395.732 2293.53 396.447 2294.22 397.378 2294.24 398.918 2294.49 399.692 2295.25 401.026 2296.38 402.201 2296.33 403.105 2295.87 404.161 2296 405.034 2297.04 406.89 2298.35 408.141 2299.29 408.578 2299.65 409.008 2299.65 411.483 2300.57 413.872 2301.41 415.473 2301.99 415.951 2302.07 416.707 2301.94 417.667 2302.07 418.127 2302.46 418.591 2303.23 418.681 2304.21 418.113 2304.96 418.017 2307.05 418.87 2309.93 418.973 2310.51 419.169 2311.01 420.118 2311.1 422.417 2311.25 423.297 2311.61 424.17 2311.95 424.349 2315.1 423.332 2316.42 423.782 2316.86 424.071 2317.21 424.566 2317.26 425.693 2317 426.938 2315.74 428.312 2312.73 428.271 2311.62 428.852 2311.46 429.457 2311.36 430.956 2311.5 431.716 2312.99 432.314 2314.81 432.774 2315.09 433.039 2315.05 433.355 2314.11 434.878 2312.44 436.965 2311.25 438.082 2310.48 438.357 2308.35 437.879 2307.96 437.951 2307.78 438.278 2307.79 439.22 2307.92 439.45 2308.8 440.103 2309.99 440.591 2310.14 440.732 2310.1 441.004 2309.94 441.485 2309.53 441.784 2307.71 441.43 2306.9 441.526 2306.46 442.166 2306.48 442.726 2307.54 444.5 2308.23 444.953 2311.59 444.96 2312.62 445.39 2312.43 445.943 2310.54 447.535 2310.35 448.178 2310.56 448.594 2312.91 449.371 2313.99 450.412 2314.24 450.973 2314.36 451.818 2314.25 452.595 2313.91 453.265 2313.86 453.86 2314.26 454.623 2314.85 455.001 2315.22 454.96 2315.84 453.925 2315.98 453.283 2315.87 450.766 2316.08 449.725 2317.19 449.292 2317.6 449.367 2318 449.996 2318.21 450.849 2318.49 451.272 2319.05 451.443 2320.45 451.478 2320.89 451.667 2321.96 453.155 2324.53 454.637 2325.33 455.802 2326.37 458.373 2327.25 458.961 2329.4 459.913 2329.89 460.573 2330.05 461.202 2330.02 463.729 2330.2 464.709 2330.49 465.331 2330.88 465.702 2331.42 465.919 2332.59 465.991 2333.4 466.479 2333.12 466.991 2332.74 467.232 2329.22 467.754 2328.66 468.084 2328.61 468.562 2328.82 469.067 2329.26 469.398 2331.35 470.532 2331.12 471.298 2329.69 473.698 2329.69 473.945 2330.58 474.358 2331.78 474.475 2332.06 474.674 2332.98 477.617 2333.29 478.029 2335.62 480.037 2335.97 483.031 2334.9 486.269 2334.89 486.881 2335.06 487.2 2335.9 487.671 2336.39 487.589 2337.31 486.633 2338.61 484.632 2339.02 484.272 2339.36 484.272 2339.73 484.56 2341.35 486.908 2341.66 487.84 2341.98 489.758 2342.7 490.064 2344.09 490.212 2344.72 490.617 2345.35 491.449 2345.52 492.003 2345.85 492.491 2346.6 492.855 2348.04 493.061 2348.57 493.333 2350.12 495.471 2352.51 495.877 2352.72 496.072 2353.1 497.905 2352.9 498.682 2352.95 499.194 2353.33 499.73 2353.79 500.046 2354.75 500.136 2355.53 499.541 2356.68 499.441 2357.29 499.854 2357.49 500.259 2357.29 500.754 2355.02 502.332 2354.38 503.003 2354.4 503.332 2355.16 504.147 2355.65 504.412 2356.24 504.47 2359.03 503.511 2360.39 503.463 2360.73 503.728 2360.97 504.305 2360.94 504.553 2360.35 505.031 2359.01 505.412 2358.62 505.677 2358.06 506.921 2357.94 508.427 2356 509.431 2354.47 511.304 2354.54 512.057 2356.4 513.837 2358.43 514.508 2358.66 514.738 2358.83 514.996 2358.95 516.918 2359.43 519.145 2360.71 520.142 2360.88 520.664 2361.01 522.115 2361.99 524.147 2362.43 524.494 2363.78 524.7 2364.6 525.415 2365.01 526.044 2364.81 526.976 2363.49 528.272 2363.22 529.186 2363.62 530.234 2364.68 531.324 2365.11 531.572 2365.15 531.891 2364.87 532.593 2362.94 534.696 2362.76 535.143 2362.92 535.645 2363.39 535.721 2364.98 534.813 2365.55 534.737 2365.65 534.854 2365.72 536.504 2365.56 536.907 2365.65 537.56 2366.39 538.031 2367.42 538.361 2367.91 537.673 2368.41 535.82 2368.75 535.532 2369.09 535.621 2370.36 537.721 2372.03 539.959 2373.18 540.454 2376.28 542.492 2377.66 542.438 2380.04 540.977 2380.94 540.681 2381.33 540.794 2385.12 543.812 2385.28 544.225 2385.45 546.006 2385.83 546.886 2387.05 547.47 2387.8 548.048 2387.8 548.543 2387.12 550.003 2386.79 550.406 2386.8 550.718 2388.34 553.001 2388.1 553.479 2388.72 553.781 2389.8 553.891 2391.33 553.637 2391.6 553.52 2391.86 553.035 2392.22 552.884 2394.73 553.709 2396.19 553.231 2396.36 553.001 2396.47 552.382 2396.14 549.598 2396.03 549.051 2395.5 548.384 2395.06 547.494 2395.01 546.951 2395.99 545.796 2396.71 545.308 2398.95 545.301 2399.62 545.655 2399.8 545.854 2399.78 546.174 2399.03 547.907 2398.98 548.378 2399.42 549.464 2400.33 550.684 2400.42 551.196 2400.13 551.746 2397.87 553.279 2397.57 554.297 2397.86 555.063 2399.21 556.377 2400.35 555.782 2401.26 555.015 2401.94 555.074 2402.77 555.658 2402.61 556.342 2401.35 558.236 2401.39 559.374 2401.65 559.869 2402.7 560.044 2404.38 559.491 2404.9 559.615 2405.08 561.148 2404.66 564.09 2404.91 565.524 2407.27 566.201 2407.84 565.572 2409.23 564.668 2411.96 565.252 2412.48 565.971 2413.29 567.727 2413.78 570.477 2414.15 570.914 2414.13 571.416 2413.3 572.76 2412.64 573.014 2409.15 573.382 2408.69 573.588 2408.35 574.331 2408.37 574.826 2408.77 575.245 2410.59 575.73 2411.4 576.513 2411.53 577.067 2411.19 578.301 2411.24 579.322 2411.58 579.841 2412.02 580.047 2413.36 580.436 2414.29 580.418 2414.81 579.923 2415.2 578.401 2416.35 577.469 2420.19 577.287 2420.44 577.517 2420.53 578.002 2419.86 578.885 2419.62 579.477 2419.79 579.741 2420.26 579.824 2421.39 579.731 2424.17 578.758 2425.47 578.971 2428.2 578.823 2428.71 579.112 2431.23 582.89 2431.44 583.822 2431.12 584.867 2431.23 585.64 2431.54 585.881 2432.13 585.953 2433.21 585.633 2433.98 585.681 2435.46 586.235 2435.78 586.685 2435.85 588.479 2436.29 588.761 2436.94 588.466 2437.51 586.702 2437.51 586.035 2436.82 583.863 2436.72 582.89 2436.83 582.099 2437.39 581.508 2438.49 581.663 2438.75 582.027 2439.07 583.533 2441.38 585.355 2442.4 585.142 2443.61 584.327 2444.22 584.31 2444.77 585.035 2445.06 586.558 2445.62 586.829 2446.98 586.946 2447.49 586.788 2449.65 583.588 2450.12 583.406 2450.48 583.505 2450.48 585.028 2451.3 585.375 2451.71 585.117 2452.71 583.612 2453.16 583.495 2454.59 583.866 2455.06 583.667 2456.33 582.563 2458.11 582.175 2459.59 583.426 2459.47 584.093 2458.64 585.307 2435.09 605.897 2431.69 609.352 2413.99 625.027 2392.07 643.751 2391.8 644.136 2377.07 657.157 2366.35 666.517 2361.36 670.667 2359.48 672.526 2359.18 672.973 2359.09 673.925 2358.64 675.163 2357.02 676.72 2355.04 677.067 2353.51 677.954 2352.11 677.542 2352.05 679.972 2349.52 682.492 2348.27 683.158 2345.64 683.444 2342.21 685.063 2340.3 684.973 2339.62 685.159 2330.37 688.133 2326.68 689.765 2325.34 689.868 2321.51 690.793 2320.7 691.274 2319.27 692.807 2317.54 692.804 2314.63 693.78 2310.88 695.344 2310.63 695.568 2310.66 696.561 2309.44 697.534 2308.37 697.348 2308.06 696.647 2307.34 696.833 2304.76 698.38 2304.63 698.5 2304.71 699.012 2304.32 699.741 2301.28 701.896 2300.03 701.161 2298.81 701.597 2297.95 702.185 2297.87 702.646 2298.01 703.237 2296.57 704.038 2295.24 704.179 2293.95 705.416 2292.65 704.921 2291.66 705.499 2290.42 706.657 2288.38 707.908 2284.49 710.634 2282.28 711.662 2280.65 712.659 2280.43 712.938 2280.56 713.536 2279.22 714.718 2276.13 716.165 2273.53 717.925 2271.4 719.785 2268.95 722.886 2263.77 723.728 2263.31 723.941 2262.88 724.199 2262.11 726.193 2260.69 726.608 2259.18 727.293 2258.1 728.547 2256.61 729.792 2255.85 729.572 2254.37 729.479 2251.22 731.026 2247.73 733.181 2245.32 734.394 2244.75 734.332 2243.68 735.082 2242.5 736.615 2242.44 736.938 2242.48 738.059 2243.72 740.262 2243.81 741.84 2243.65 744.329 2243.03 744.803 2242.86 745.188 2243.41 747.66 2244.1 748.791 2244.79 749.203 2245.07 749.609 2245.2 750.441 2244.75 750.98 2243.8 751.166 2243.21 751.046 2242.27 751.939 2242.47 754.139 2243.16 755.686 2243.63 757.326 2243.38 759.296 2243.34 761.018 2243.57 761.918 2242.93 762.754 2242.48 762.991 2240.93 762.51 2240.39 762.121 2237.87 762.675 2237.52 763.242 2236.98 767.37 2236.3 769.02 2235.52 769.416 2235.19 768.876 2234.56 768.532 2233.1 768.264 2231.04 769.773 2230.85 770.55 2229.5 772.413 2227.92 772.571 2227.62 773.554 2226.55 775.084 2224.63 775.112 2224.57 775.17 2224.18 775.431 2224.06 775.613 2223.33 776.067 2222.94 775.919 2222.69 775.634 2222.55 774.991 2222.18 774.579 2221.31 775.191 2217.59 776.126 2216.97 775.455 2216.32 775.827 2215.84 775.809 2215.25 776.463 2214.99 776.552 2214.27 775.785 2213.31 775.988 2212.92 776.758 2212.74 777.69 2213.16 778.903 2212.68 780.367 2211.81 780.893 2211.19 782.011 2210.47 782.657 2210.04 782.626 2209.7 782.719 2208.63 783.805 2207.37 783.925 2206.8 783.561 2206.46 783.396 2206.14 783.317 2205.37 784.376 2205.27 785.489 2204.94 785.782 2204.19 785.785 2203.52 785.177 2202.95 785.52 2202.63 785.785 2202.44 785.861 2202.2 786.053 2201.94 786.424 2201.73 787.242 2201.42 790.168 2201.43 790.343 2202.25 791.172 2202.81 792.99 2203.15 793.024 2203.53 793.103 2204.2 793.729 2204.8 794.434 2205.58 794.516 2205.46 794.994 2204.36 796.204 2204.17 797.359 2203.98 797.713 2203.87 799.686 2204.2 800.357 2204.7 801.917 2204.79 802.041 2204.93 803.179 2204.74 803.801 2204.34 804.708 2203.79 805.066 2203.36 805.753 2202.87 806.248 2202.32 807.304 2200.89 808.913 2200.42 809.325 2199.72 810.068 2199.37 810.872 2200.77 812.508 2201.48 813.092 2200.58 814.688 2199.66 815.052 2199.03 815.856 2199.26 816.619 2199.05 817.424 2198.79 817.603 2197.33 817.819 2196.47 818.386 2195.79 819.314 2194.24 820.077 2191.14 820.933 2190.67 821.287 2190.66 821.827 2190.87 822.394 2190.73 822.728 2190 822.962 2189.61 822.893 2189.57 822.893 2186.55 823.006 2182.23 825.378 2178.2 825.777 2175.56 827.066 2172.91 828.795 2172.43 828.767 2172.01 828.293 2170.35 828.08 2167.65 828.279 2164.89 829.173 2163.35 830.899 2162.69 832.287 2161.8 832.497 2160.84 832.501 2158.19 831.538 2157.47 830.933 2157.05 829.651 2156.76 829.579 2152.39 829.971 2151.8 830.469 2150.85 830.899 2149.46 830.827 2147.18 830.184 2146.18 830.933 2145.55 830.861 2144.67 830.256 2143.72 829.898 2142.87 831.325 2143.38 833.357 2142.99 834.783 2141.7 834.89 2139.62 835.742 2139.05 836.526 2138.39 837.097 2136.22 838.025 2135.4 838.987 2135.31 839.307 2135.43 839.84 2135.97 840.482 2136.22 841.16 2136.34 844.257 2135.03 846.966 2133.62 848.571 2132.83 849.21 2131.72 850.74 2130.45 853.078 2129.25 854.102 2127.7 854.552 2126.87 855.941 2127.78 858.041 2127.67 860.069 2127 861.059 2126.7 861.592 2126.65 862.025 2128.59 863.088 2128.57 863.136 2128.29 863.232 2127.69 864.349 2127.85 864.882 2127.97 866.855 2127.07 867.223 2126.13 868.364 2125.53 869.608 2122.76 870.073 2119.74 869.928 2118.37 870.746 2116.69 870.997 2114.32 870.856 2108.93 870.891 2107.48 871.602 2101.69 873.809 2097.01 875.373 2096.41 875.301 2094.19 875.944 2091.56 877.188 2089.25 877.473 2087.63 878.364 2086.72 878.611 2085.86 878.539 2082.95 879.536 2082.61 879.962 2082.35 880.034 2076.85 880.887 2075.62 881.279 2075.17 881.705 2074.4 882.028 2066.67 884.482 2064.7 885.514 2064.39 885.868 2063.59 886.112 2063.3 886.308 2062.79 886.827 2061.99 887.219 2061.71 887.219 2061.16 886.793 2060.62 886.865 2059.62 887.538 2054.32 889.708 2053.41 890.278 2051.7 892.234 2051.61 892.413 2051.81 892.908 2051.55 893.193 2046.99 895.328 2044.79 896.146 2043.6 896.538 2041.31 896.857 2039.95 896.964 2038.72 896.713 2036.64 897.284 2034.76 897.459 2033.81 897.105 2033.02 897.425 2031.4 897.49 2026.8 896.964 2025 896.431 2023.58 895.575 2022.41 895.434 2021.87 895.541 2021.44 895.933 2019.87 896.074 2018.5 895.933 2017.27 896.466 2014.11 897.033 2013.4 896.964 2012.74 897.39 2012.43 897.995 2012.4 898.494 2009.92 900.378 2008.35 901.123 2006.41 901.371 2003.98 902.261 2003.1 903.292 2001.93 904.252 1999.79 905.637 1997.74 905.778 1993.12 907.307 1992.46 907.38 1992.09 907.094 1991.72 907.06 1991.07 907.307 1989.18 908.408 1988.64 909.332 1987.65 910.542 1986.19 911.536 1985.08 911.927 1983.34 912.354 1981.97 911.68 1980.43 911.893 1979.55 912.426 1979.2 914.557 1976.86 916.297 1975.18 918.074 1974.61 918.428 1972.47 918.82 1972.05 919.387ZM315.051 956.801 312.932 956.77 311.364 956.732 299.654 956.618 298.554 954.223 295.313 949.943 294.164 948.142 293.595 946.956 292.039 942.858 290.822 940.232 290.488 939.18 290.412 937.327 290.897 935.354 291.75 933.192 292.785 931.583 294.239 929.888 295.792 928.589 297.654 927.589 298.696 927.386 302.938 927.18 304.434 927.523 305.471 928.049 306.678 928.366 310.782 928.898 315.128 930.49 316.253 931.219 316.766 931.776 318.406 934.718 319.998 939.359 320.658 943.15 320.532 945.357 319.739 948.427 318.658 951.105 317.31 953.473 315.802 955.226Z" stroke="#56B3E4" stroke-width="1.71893" fill="#56B3E4" transform="matrix(1 0 0 1.00039 550 502)"/></g></g></g><path d="M1306.39 1172.67 1347.13 1154.34 1378.57 1224.22 1379.28 1223.9 1409.2 1126.41 1461.08 1103.07 1422.65 1215.5 1542.73 1272.85 1488.6 1297.2 1389.28 1246.75 1388.8 1246.96 1424.4 1326.08 1383.66 1344.42Z" fill="#E5F1FF" fill-rule="evenodd"/><text fill="#000000" fill-opacity="0" font-family="Arial,Arial_MSFontService,sans-serif" font-size="241.345" x="1306.39" y="1314.25">K</text><path d="M1501.09 1092.8 1622.94 1058.81 1633.31 1095.96 1553.62 1118.2 1563.11 1152.23 1638.55 1131.18 1648.36 1166.33 1572.92 1187.38 1583.42 1225.04 1667.75 1201.51 1678.18 1238.92 1551.7 1274.21Z" fill="#E5F1FF" fill-rule="evenodd"/><text fill="#000000" fill-opacity="0" font-family="Arial,Arial_MSFontService,sans-serif" font-size="215.397" x="1501.09" y="1247.28">E</text><path d="M1670.41 1047.53 1721.44 1038.5 1817.15 1146.34 1818.05 1146.19 1795.49 1025.4 1838.98 1017.71 1871.79 1203.16 1821.01 1212.14 1724.87 1104.11 1724.1 1104.24 1746.58 1225.31 1703.22 1232.98Z" fill="#E5F1FF" fill-rule="evenodd"/><text fill="#000000" fill-opacity="0" font-family="Arial,Arial_MSFontService,sans-serif" font-size="215.272" x="1670.41" y="1206.07">N</text><path d="M1870.11 1013.92 2021.3 998.648 2025.2 1037.29 1972.22 1042.64 1987.25 1191.38 1942.02 1195.95 1926.99 1047.21 1874.01 1052.56Z" fill="#E5F1FF" fill-rule="evenodd"/><text fill="#000000" fill-opacity="0" font-family="Arial,Arial_MSFontService,sans-serif" font-size="197.298" x="1870.11" y="1171.28">T</text><path d="M2047.43 996.716 2092.6 995.089 2096.69 1108.66C2096.88 1113.77 2097.72 1118.59 2099.23 1123.13 2100.74 1127.67 2102.94 1131.7 2105.84 1135.24 2108.74 1138.77 2112.48 1141.54 2117.06 1143.54 2121.63 1145.54 2127.12 1146.43 2133.53 1146.2 2139.84 1145.97 2145.24 1144.69 2149.7 1142.36 2154.17 1140.04 2157.74 1137.01 2160.42 1133.27 2163.1 1129.54 2164.99 1125.35 2166.08 1120.72 2167.17 1116.09 2167.62 1111.22 2167.43 1106.12L2163.34 992.541 2208.77 990.905 2213 1108.11C2213.4 1119.45 2211.87 1129.84 2208.4 1139.28 2204.93 1148.72 2199.76 1156.89 2192.91 1163.81 2186.05 1170.73 2177.69 1176.23 2167.83 1180.31 2157.97 1184.39 2146.94 1186.65 2134.74 1187.09 2122.28 1187.54 2111.03 1186.08 2100.99 1182.72 2090.94 1179.36 2082.34 1174.47 2075.18 1168.05 2068.02 1161.64 2062.41 1153.85 2058.35 1144.68 2054.3 1135.51 2052.06 1125.26 2051.66 1113.92Z" fill="#E5F1FF" fill-rule="evenodd"/><text fill="#000000" fill-opacity="0" font-family="Arial,Arial_MSFontService,sans-serif" font-size="196.267" x="2047.43" y="1162.64">U</text><path d="M2350 989.977C2363.33 990.533 2376.31 993.437 2388.97 998.688 2401.62 1003.94 2411.73 1011.23 2419.32 1020.56L2387.27 1050.16C2383.19 1044.1 2377.77 1039.52 2371.01 1036.42 2364.25 1033.32 2357.24 1031.62 2349.97 1031.31 2341.92 1030.98 2334.53 1032.12 2327.79 1034.74 2321.05 1037.37 2315.18 1041.15 2310.16 1046.1 2305.14 1051.04 2301.17 1056.97 2298.24 1063.86 2295.31 1070.76 2293.67 1078.36 2293.32 1086.67 2292.97 1095.15 2293.96 1102.99 2296.3 1110.19 2298.65 1117.4 2302.07 1123.63 2306.57 1128.89 2311.08 1134.14 2316.54 1138.31 2322.95 1141.4 2329.37 1144.48 2336.47 1146.19 2344.25 1146.51 2353.34 1146.89 2361.33 1145.45 2368.22 1142.18 2375.12 1138.92 2380.72 1134.56 2385.02 1129.1L2415.31 1160.14C2406.6 1169.39 2396.04 1176.56 2383.6 1181.63 2371.17 1186.7 2356.96 1188.9 2340.95 1188.23 2326.42 1187.63 2313.11 1184.67 2301.02 1179.35 2288.94 1174.04 2278.56 1166.82 2269.88 1157.71 2261.21 1148.59 2254.55 1137.81 2249.91 1125.35 2245.28 1112.89 2243.26 1099.31 2243.88 1084.6 2244.51 1069.55 2247.69 1056.01 2253.44 1043.99 2259.18 1031.97 2266.84 1021.87 2276.41 1013.68 2285.98 1005.5 2297.05 999.358 2309.62 995.246 2322.18 991.134 2335.64 989.378 2350 989.977Z" fill="#E5F1FF" fill-rule="evenodd"/><text fill="#000000" fill-opacity="0" font-family="Arial,Arial_MSFontService,sans-serif" font-size="198.487" x="2243.77" y="1163.54">C</text><path d="M2455.78 1001.48 2500.03 1007.69 2489.38 1083.58 2490.15 1083.69 2567.43 1017.15 2623.76 1025.06 2531.32 1099.69 2602.35 1212.23 2543.57 1203.98 2486.43 1108.35 2485.91 1108.27 2473.86 1194.19 2429.61 1187.98Z" fill="#E5F1FF" fill-rule="evenodd"/><text fill="#000000" fill-opacity="0" font-family="Arial,Arial_MSFontService,sans-serif" font-size="210.745" x="2429.61" y="1185.88">K</text><path d="M2640.44 1027.09 2693.04 1043.41 2710.7 1121.92 2769.7 1067.19 2820.56 1082.97 2719.29 1165.24 2695.66 1241.41 2652.24 1227.94 2675.87 1151.77Z" fill="#E5F1FF" fill-rule="evenodd"/><text fill="#000000" fill-opacity="0" font-family="Arial,Arial_MSFontService,sans-serif" font-size="214.317" x="2640.44" y="1214.62">Y</text><rect x="1815" y="1296" width="819" height="413" fill="#E5F1FF"/><text fill="#003968" font-family="Aptos,Aptos_MSFontService,sans-serif" font-weight="700" font-size="147" transform="matrix(1 0 0 1 1858.27 1465)">Broadband </text><text fill="#003968" font-family="Aptos,Aptos_MSFontService,sans-serif" font-weight="700" font-size="147" transform="matrix(1 0 0 1 2080.88 1603)">Map</text></g></svg>