<svg width="64" height="64" xmlns="http://www.w3.org/2000/svg" xmlns:xlink="http://www.w3.org/1999/xlink" xml:space="preserve" overflow="hidden"><g transform="translate(-72 -560)"><path d="M86.6667 576.133 86.6667 577.2 76 577.2 76 576.133ZM76 582.533 86.6667 582.533 86.6667 581.467 76 581.467ZM76 587.867 86.6667 587.867 86.6667 586.8 76 586.8ZM135.867 571.333 135.867 610C135.865 611.03 135.03 611.865 134 611.867L74 611.867C72.9697 611.865 72.1348 611.03 72.1333 610L72.1333 571.333C72.1348 570.303 72.9697 569.468 74 569.467L134 569.467C135.03 569.468 135.865 570.303 135.867 571.333ZM74 610.8 89.4667 610.8 89.4667 570.533 74 570.533C73.5582 570.533 73.2 570.891 73.2 571.333L73.2 610C73.2 610.442 73.5582 610.8 74 610.8ZM134.8 571.333C134.8 570.891 134.442 570.533 134 570.533L90.5333 570.533 90.5333 610.8 134 610.8C134.442 610.8 134.8 610.442 134.8 610ZM123.867 598.667C123.867 600.066 122.732 601.2 121.333 601.2 119.934 601.2 118.8 600.066 118.8 598.667 118.8 597.268 119.934 596.133 121.333 596.133 122.732 596.135 123.865 597.268 123.867 598.667ZM122.8 598.667C122.8 597.857 122.143 597.2 121.333 597.2 120.523 597.2 119.867 597.857 119.867 598.667 119.867 599.477 120.523 600.133 121.333 600.133 122.143 600.133 122.799 599.476 122.8 598.667ZM117.2 594C117.2 595.031 116.364 595.867 115.333 595.867 114.302 595.867 113.467 595.031 113.467 594 113.467 592.969 114.302 592.133 115.333 592.133 116.364 592.135 117.199 592.97 117.2 594ZM116.133 594C116.133 593.558 115.775 593.2 115.333 593.2 114.891 593.2 114.533 593.558 114.533 594 114.533 594.442 114.891 594.8 115.333 594.8 115.775 594.8 116.133 594.442 116.133 594ZM105.2 600C105.2 601.399 104.066 602.533 102.667 602.533 101.268 602.533 100.133 601.399 100.133 600 100.133 598.601 101.268 597.467 102.667 597.467 104.065 597.468 105.199 598.601 105.2 600ZM104.133 600C104.133 599.19 103.477 598.533 102.667 598.533 101.857 598.533 101.2 599.19 101.2 600 101.2 600.81 101.857 601.467 102.667 601.467 103.476 601.466 104.133 600.81 104.133 600ZM105.467 582C105.467 580.233 106.899 578.8 108.667 578.8 110.434 578.8 111.867 580.233 111.867 582 111.867 583.767 110.434 585.2 108.667 585.2 106.9 585.198 105.469 583.766 105.467 582ZM106.533 582C106.533 583.178 107.488 584.133 108.667 584.133 109.845 584.133 110.8 583.178 110.8 582 110.8 580.822 109.845 579.867 108.667 579.867 107.489 579.868 106.535 580.822 106.533 582ZM98.8 586.667C98.8 585.268 99.9343 584.133 101.333 584.133 102.732 584.133 103.867 585.268 103.867 586.667 103.867 588.066 102.732 589.2 101.333 589.2 99.9348 589.199 98.8015 588.065 98.8 586.667ZM99.8667 586.667C99.8667 587.477 100.523 588.133 101.333 588.133 102.143 588.133 102.8 587.477 102.8 586.667 102.8 585.857 102.143 585.2 101.333 585.2 100.524 585.201 99.8675 585.857 99.8667 586.667ZM94.8 574.8 130.533 574.8 130.533 606.533 94.8 606.533ZM95.8667 605.467 114.915 605.467C111.573 597.77 104.235 592.565 95.8667 591.956ZM129.467 605.467 129.467 581.217C120.275 581.736 111.957 586.832 107.32 594.784 111.214 597.421 114.259 601.132 116.085 605.467ZM129.467 575.867 118.08 575.867C118.275 578.147 118.714 580.4 119.388 582.587 122.575 581.179 125.989 580.353 129.468 580.149ZM95.8667 575.867 95.8667 590.887C99.6021 591.126 103.225 592.263 106.427 594.201 109.236 589.385 113.406 585.506 118.413 583.053 117.68 580.717 117.208 578.307 117.005 575.867Z" fill="#027ECF"/></g></svg>