<svg version="1.1" id="Layer_1" xmlns="http://www.w3.org/2000/svg" xmlns:xlink="http://www.w3.org/1999/xlink" x="0px" y="0px"
	 width="100%" viewBox="0 0 500 500" enable-background="new 0 0 500 500" xml:space="preserve">
<path fill="#FEFEFF" opacity="1.000000" stroke="none" 
	d="
M501.000000,178.000000 
	C501.000000,285.999969 501.000000,393.499939 501.000000,500.999939 
	C334.333405,500.999939 167.666794,500.999939 1.000147,500.999969 
	C1.000098,334.333435 1.000098,167.666870 1.000049,1.000237 
	C167.666519,1.000158 334.333038,1.000158 500.999786,1.000079 
	C501.000000,59.833332 501.000000,118.666664 501.000000,178.000000 
M461.843628,370.362915 
	C488.914795,322.082428 498.698303,270.351471 490.630127,215.760574 
	C481.321564,152.776840 451.410583,100.877777 401.511719,61.342381 
	C344.114105,15.865692 278.546234,0.393236 206.700775,12.965911 
	C151.444183,22.635603 105.112778,49.312412 68.657791,91.857773 
	C14.698316,154.832001 -3.135415,227.688995 15.787158,308.117676 
	C45.866474,435.967133 173.758545,515.935913 302.027557,487.774689 
	C372.013275,472.409485 425.094482,432.830170 461.843628,370.362915 
z"/>
<path fill="#06243B" opacity="1.000000" stroke="none" 
	d="
M461.639282,370.668213 
	C425.094482,432.830170 372.013275,472.409485 302.027557,487.774689 
	C173.758545,515.935913 45.866474,435.967133 15.787158,308.117676 
	C-3.135415,227.688995 14.698316,154.832001 68.657791,91.857773 
	C105.112778,49.312412 151.444183,22.635603 206.700775,12.965911 
	C278.546234,0.393236 344.114105,15.865692 401.511719,61.342381 
	C451.410583,100.877777 481.321564,152.776840 490.630127,215.760574 
	C498.698303,270.351471 488.914795,322.082428 461.639282,370.668213 
M137.310760,73.795471 
	C115.187668,88.002754 96.340736,105.777908 81.008842,127.058693 
	C49.535080,170.744553 36.398308,219.538361 41.886745,273.145020 
	C46.547062,318.663208 64.190971,358.782196 95.168556,392.286652 
	C143.341919,444.389587 203.462921,467.095551 274.035248,459.952179 
	C330.696442,454.216949 377.668793,428.685516 413.453583,384.498901 
	C456.692322,331.108215 470.629700,269.984497 455.770172,202.953369 
	C436.267731,114.977814 358.160034,47.818203 268.457550,41.208920 
	C221.532181,37.751461 177.866699,48.222290 137.310760,73.795471 
z"/>
<path fill="#68A7D4" opacity="1.000000" stroke="none" 
	d="
M137.609802,73.590134 
	C177.866699,48.222290 221.532181,37.751461 268.457550,41.208920 
	C358.160034,47.818203 436.267731,114.977814 455.770172,202.953369 
	C470.629700,269.984497 456.692322,331.108215 413.453583,384.498901 
	C377.668793,428.685516 330.696442,454.216949 274.035248,459.952179 
	C203.462921,467.095551 143.341919,444.389587 95.168556,392.286652 
	C64.190971,358.782196 46.547062,318.663208 41.886745,273.145020 
	C36.398308,219.538361 49.535080,170.744553 81.008842,127.058693 
	C96.340736,105.777908 115.187668,88.002754 137.609802,73.590134 
M287.135315,290.635315 
	C309.635986,268.136597 332.144165,245.645355 354.631134,223.132965 
	C359.221161,218.537781 364.003967,214.096588 368.222107,209.176514 
	C376.987793,198.952042 377.250397,184.029205 369.224548,173.640762 
	C358.119080,159.266159 338.501190,157.928024 325.505890,170.886551 
	C293.655243,202.646988 261.907227,234.510300 230.111725,266.326019 
	C228.759995,267.678619 227.346359,268.969360 226.015442,270.237579 
	C209.150223,253.449783 192.804382,237.055481 176.314911,220.806900 
	C164.559357,209.223083 146.522491,209.080093 135.489792,220.261429 
	C123.892357,232.015060 123.792595,249.527527 135.582367,261.410950 
	C158.696564,284.708710 181.908203,307.910614 205.198242,331.032654 
	C217.528778,343.274231 234.671417,343.033051 247.041595,330.702179 
	C260.256012,317.529755 273.438843,304.325653 287.135315,290.635315 
z"/>
<path fill="#06243B" opacity="1.000000" stroke="none" 
	d="
M286.885376,290.885345 
	C273.438843,304.325653 260.256012,317.529755 247.041595,330.702179 
	C234.671417,343.033051 217.528778,343.274231 205.198242,331.032654 
	C181.908203,307.910614 158.696564,284.708710 135.582367,261.410950 
	C123.792595,249.527527 123.892357,232.015060 135.489792,220.261429 
	C146.522491,209.080093 164.559357,209.223083 176.314911,220.806900 
	C192.804382,237.055481 209.150223,253.449783 226.015442,270.237579 
	C227.346359,268.969360 228.759995,267.678619 230.111725,266.326019 
	C261.907227,234.510300 293.655243,202.646988 325.505890,170.886551 
	C338.501190,157.928024 358.119080,159.266159 369.224548,173.640762 
	C377.250397,184.029205 376.987793,198.952042 368.222107,209.176514 
	C364.003967,214.096588 359.221161,218.537781 354.631134,223.132965 
	C332.144165,245.645355 309.635986,268.136597 286.885376,290.885345 
z"/>
</svg>