<svg width="991" height="103" viewBox="0 0 991 103" fill="none" xmlns="http://www.w3.org/2000/svg">
<rect width="467" height="7" fill="#2A322C"/>
<path d="M40.0156 51.8379C40.0156 51.0762 39.8984 50.3926 39.6641 49.7871C39.4492 49.1621 39.0391 48.5957 38.4336 48.0879C37.8281 47.5605 36.9785 47.043 35.8848 46.5352C34.791 46.0273 33.375 45.5 31.6367 44.9531C29.7031 44.3281 27.8672 43.625 26.1289 42.8438C24.4102 42.0625 22.8867 41.1543 21.5586 40.1191C20.25 39.0645 19.2148 37.8438 18.4531 36.457C17.7109 35.0703 17.3398 33.459 17.3398 31.623C17.3398 29.8457 17.7305 28.2344 18.5117 26.7891C19.293 25.3242 20.3867 24.0742 21.793 23.0391C23.1992 21.9844 24.8594 21.1738 26.7734 20.6074C28.707 20.041 30.8262 19.7578 33.1309 19.7578C36.2754 19.7578 39.0195 20.3242 41.3633 21.457C43.707 22.5898 45.5234 24.1426 46.8125 26.1152C48.1211 28.0879 48.7754 30.3437 48.7754 32.8828H40.0449C40.0449 31.6328 39.7812 30.5391 39.2539 29.6016C38.7461 28.6445 37.9648 27.8926 36.9102 27.3457C35.875 26.7988 34.5664 26.5254 32.9844 26.5254C31.4609 26.5254 30.1914 26.7598 29.1758 27.2285C28.1602 27.6777 27.3984 28.293 26.8906 29.0742C26.3828 29.8359 26.1289 30.6953 26.1289 31.6523C26.1289 32.375 26.3047 33.0293 26.6562 33.6152C27.0273 34.2012 27.5742 34.748 28.2969 35.2559C29.0195 35.7637 29.9082 36.2422 30.9629 36.6914C32.0176 37.1406 33.2383 37.5801 34.625 38.0098C36.9492 38.7129 38.9902 39.5039 40.748 40.3828C42.5254 41.2617 44.0098 42.248 45.2012 43.3418C46.3926 44.4355 47.291 45.6758 47.8965 47.0625C48.502 48.4492 48.8047 50.0215 48.8047 51.7793C48.8047 53.6348 48.4434 55.2949 47.7207 56.7598C46.998 58.2246 45.9531 59.4648 44.5859 60.4805C43.2188 61.4961 41.5879 62.2676 39.6934 62.7949C37.7988 63.3223 35.6797 63.5859 33.3359 63.5859C31.2266 63.5859 29.1465 63.3125 27.0957 62.7656C25.0449 62.1992 23.1797 61.3496 21.5 60.2168C19.8398 59.084 18.5117 57.6387 17.5156 55.8809C16.5195 54.123 16.0215 52.043 16.0215 49.6406H24.8398C24.8398 50.9688 25.0449 52.0918 25.4551 53.0098C25.8652 53.9277 26.4414 54.6699 27.1836 55.2363C27.9453 55.8027 28.8438 56.2129 29.8789 56.4668C30.9336 56.7207 32.0859 56.8477 33.3359 56.8477C34.8594 56.8477 36.1094 56.6328 37.0859 56.2031C38.082 55.7734 38.8145 55.1777 39.2832 54.416C39.7715 53.6543 40.0156 52.7949 40.0156 51.8379ZM90.098 20.3438V63H81.309L64.1703 34.4062V63H55.3812V20.3438H64.1703L81.3383 48.9668V20.3438H90.098ZM133.384 40.6758V42.6973C133.384 45.9395 132.944 48.8496 132.065 51.4277C131.186 54.0059 129.946 56.2031 128.345 58.0195C126.743 59.8164 124.829 61.1934 122.602 62.1504C120.395 63.1074 117.944 63.5859 115.249 63.5859C112.573 63.5859 110.122 63.1074 107.895 62.1504C105.688 61.1934 103.774 59.8164 102.153 58.0195C100.532 56.2031 99.2723 54.0059 98.3738 51.4277C97.4949 48.8496 97.0555 45.9395 97.0555 42.6973V40.6758C97.0555 37.4141 97.4949 34.5039 98.3738 31.9453C99.2527 29.3672 100.493 27.1699 102.095 25.3535C103.716 23.5371 105.63 22.1504 107.837 21.1934C110.063 20.2363 112.514 19.7578 115.19 19.7578C117.886 19.7578 120.337 20.2363 122.544 21.1934C124.77 22.1504 126.684 23.5371 128.286 25.3535C129.907 27.1699 131.157 29.3672 132.036 31.9453C132.934 34.5039 133.384 37.4141 133.384 40.6758ZM124.507 42.6973V40.6172C124.507 38.3516 124.302 36.3594 123.891 34.6406C123.481 32.9219 122.876 31.4766 122.075 30.3047C121.274 29.1328 120.298 28.2539 119.145 27.668C117.993 27.0625 116.675 26.7598 115.19 26.7598C113.706 26.7598 112.387 27.0625 111.235 27.668C110.102 28.2539 109.136 29.1328 108.335 30.3047C107.554 31.4766 106.958 32.9219 106.548 34.6406C106.137 36.3594 105.932 38.3516 105.932 40.6172V42.6973C105.932 44.9434 106.137 46.9355 106.548 48.6738C106.958 50.3926 107.563 51.8477 108.364 53.0391C109.165 54.2109 110.141 55.0996 111.294 55.7051C112.446 56.3105 113.764 56.6133 115.249 56.6133C116.733 56.6133 118.052 56.3105 119.204 55.7051C120.356 55.0996 121.323 54.2109 122.104 53.0391C122.886 51.8477 123.481 50.3926 123.891 48.6738C124.302 46.9355 124.507 44.9434 124.507 42.6973ZM168.759 37.7168V44.5723H146.493V37.7168H168.759ZM149.101 20.3438V63H140.312V20.3438H149.101ZM175.029 20.3438V63H166.269V20.3438H175.029ZM218.314 40.6758V42.6973C218.314 45.9395 217.875 48.8496 216.996 51.4277C216.117 54.0059 214.877 56.2031 213.275 58.0195C211.673 59.8164 209.759 61.1934 207.533 62.1504C205.326 63.1074 202.875 63.5859 200.179 63.5859C197.504 63.5859 195.052 63.1074 192.826 62.1504C190.619 61.1934 188.705 59.8164 187.084 58.0195C185.462 56.2031 184.203 54.0059 183.304 51.4277C182.425 48.8496 181.986 45.9395 181.986 42.6973V40.6758C181.986 37.4141 182.425 34.5039 183.304 31.9453C184.183 29.3672 185.423 27.1699 187.025 25.3535C188.646 23.5371 190.56 22.1504 192.767 21.1934C194.994 20.2363 197.445 19.7578 200.121 19.7578C202.816 19.7578 205.267 20.2363 207.474 21.1934C209.701 22.1504 211.615 23.5371 213.216 25.3535C214.837 27.1699 216.087 29.3672 216.966 31.9453C217.865 34.5039 218.314 37.4141 218.314 40.6758ZM209.437 42.6973V40.6172C209.437 38.3516 209.232 36.3594 208.822 34.6406C208.412 32.9219 207.806 31.4766 207.005 30.3047C206.205 29.1328 205.228 28.2539 204.076 27.668C202.923 27.0625 201.605 26.7598 200.121 26.7598C198.636 26.7598 197.318 27.0625 196.166 27.668C195.033 28.2539 194.066 29.1328 193.265 30.3047C192.484 31.4766 191.888 32.9219 191.478 34.6406C191.068 36.3594 190.863 38.3516 190.863 40.6172V42.6973C190.863 44.9434 191.068 46.9355 191.478 48.6738C191.888 50.3926 192.494 51.8477 193.295 53.0391C194.095 54.2109 195.072 55.0996 196.224 55.7051C197.377 56.3105 198.695 56.6133 200.179 56.6133C201.664 56.6133 202.982 56.3105 204.134 55.7051C205.287 55.0996 206.254 54.2109 207.035 53.0391C207.816 51.8477 208.412 50.3926 208.822 48.6738C209.232 46.9355 209.437 44.9434 209.437 42.6973ZM229.256 20.3438H236.697L247.654 51.6621L258.611 20.3438H266.053L250.643 63H244.666L229.256 20.3438ZM225.242 20.3438H232.654L234.002 50.8711V63H225.242V20.3438ZM262.654 20.3438H270.096V63H261.307V50.8711L262.654 20.3438ZM287.746 20.3438V63H278.987V20.3438H287.746ZM318.786 51.8379C318.786 51.0762 318.669 50.3926 318.434 49.7871C318.22 49.1621 317.809 48.5957 317.204 48.0879C316.598 47.5605 315.749 47.043 314.655 46.5352C313.561 46.0273 312.145 45.5 310.407 44.9531C308.473 44.3281 306.638 43.625 304.899 42.8438C303.18 42.0625 301.657 41.1543 300.329 40.1191C299.02 39.0645 297.985 37.8438 297.223 36.457C296.481 35.0703 296.11 33.459 296.11 31.623C296.11 29.8457 296.501 28.2344 297.282 26.7891C298.063 25.3242 299.157 24.0742 300.563 23.0391C301.97 21.9844 303.63 21.1738 305.544 20.6074C307.477 20.041 309.596 19.7578 311.901 19.7578C315.046 19.7578 317.79 20.3242 320.134 21.457C322.477 22.5898 324.294 24.1426 325.583 26.1152C326.891 28.0879 327.546 30.3437 327.546 32.8828H318.815C318.815 31.6328 318.552 30.5391 318.024 29.6016C317.516 28.6445 316.735 27.8926 315.68 27.3457C314.645 26.7988 313.337 26.5254 311.755 26.5254C310.231 26.5254 308.962 26.7598 307.946 27.2285C306.93 27.6777 306.169 28.293 305.661 29.0742C305.153 29.8359 304.899 30.6953 304.899 31.6523C304.899 32.375 305.075 33.0293 305.427 33.6152C305.798 34.2012 306.345 34.748 307.067 35.2559C307.79 35.7637 308.679 36.2422 309.733 36.6914C310.788 37.1406 312.009 37.5801 313.395 38.0098C315.72 38.7129 317.761 39.5039 319.518 40.3828C321.296 41.2617 322.78 42.248 323.971 43.3418C325.163 44.4355 326.061 45.6758 326.667 47.0625C327.272 48.4492 327.575 50.0215 327.575 51.7793C327.575 53.6348 327.214 55.2949 326.491 56.7598C325.768 58.2246 324.723 59.4648 323.356 60.4805C321.989 61.4961 320.358 62.2676 318.464 62.7949C316.569 63.3223 314.45 63.5859 312.106 63.5859C309.997 63.5859 307.917 63.3125 305.866 62.7656C303.815 62.1992 301.95 61.3496 300.27 60.2168C298.61 59.084 297.282 57.6387 296.286 55.8809C295.29 54.123 294.792 52.043 294.792 49.6406H303.61C303.61 50.9688 303.815 52.0918 304.225 53.0098C304.636 53.9277 305.212 54.6699 305.954 55.2363C306.716 55.8027 307.614 56.2129 308.649 56.4668C309.704 56.7207 310.856 56.8477 312.106 56.8477C313.63 56.8477 314.88 56.6328 315.856 56.2031C316.852 55.7734 317.585 55.1777 318.054 54.416C318.542 53.6543 318.786 52.7949 318.786 51.8379ZM362.599 37.7168V44.5723H340.333V37.7168H362.599ZM342.941 20.3438V63H334.152V20.3438H342.941ZM368.868 20.3438V63H360.109V20.3438H368.868ZM417.383 48.8496H426.143C425.967 51.7207 425.176 54.2695 423.77 56.4961C422.383 58.7227 420.439 60.4609 417.939 61.7109C415.459 62.9609 412.471 63.5859 408.975 63.5859C406.24 63.5859 403.789 63.1172 401.621 62.1797C399.453 61.2227 397.598 59.8555 396.055 58.0781C394.531 56.3008 393.369 54.1523 392.568 51.6328C391.768 49.1133 391.367 46.291 391.367 43.166V40.207C391.367 37.082 391.777 34.2598 392.598 31.7402C393.438 29.2012 394.629 27.043 396.172 25.2656C397.734 23.4883 399.6 22.1211 401.768 21.1641C403.936 20.207 406.357 19.7285 409.033 19.7285C412.588 19.7285 415.586 20.373 418.027 21.6621C420.488 22.9512 422.393 24.7285 423.74 26.9941C425.107 29.2598 425.928 31.8379 426.201 34.7285H417.412C417.314 33.0098 416.973 31.5547 416.387 30.3633C415.801 29.1523 414.912 28.2441 413.721 27.6387C412.549 27.0137 410.986 26.7012 409.033 26.7012C407.568 26.7012 406.289 26.9746 405.195 27.5215C404.102 28.0684 403.184 28.8984 402.441 30.0117C401.699 31.125 401.143 32.5312 400.771 34.2305C400.42 35.9102 400.244 37.8828 400.244 40.1484V43.166C400.244 45.373 400.41 47.3164 400.742 48.9961C401.074 50.6562 401.582 52.0625 402.266 53.2148C402.969 54.3477 403.867 55.207 404.961 55.793C406.074 56.3594 407.412 56.6426 408.975 56.6426C410.811 56.6426 412.324 56.3496 413.516 55.7637C414.707 55.1777 415.615 54.3086 416.24 53.1562C416.885 52.0039 417.266 50.5684 417.383 48.8496ZM467.553 40.6758V42.6973C467.553 45.9395 467.114 48.8496 466.235 51.4277C465.356 54.0059 464.116 56.2031 462.514 58.0195C460.913 59.8164 458.998 61.1934 456.772 62.1504C454.565 63.1074 452.114 63.5859 449.418 63.5859C446.743 63.5859 444.291 63.1074 442.065 62.1504C439.858 61.1934 437.944 59.8164 436.323 58.0195C434.702 56.2031 433.442 54.0059 432.543 51.4277C431.664 48.8496 431.225 45.9395 431.225 42.6973V40.6758C431.225 37.4141 431.664 34.5039 432.543 31.9453C433.422 29.3672 434.663 27.1699 436.264 25.3535C437.885 23.5371 439.799 22.1504 442.006 21.1934C444.233 20.2363 446.684 19.7578 449.36 19.7578C452.055 19.7578 454.506 20.2363 456.713 21.1934C458.94 22.1504 460.854 23.5371 462.455 25.3535C464.077 27.1699 465.327 29.3672 466.205 31.9453C467.104 34.5039 467.553 37.4141 467.553 40.6758ZM458.676 42.6973V40.6172C458.676 38.3516 458.471 36.3594 458.061 34.6406C457.651 32.9219 457.045 31.4766 456.245 30.3047C455.444 29.1328 454.467 28.2539 453.315 27.668C452.163 27.0625 450.844 26.7598 449.36 26.7598C447.875 26.7598 446.557 27.0625 445.405 27.668C444.272 28.2539 443.305 29.1328 442.504 30.3047C441.723 31.4766 441.127 32.9219 440.717 34.6406C440.307 36.3594 440.102 38.3516 440.102 40.6172V42.6973C440.102 44.9434 440.307 46.9355 440.717 48.6738C441.127 50.3926 441.733 51.8477 442.534 53.0391C443.334 54.2109 444.311 55.0996 445.463 55.7051C446.616 56.3105 447.934 56.6133 449.418 56.6133C450.903 56.6133 452.221 56.3105 453.373 55.7051C454.526 55.0996 455.493 54.2109 456.274 53.0391C457.055 51.8477 457.651 50.3926 458.061 48.6738C458.471 46.9355 458.676 44.9434 458.676 42.6973ZM498.036 20.3438H506.796V48.5273C506.796 51.8086 506.093 54.5723 504.686 56.8184C503.3 59.0645 501.376 60.7539 498.915 61.8867C496.473 63.0195 493.661 63.5859 490.477 63.5859C487.294 63.5859 484.462 63.0195 481.981 61.8867C479.52 60.7539 477.587 59.0645 476.18 56.8184C474.794 54.5723 474.1 51.8086 474.1 48.5273V20.3438H482.889V48.5273C482.889 50.4414 483.192 52.0039 483.798 53.2148C484.403 54.4258 485.272 55.3145 486.405 55.8809C487.557 56.4473 488.915 56.7305 490.477 56.7305C492.079 56.7305 493.436 56.4473 494.55 55.8809C495.682 55.3145 496.542 54.4258 497.128 53.2148C497.733 52.0039 498.036 50.4414 498.036 48.5273V20.3438ZM549.349 20.3438V63H540.56L523.421 34.4062V63H514.632V20.3438H523.421L540.589 48.9668V20.3438H549.349ZM575.789 20.3438V63H567.029V20.3438H575.789ZM588.914 20.3438V27.2285H554.109V20.3438H588.914ZM600.852 20.3438L609.758 39.7969L618.664 20.3438H628.244L614.211 47.4727V63H605.305V47.4727L591.242 20.3438H600.852Z" fill="#EFEFEF"/>
<rect x="59" y="76" width="574" height="7" fill="#2A322C"/>
<rect x="605.3" y="59" width="28" height="7" fill="#EFEFEF"/>
<rect width="7" height="80" fill="#2A322C"/>
<path d="M643.194 74.1233H632.146L632.087 68.0378H641.362C642.997 68.0378 644.336 67.8311 645.38 67.4175C646.424 66.9842 647.202 66.3639 647.714 65.5564C648.245 64.7292 648.511 63.7249 648.511 62.5432C648.511 61.204 648.255 60.1208 647.743 59.2937C647.251 58.4666 646.473 57.8659 645.41 57.4917C644.366 57.1175 643.017 56.9304 641.362 56.9304H635.218V93H626.356V49.9883H641.362C643.864 49.9883 646.099 50.2246 648.068 50.6973C650.057 51.1699 651.741 51.8888 653.12 52.8538C654.498 53.8188 655.552 55.0398 656.281 56.5168C657.009 57.9742 657.374 59.7073 657.374 61.7161C657.374 63.4885 656.97 65.1231 656.162 66.6199C655.375 68.1166 654.124 69.3376 652.411 70.283C650.717 71.2283 648.501 71.7502 645.764 71.8486L643.194 74.1233ZM642.81 93H629.723L633.18 86.0874H642.81C644.366 86.0874 645.636 85.8412 646.621 85.3489C647.605 84.8368 648.334 84.1475 648.807 83.281C649.279 82.4145 649.516 81.4199 649.516 80.2974C649.516 79.0369 649.299 77.9439 648.866 77.0183C648.452 76.0927 647.783 75.3837 646.857 74.8914C645.931 74.3793 644.71 74.1233 643.194 74.1233H634.657L634.716 68.0378H645.35L647.389 70.4307C650.008 70.3913 652.115 70.8541 653.711 71.8191C655.325 72.7644 656.497 73.9953 657.226 75.5117C657.974 77.0282 658.348 78.6529 658.348 80.386C658.348 83.1431 657.748 85.467 656.546 87.3577C655.345 89.2286 653.583 90.6367 651.259 91.582C648.954 92.5273 646.138 93 642.81 93ZM664.39 49.9883H680.431C683.72 49.9883 686.546 50.4806 688.909 51.4653C691.292 52.45 693.124 53.9074 694.404 55.8374C695.684 57.7674 696.324 60.1405 696.324 62.9568C696.324 65.261 695.93 67.2402 695.142 68.8945C694.374 70.5291 693.281 71.8979 691.863 73.0007C690.465 74.0839 688.821 74.9504 686.93 75.6003L684.124 77.0774H670.18L670.121 70.1648H680.49C682.046 70.1648 683.336 69.8891 684.36 69.3376C685.384 68.7862 686.152 68.0181 686.664 67.0334C687.196 66.0487 687.462 64.9065 687.462 63.6067C687.462 62.2281 687.206 61.0366 686.694 60.0322C686.182 59.0278 685.404 58.2598 684.36 57.728C683.316 57.1963 682.006 56.9304 680.431 56.9304H673.252V93H664.39V49.9883ZM688.437 93L678.629 73.8279L687.993 73.7688L697.919 92.5864V93H688.437ZM737.874 70.4897V72.5281C737.874 75.7973 737.431 78.7317 736.545 81.3313C735.658 83.9309 734.408 86.1465 732.793 87.978C731.178 89.7899 729.248 91.1783 727.003 92.1433C724.778 93.1083 722.306 93.5908 719.588 93.5908C716.89 93.5908 714.418 93.1083 712.173 92.1433C709.948 91.1783 708.018 89.7899 706.383 87.978C704.749 86.1465 703.478 83.9309 702.573 81.3313C701.686 78.7317 701.243 75.7973 701.243 72.5281V70.4897C701.243 67.2008 701.686 64.2664 702.573 61.6865C703.459 59.0869 704.709 56.8713 706.324 55.0398C707.959 53.2083 709.889 51.81 712.114 50.845C714.359 49.88 716.831 49.3975 719.529 49.3975C722.247 49.3975 724.718 49.88 726.944 50.845C729.189 51.81 731.119 53.2083 732.734 55.0398C734.369 56.8713 735.629 59.0869 736.515 61.6865C737.421 64.2664 737.874 67.2008 737.874 70.4897ZM728.923 72.5281V70.4307C728.923 68.1462 728.716 66.1374 728.303 64.4043C727.889 62.6712 727.279 61.2139 726.471 60.0322C725.664 58.8506 724.679 57.9644 723.517 57.3735C722.355 56.763 721.026 56.4578 719.529 56.4578C718.032 56.4578 716.703 56.763 715.541 57.3735C714.399 57.9644 713.424 58.8506 712.616 60.0322C711.829 61.2139 711.228 62.6712 710.814 64.4043C710.401 66.1374 710.194 68.1462 710.194 70.4307V72.5281C710.194 74.7929 710.401 76.8017 710.814 78.5544C711.228 80.2875 711.839 81.7547 712.646 82.9561C713.453 84.1377 714.438 85.0338 715.6 85.6443C716.762 86.2548 718.091 86.5601 719.588 86.5601C721.085 86.5601 722.414 86.2548 723.576 85.6443C724.738 85.0338 725.713 84.1377 726.501 82.9561C727.289 81.7547 727.889 80.2875 728.303 78.5544C728.716 76.8017 728.923 74.7929 728.923 72.5281ZM760.488 57.344L748.79 93H739.366L755.348 49.9883H761.345L760.488 57.344ZM770.207 93L758.48 57.344L757.534 49.9883H763.59L779.66 93H770.207ZM769.676 76.9888V83.9309H746.959V76.9888H769.676ZM796.248 93H786.884L786.943 86.0874H796.248C798.572 86.0874 800.532 85.5655 802.127 84.5217C803.722 83.4583 804.924 81.9123 805.731 79.8838C806.558 77.8553 806.972 75.4034 806.972 72.5281V70.4307C806.972 68.2249 806.735 66.2851 806.263 64.6111C805.81 62.9371 805.13 61.529 804.224 60.3867C803.318 59.2445 802.206 58.3878 800.886 57.8167C799.567 57.2258 798.05 56.9304 796.337 56.9304H786.707V49.9883H796.337C799.212 49.9883 801.841 50.4806 804.224 51.4653C806.627 52.4303 808.705 53.8188 810.458 55.6306C812.21 57.4425 813.559 59.6088 814.505 62.1296C815.47 64.6308 815.952 67.4175 815.952 70.4897V72.5281C815.952 75.5806 815.47 78.3674 814.505 80.8882C813.559 83.409 812.21 85.5754 810.458 87.3872C808.724 89.1794 806.647 90.5678 804.224 91.5525C801.822 92.5175 799.163 93 796.248 93ZM791.906 49.9883V93H783.043V49.9883H791.906ZM838.625 74.1233H827.577L827.518 68.0378H836.794C838.429 68.0378 839.768 67.8311 840.812 67.4175C841.855 66.9842 842.633 66.3639 843.145 65.5564C843.677 64.7292 843.943 63.7249 843.943 62.5432C843.943 61.204 843.687 60.1208 843.175 59.2937C842.682 58.4666 841.905 57.8659 840.841 57.4917C839.797 57.1175 838.448 56.9304 836.794 56.9304H830.649V93H821.787V49.9883H836.794C839.295 49.9883 841.53 50.2246 843.5 50.6973C845.489 51.1699 847.173 51.8888 848.551 52.8538C849.93 53.8188 850.983 55.0398 851.712 56.5168C852.441 57.9742 852.805 59.7073 852.805 61.7161C852.805 63.4885 852.401 65.1231 851.594 66.6199C850.806 68.1166 849.556 69.3376 847.842 70.283C846.149 71.2283 843.933 71.7502 841.196 71.8486L838.625 74.1233ZM838.241 93H825.155L828.611 86.0874H838.241C839.797 86.0874 841.068 85.8412 842.052 85.3489C843.037 84.8368 843.766 84.1475 844.238 83.281C844.711 82.4145 844.947 81.4199 844.947 80.2974C844.947 79.0369 844.731 77.9439 844.297 77.0183C843.884 76.0927 843.214 75.3837 842.289 74.8914C841.363 74.3793 840.142 74.1233 838.625 74.1233H830.088L830.147 68.0378H840.782L842.82 70.4307C845.44 70.3913 847.547 70.8541 849.142 71.8191C850.757 72.7644 851.929 73.9953 852.657 75.5117C853.406 77.0282 853.78 78.6529 853.78 80.386C853.78 83.1431 853.179 85.467 851.978 87.3577C850.777 89.2286 849.014 90.6367 846.69 91.582C844.386 92.5273 841.57 93 838.241 93ZM877.31 57.344L865.612 93H856.188L872.17 49.9883H878.167L877.31 57.344ZM887.029 93L875.301 57.344L874.356 49.9883H880.412L896.482 93H887.029ZM886.497 76.9888V83.9309H863.78V76.9888H886.497ZM934.871 49.9883V93H926.009L908.727 64.168V93H899.865V49.9883H908.727L926.039 78.8499V49.9883H934.871ZM955.181 93H945.817L945.876 86.0874H955.181C957.505 86.0874 959.465 85.5655 961.06 84.5217C962.655 83.4583 963.857 81.9123 964.664 79.8838C965.491 77.8553 965.905 75.4034 965.905 72.5281V70.4307C965.905 68.2249 965.668 66.2851 965.196 64.6111C964.743 62.9371 964.063 61.529 963.157 60.3867C962.251 59.2445 961.139 58.3878 959.819 57.8167C958.5 57.2258 956.983 56.9304 955.27 56.9304H945.64V49.9883H955.27C958.145 49.9883 960.774 50.4806 963.157 51.4653C965.56 52.4303 967.638 53.8188 969.391 55.6306C971.143 57.4425 972.492 59.6088 973.438 62.1296C974.403 64.6308 974.885 67.4175 974.885 70.4897V72.5281C974.885 75.5806 974.403 78.3674 973.438 80.8882C972.492 83.409 971.143 85.5754 969.391 87.3872C967.657 89.1794 965.58 90.5678 963.157 91.5525C960.755 92.5175 958.096 93 955.181 93ZM950.839 49.9883V93H941.977V49.9883H950.839Z" fill="#6E9D42"/>
</svg>
