<svg width="163" height="73" viewBox="0 0 163 73" fill="none" xmlns="http://www.w3.org/2000/svg">
<path d="M5.52 22.3C3.92 22.3 2.71 21.85 1.89 20.95C1.07 20.03 0.66 18.72 0.66 17.02V15.82H3.78V17.26C3.78 18.62 4.35 19.3 5.49 19.3C6.05 19.3 6.47 19.14 6.75 18.82C7.05 18.48 7.2 17.94 7.2 17.2C7.2 16.32 7 15.55 6.6 14.89C6.2 14.21 5.46 13.4 4.38 12.46C3.02 11.26 2.07 10.18 1.53 9.22C0.99 8.24 0.72 7.14 0.72 5.92C0.72 4.26 1.14 2.98 1.98 2.08C2.82 1.16 4.04 0.699999 5.64 0.699999C7.22 0.699999 8.41 1.16 9.21 2.08C10.03 2.98 10.44 4.28 10.44 5.98V6.85H7.32V5.77C7.32 5.05 7.18 4.53 6.9 4.21C6.62 3.87 6.21 3.7 5.67 3.7C4.57 3.7 4.02 4.37 4.02 5.71C4.02 6.47 4.22 7.18 4.62 7.84C5.04 8.5 5.79 9.3 6.87 10.24C8.25 11.44 9.2 12.53 9.72 13.51C10.24 14.49 10.5 15.64 10.5 16.96C10.5 18.68 10.07 20 9.21 20.92C8.37 21.84 7.14 22.3 5.52 22.3ZM14.9721 4H11.5221V0.999999H21.7221V4H18.2721V22H14.9721V4ZM24.4929 0.999999H28.9629L32.3829 22H29.0829L28.4829 17.83V17.89H24.7329L24.1329 22H21.0729L24.4929 0.999999ZM28.0929 15.04L26.6229 4.66H26.5629L25.1229 15.04H28.0929ZM35.187 4H31.737V0.999999H41.937V4H38.487V22H35.187V4ZM43.5347 0.999999H52.5347V4H46.8347V9.55H51.3647V12.55H46.8347V19H52.5347V22H43.5347V0.999999ZM64.0078 22.3C62.3878 22.3 61.1478 21.84 60.2878 20.92C59.4278 20 58.9978 18.7 58.9978 17.02V5.98C58.9978 4.3 59.4278 3 60.2878 2.08C61.1478 1.16 62.3878 0.699999 64.0078 0.699999C65.6278 0.699999 66.8678 1.16 67.7278 2.08C68.5878 3 69.0178 4.3 69.0178 5.98V17.02C69.0178 18.7 68.5878 20 67.7278 20.92C66.8678 21.84 65.6278 22.3 64.0078 22.3ZM64.0078 19.3C65.1478 19.3 65.7178 18.61 65.7178 17.23V5.77C65.7178 4.39 65.1478 3.7 64.0078 3.7C62.8678 3.7 62.2978 4.39 62.2978 5.77V17.23C62.2978 18.61 62.8678 19.3 64.0078 19.3ZM71.2495 0.999999H79.9795V4H74.5495V9.85H78.8095V12.85H74.5495V22H71.2495V0.999999ZM1.23 26H6.21C7.91 26 9.15 26.4 9.93 27.2C10.71 27.98 11.1 29.19 11.1 30.83V31.67C11.1 32.75 10.92 33.63 10.56 34.31C10.22 34.99 9.69 35.48 8.97 35.78V35.84C10.61 36.4 11.43 37.86 11.43 40.22V42.02C11.43 43.64 11 44.88 10.14 45.74C9.3 46.58 8.06 47 6.42 47H1.23V26ZM5.82 34.55C6.48 34.55 6.97 34.38 7.29 34.04C7.63 33.7 7.8 33.13 7.8 32.33V31.16C7.8 30.4 7.66 29.85 7.38 29.51C7.12 29.17 6.7 29 6.12 29H4.53V34.55H5.82ZM6.42 44C7 44 7.43 43.85 7.71 43.55C7.99 43.23 8.13 42.69 8.13 41.93V40.1C8.13 39.14 7.96 38.48 7.62 38.12C7.3 37.74 6.76 37.55 6 37.55H4.53V44H6.42ZM13.3589 26H16.6589V44H22.0889V47H13.3589V26ZM26.3386 26H30.8086L34.2286 47H30.9286L30.3286 42.83V42.89H26.5786L25.9786 47H22.9186L26.3386 26ZM29.9386 40.04L28.4686 29.66H28.4086L26.9686 40.04H29.9386ZM40.421 47.3C38.841 47.3 37.631 46.85 36.791 45.95C35.971 45.05 35.561 43.78 35.561 42.14V30.86C35.561 29.22 35.971 27.95 36.791 27.05C37.631 26.15 38.841 25.7 40.421 25.7C42.001 25.7 43.201 26.15 44.021 27.05C44.861 27.95 45.281 29.22 45.281 30.86V33.08H42.161V30.65C42.161 29.35 41.611 28.7 40.511 28.7C39.411 28.7 38.861 29.35 38.861 30.65V42.38C38.861 43.66 39.411 44.3 40.511 44.3C41.611 44.3 42.161 43.66 42.161 42.38V39.17H45.281V42.14C45.281 43.78 44.861 45.05 44.021 45.95C43.201 46.85 42.001 47.3 40.421 47.3ZM47.2554 26H50.5554V34.85L54.7554 26H58.0554L54.1254 33.71L58.1154 47H54.6654L51.8754 37.64L50.5554 40.31V47H47.2554V26ZM1.23 51H4.53V69H9.96V72H1.23V51ZM16.1953 72.3C14.5753 72.3 13.3353 71.84 12.4753 70.92C11.6153 70 11.1853 68.7 11.1853 67.02V55.98C11.1853 54.3 11.6153 53 12.4753 52.08C13.3353 51.16 14.5753 50.7 16.1953 50.7C17.8153 50.7 19.0553 51.16 19.9153 52.08C20.7753 53 21.2053 54.3 21.2053 55.98V67.02C21.2053 68.7 20.7753 70 19.9153 70.92C19.0553 71.84 17.8153 72.3 16.1953 72.3ZM16.1953 69.3C17.3353 69.3 17.9053 68.61 17.9053 67.23V55.77C17.9053 54.39 17.3353 53.7 16.1953 53.7C15.0553 53.7 14.4853 54.39 14.4853 55.77V67.23C14.4853 68.61 15.0553 69.3 16.1953 69.3ZM27.727 72.3C26.127 72.3 24.917 71.85 24.097 70.95C23.277 70.03 22.867 68.72 22.867 67.02V65.82H25.987V67.26C25.987 68.62 26.557 69.3 27.697 69.3C28.257 69.3 28.677 69.14 28.957 68.82C29.257 68.48 29.407 67.94 29.407 67.2C29.407 66.32 29.207 65.55 28.807 64.89C28.407 64.21 27.667 63.4 26.587 62.46C25.227 61.26 24.277 60.18 23.737 59.22C23.197 58.24 22.927 57.14 22.927 55.92C22.927 54.26 23.347 52.98 24.187 52.08C25.027 51.16 26.247 50.7 27.847 50.7C29.427 50.7 30.617 51.16 31.417 52.08C32.237 52.98 32.647 54.28 32.647 55.98V56.85H29.527V55.77C29.527 55.05 29.387 54.53 29.107 54.21C28.827 53.87 28.417 53.7 27.877 53.7C26.777 53.7 26.227 54.37 26.227 55.71C26.227 56.47 26.427 57.18 26.827 57.84C27.247 58.5 27.997 59.3 29.077 60.24C30.457 61.44 31.407 62.53 31.927 63.51C32.447 64.49 32.707 65.64 32.707 66.96C32.707 68.68 32.277 70 31.417 70.92C30.577 71.84 29.347 72.3 27.727 72.3ZM41.9538 51H46.4238L49.8438 72H46.5438L45.9438 67.83V67.89H42.1938L41.5938 72H38.5338L41.9538 51ZM45.5538 65.04L44.0838 54.66H44.0238L42.5838 65.04H45.5538ZM51.4448 51H55.5848L58.7948 63.57H58.8548V51H61.7948V72H58.4048L54.4448 56.67H54.3848V72H51.4448V51ZM68.9276 72.3C67.3276 72.3 66.1076 71.85 65.2676 70.95C64.4276 70.03 64.0076 68.72 64.0076 67.02V55.98C64.0076 54.28 64.4276 52.98 65.2676 52.08C66.1076 51.16 67.3276 50.7 68.9276 50.7C70.5276 50.7 71.7476 51.16 72.5876 52.08C73.4276 52.98 73.8476 54.28 73.8476 55.98V57.78H70.7276V55.77C70.7276 54.39 70.1576 53.7 69.0176 53.7C67.8776 53.7 67.3076 54.39 67.3076 55.77V67.26C67.3076 68.62 67.8776 69.3 69.0176 69.3C70.1576 69.3 70.7276 68.62 70.7276 67.26V63.15H69.0776V60.15H73.8476V67.02C73.8476 68.72 73.4276 70.03 72.5876 70.95C71.7476 71.85 70.5276 72.3 68.9276 72.3ZM75.9663 51H84.9663V54H79.2663V59.55H83.7963V62.55H79.2663V69H84.9663V72H75.9663V51ZM86.8648 51H90.1648V69H95.5948V72H86.8648V51ZM97.1773 51H106.177V54H100.477V59.55H105.007V62.55H100.477V69H106.177V72H97.1773V51ZM112.424 72.3C110.824 72.3 109.614 71.85 108.794 70.95C107.974 70.03 107.564 68.72 107.564 67.02V65.82H110.684V67.26C110.684 68.62 111.254 69.3 112.394 69.3C112.954 69.3 113.374 69.14 113.654 68.82C113.954 68.48 114.104 67.94 114.104 67.2C114.104 66.32 113.904 65.55 113.504 64.89C113.104 64.21 112.364 63.4 111.284 62.46C109.924 61.26 108.974 60.18 108.434 59.22C107.894 58.24 107.624 57.14 107.624 55.92C107.624 54.26 108.044 52.98 108.884 52.08C109.724 51.16 110.944 50.7 112.544 50.7C114.124 50.7 115.314 51.16 116.114 52.08C116.934 52.98 117.344 54.28 117.344 55.98V56.85H114.224V55.77C114.224 55.05 114.084 54.53 113.804 54.21C113.524 53.87 113.114 53.7 112.574 53.7C111.474 53.7 110.924 54.37 110.924 55.71C110.924 56.47 111.124 57.18 111.524 57.84C111.944 58.5 112.694 59.3 113.774 60.24C115.154 61.44 116.104 62.53 116.624 63.51C117.144 64.49 117.404 65.64 117.404 66.96C117.404 68.68 116.974 70 116.114 70.92C115.274 71.84 114.044 72.3 112.424 72.3ZM124.101 51H128.811L130.911 66.03H130.971L133.071 51H137.781V72H134.661V56.1H134.601L132.201 72H129.441L127.041 56.1H126.981V72H124.101V51ZM142.794 51H147.264L150.684 72H147.384L146.784 67.83V67.89H143.034L142.434 72H139.374L142.794 51ZM146.394 65.04L144.924 54.66H144.864L143.424 65.04H146.394ZM152.285 51H157.145C158.785 51 160.015 51.44 160.835 52.32C161.655 53.2 162.065 54.49 162.065 56.19V58.26C162.065 59.96 161.655 61.25 160.835 62.13C160.015 63.01 158.785 63.45 157.145 63.45H155.585V72H152.285V51ZM157.145 60.45C157.685 60.45 158.085 60.3 158.345 60C158.625 59.7 158.765 59.19 158.765 58.47V55.98C158.765 55.26 158.625 54.75 158.345 54.45C158.085 54.15 157.685 54 157.145 54H155.585V60.45H157.145Z" fill="white"/>
</svg>
