<svg width="409" height="38" viewBox="0 0 409 38" fill="none" xmlns="http://www.w3.org/2000/svg">
<path d="M0.204492 9.6V2H31.6045V9.6H20.5045V37H11.2045V9.6H0.204492ZM41.5662 37H33.0162V10.1H41.5662V13.1L44.5662 9.95H51.0162V17H43.1662L41.5662 18.45V37ZM59.7564 37.05L53.9064 33.6V24.85L57.7564 22.4L69.6564 21.4V17.3L68.4564 16.15H63.0064L61.8064 17.3V19.35H53.9064V13.8L60.6564 10H71.3064L78.0564 13.8V37H69.6564V34.65L66.8064 37.05H59.7564ZM62.9564 31.4H68.4564L69.6564 30.2V26.15L62.9064 26.7L61.8564 27.55V30.35L62.9564 31.4ZM91.4197 37H82.8697V10.1H91.4197V12.4L94.2697 10H101.47L107.42 13.65V37H98.8697V17.85L97.6197 16.6H92.6197L91.4197 17.8V37ZM119.665 30.4L120.615 31.35H126.215L127.215 30.4V27.4L126.265 26.5H117.515L111.765 23.35V13.75L118.565 9.95H128.515L135.215 13.75V18.4H127.365V16.65L126.365 15.75H120.765L119.815 16.65V19.75L120.765 20.6H129.465L135.215 23.8V33.3L128.515 37.15H118.515L111.765 33.3V28.75H119.665V30.4ZM148.258 6.85H139.508V0.499999H148.258V6.85ZM148.158 37H139.608V10.1H148.158V37ZM151.388 16.3V10.1H157.238V3.8H165.788V10.1H173.438V16.3H165.788V29.65L166.688 30.5H173.438V37H162.938L157.238 33.65V16.3H151.388ZM189.57 37V2H199.02V37H189.57ZM212.855 37H204.305V10.1H212.855V12.4L215.705 10H222.905L228.855 13.65V37H220.305V17.85L219.055 16.6H214.055L212.855 17.8V37ZM248.001 30.75L249.201 29.55V26.6H257.201V33.3L250.451 37.15H240.051L233.301 33.3V13.75L240.051 9.95H250.451L257.201 13.75V20.6H249.201V17.55L248.001 16.35H242.901L241.651 17.55V29.55L242.901 30.75H248.001ZM270.084 6.85H261.334V0.499999H270.084V6.85ZM269.984 37H261.434V10.1H269.984V37ZM299.564 37H290.964V34.7L288.214 37.15H280.314L274.414 33.45V13.65L280.314 10H288.214L290.964 12.45V0.499999H299.564V37ZM284.164 30.6H289.714L290.964 29.4V17.65L289.714 16.45H284.164L282.914 17.65V29.4L284.164 30.6ZM310.754 37.15L304.004 33.3V13.75L310.754 9.95H321.304L328.054 13.75V25.35H312.354V30.05L313.554 31.25H318.954L320.154 30.05V28.15H328.054V33.3L321.304 37.15H310.754ZM312.354 17.3V21H320.154V17.3L318.954 16.1H313.554L312.354 17.3ZM341.078 37H332.528V10.1H341.078V12.4L343.928 10H351.128L357.078 13.65V37H348.528V17.85L347.278 16.6H342.278L341.078 17.8V37ZM360.324 16.3V10.1H366.174V3.8H374.724V10.1H382.374V16.3H374.724V29.65L375.624 30.5H382.374V37H371.874L366.174 33.65V16.3H360.324ZM393.054 30.4L394.004 31.35H399.604L400.604 30.4V27.4L399.654 26.5H390.904L385.154 23.35V13.75L391.954 9.95H401.904L408.604 13.75V18.4H400.754V16.65L399.754 15.75H394.154L393.204 16.65V19.75L394.154 20.6H402.854L408.604 23.8V33.3L401.904 37.15H391.904L385.154 33.3V28.75H393.054V30.4Z" fill="white"/>
</svg>
