<svg width="327" height="48" viewBox="0 0 327 48" fill="none" xmlns="http://www.w3.org/2000/svg">
<path d="M0.244531 9.6V2H31.6445V9.6H20.5445V37H11.2445V9.6H0.244531ZM41.6063 37H33.0563V10.1H41.6063V13.1L44.6063 9.95H51.0563V17H43.2063L41.6063 18.45V37ZM59.7965 37.05L53.9465 33.6V24.85L57.7965 22.4L69.6965 21.4V17.3L68.4965 16.15H63.0465L61.8465 17.3V19.35H53.9465V13.8L60.6965 10H71.3465L78.0965 13.8V37H69.6965V34.65L66.8465 37.05H59.7965ZM62.9965 31.4H68.4965L69.6965 30.2V26.15L62.9465 26.7L61.8965 27.55V30.35L62.9965 31.4ZM91.4598 37H82.9098V10.1H91.4598V12.4L94.3098 10H101.51L107.46 13.65V37H98.9098V17.85L97.6598 16.6H92.6598L91.4598 17.8V37ZM119.705 30.4L120.655 31.35H126.255L127.255 30.4V27.4L126.305 26.5H117.555L111.805 23.35V13.75L118.605 9.95H128.555L135.255 13.75V18.4H127.405V16.65L126.405 15.75H120.805L119.855 16.65V19.75L120.805 20.6H129.505L135.255 23.8V33.3L128.555 37.15H118.555L111.805 33.3V28.75H119.705V30.4ZM148.298 6.85H139.548V0.499999H148.298V6.85ZM148.198 37H139.648V10.1H148.198V37ZM151.428 16.3V10.1H157.278V3.8H165.828V10.1H173.478V16.3H165.828V29.65L166.728 30.5H173.478V37H162.978L157.278 33.65V16.3H151.428ZM198.06 10.2V14.8L199.16 15.95H209.91L216.76 19.7V32.9L208.76 37.3H197.11L189.11 32.9V26.5H197.96V28.8L199.46 30.2H206.31L207.81 28.8V24.1L206.66 23H195.91L189.11 19.25V6.1L197.11 1.7H208.76L216.71 6.1V12.65H207.86V10.2L206.41 8.8H199.51L198.06 10.2ZM219.983 16.3V10.1H225.833V3.8H234.383V10.1H242.033V16.3H234.383V29.65L235.283 30.5H242.033V37H231.533L225.833 33.65V16.3H219.983ZM269.563 13.75V33.3L262.763 37.15H251.663L244.913 33.3V13.75L251.663 9.95H262.763L269.563 13.75ZM261.163 17.7L259.963 16.5H254.513L253.263 17.7V29.4L254.513 30.6H259.963L261.163 29.4V17.7ZM274.023 47.95V10.1H282.573V12.35L285.323 9.95H293.223L299.123 13.6V33.4L293.223 37.1H285.323L282.573 34.65V47.95H274.023ZM283.823 30.7H289.423L290.623 29.45V17.7L289.423 16.55H283.823L282.573 17.75V29.4L283.823 30.7ZM311.014 30.4L311.964 31.35H317.564L318.564 30.4V27.4L317.614 26.5H308.864L303.114 23.35V13.75L309.914 9.95H319.864L326.564 13.75V18.4H318.714V16.65L317.714 15.75H312.114L311.164 16.65V19.75L312.114 20.6H320.814L326.564 23.8V33.3L319.864 37.15H309.864L303.114 33.3V28.75H311.014V30.4Z" fill="white"/>
</svg>
