<svg width="316" height="55" viewBox="0 0 316 55" fill="none" xmlns="http://www.w3.org/2000/svg">
<path d="M99.5132 18.1436V21H90.0527V18.1436H99.5132ZM91.249 3.22656V21H87.5869V3.22656H91.249ZM98.2803 10.4653V13.2485H90.0527V10.4653H98.2803ZM99.501 3.22656V6.09521H90.0527V3.22656H99.501ZM108.571 17.3501C108.571 17.0978 108.498 16.87 108.351 16.6665C108.205 16.4631 107.932 16.2759 107.533 16.105C107.143 15.9259 106.577 15.7632 105.836 15.6167C105.169 15.4702 104.547 15.2871 103.969 15.0674C103.399 14.8395 102.903 14.5669 102.479 14.2495C102.064 13.9321 101.739 13.5578 101.503 13.1265C101.267 12.687 101.149 12.1865 101.149 11.625C101.149 11.0716 101.267 10.5508 101.503 10.0625C101.747 9.57422 102.093 9.1429 102.541 8.76855C102.996 8.38607 103.55 8.08903 104.201 7.87744C104.86 7.65771 105.6 7.54785 106.422 7.54785C107.57 7.54785 108.555 7.73096 109.376 8.09717C110.207 8.46338 110.841 8.96794 111.281 9.61084C111.728 10.2456 111.952 10.9699 111.952 11.7837H108.437C108.437 11.4419 108.363 11.1367 108.217 10.8682C108.078 10.5915 107.859 10.3758 107.558 10.2212C107.265 10.0584 106.882 9.97705 106.41 9.97705C106.02 9.97705 105.682 10.0462 105.397 10.1846C105.112 10.3148 104.892 10.4938 104.738 10.7217C104.591 10.9414 104.518 11.1855 104.518 11.4541C104.518 11.6576 104.559 11.8407 104.64 12.0034C104.73 12.158 104.872 12.3005 105.067 12.4307C105.263 12.5609 105.515 12.6829 105.824 12.7969C106.142 12.9027 106.532 13.0003 106.996 13.0898C107.948 13.2852 108.799 13.5415 109.547 13.8589C110.296 14.1681 110.89 14.5913 111.33 15.1284C111.769 15.6574 111.989 16.3532 111.989 17.2158C111.989 17.8018 111.859 18.3389 111.598 18.8271C111.338 19.3154 110.963 19.7427 110.475 20.1089C109.987 20.467 109.401 20.7477 108.717 20.9512C108.042 21.1465 107.281 21.2441 106.435 21.2441C105.206 21.2441 104.164 21.0244 103.31 20.585C102.463 20.1455 101.82 19.5881 101.381 18.9126C100.95 18.229 100.734 17.5291 100.734 16.813H104.066C104.083 17.2931 104.205 17.6797 104.433 17.9727C104.669 18.2656 104.966 18.4772 105.324 18.6074C105.69 18.7376 106.085 18.8027 106.508 18.8027C106.964 18.8027 107.342 18.7417 107.643 18.6196C107.944 18.4894 108.172 18.3185 108.327 18.1069C108.489 17.8872 108.571 17.6349 108.571 17.3501ZM117.787 10.6729V21H114.271V7.79199H117.58L117.787 10.6729ZM121.767 7.70654L121.706 10.9658C121.535 10.9414 121.327 10.9211 121.083 10.9048C120.847 10.8804 120.631 10.8682 120.436 10.8682C119.94 10.8682 119.508 10.9333 119.142 11.0635C118.784 11.1855 118.483 11.3687 118.239 11.6128C118.003 11.8569 117.824 12.154 117.702 12.5039C117.588 12.8538 117.523 13.2526 117.506 13.7002L116.798 13.4805C116.798 12.626 116.884 11.8407 117.055 11.1245C117.226 10.4002 117.474 9.76953 117.799 9.23242C118.133 8.69531 118.54 8.28027 119.02 7.9873C119.5 7.69434 120.049 7.54785 120.668 7.54785C120.863 7.54785 121.063 7.56413 121.266 7.59668C121.47 7.62109 121.636 7.65771 121.767 7.70654ZM127.138 7.79199V21H123.61V7.79199H127.138ZM123.39 4.34961C123.39 3.83691 123.569 3.41374 123.927 3.08008C124.285 2.74642 124.765 2.57959 125.368 2.57959C125.962 2.57959 126.438 2.74642 126.796 3.08008C127.162 3.41374 127.345 3.83691 127.345 4.34961C127.345 4.8623 127.162 5.28548 126.796 5.61914C126.438 5.9528 125.962 6.11963 125.368 6.11963C124.765 6.11963 124.285 5.9528 123.927 5.61914C123.569 5.28548 123.39 4.8623 123.39 4.34961ZM143.41 14.6646H138.881V11.8081H143.41C144.11 11.8081 144.679 11.6942 145.119 11.4663C145.558 11.2303 145.88 10.9048 146.083 10.4897C146.286 10.0747 146.388 9.60677 146.388 9.08594C146.388 8.55697 146.286 8.06462 146.083 7.60889C145.88 7.15316 145.558 6.78695 145.119 6.51025C144.679 6.23356 144.11 6.09521 143.41 6.09521H140.15V21H136.488V3.22656H143.41C144.801 3.22656 145.993 3.47884 146.986 3.9834C147.987 4.47982 148.752 5.16748 149.281 6.04639C149.81 6.92529 150.075 7.93034 150.075 9.06152C150.075 10.209 149.81 11.2018 149.281 12.04C148.752 12.8783 147.987 13.5252 146.986 13.981C145.993 14.4367 144.801 14.6646 143.41 14.6646ZM155.897 10.6729V21H152.382V7.79199H155.69L155.897 10.6729ZM159.877 7.70654L159.816 10.9658C159.645 10.9414 159.438 10.9211 159.193 10.9048C158.957 10.8804 158.742 10.8682 158.546 10.8682C158.05 10.8682 157.619 10.9333 157.252 11.0635C156.894 11.1855 156.593 11.3687 156.349 11.6128C156.113 11.8569 155.934 12.154 155.812 12.5039C155.698 12.8538 155.633 13.2526 155.617 13.7002L154.909 13.4805C154.909 12.626 154.994 11.8407 155.165 11.1245C155.336 10.4002 155.584 9.76953 155.91 9.23242C156.243 8.69531 156.65 8.28027 157.13 7.9873C157.611 7.69434 158.16 7.54785 158.778 7.54785C158.974 7.54785 159.173 7.56413 159.376 7.59668C159.58 7.62109 159.747 7.65771 159.877 7.70654ZM160.609 14.5303V14.2739C160.609 13.3055 160.748 12.4144 161.024 11.6006C161.301 10.7786 161.704 10.0666 162.233 9.46436C162.762 8.86214 163.413 8.39421 164.186 8.06055C164.959 7.71875 165.846 7.54785 166.847 7.54785C167.848 7.54785 168.739 7.71875 169.521 8.06055C170.302 8.39421 170.957 8.86214 171.486 9.46436C172.023 10.0666 172.43 10.7786 172.707 11.6006C172.983 12.4144 173.122 13.3055 173.122 14.2739V14.5303C173.122 15.4906 172.983 16.3817 172.707 17.2036C172.43 18.0174 172.023 18.7295 171.486 19.3398C170.957 19.9421 170.306 20.41 169.533 20.7437C168.76 21.0773 167.873 21.2441 166.872 21.2441C165.871 21.2441 164.979 21.0773 164.198 20.7437C163.425 20.41 162.77 19.9421 162.233 19.3398C161.704 18.7295 161.301 18.0174 161.024 17.2036C160.748 16.3817 160.609 15.4906 160.609 14.5303ZM164.125 14.2739V14.5303C164.125 15.0837 164.174 15.6004 164.271 16.0806C164.369 16.5607 164.524 16.9839 164.735 17.3501C164.955 17.7082 165.24 17.9889 165.59 18.1924C165.94 18.3958 166.367 18.4976 166.872 18.4976C167.36 18.4976 167.779 18.3958 168.129 18.1924C168.479 17.9889 168.76 17.7082 168.971 17.3501C169.183 16.9839 169.337 16.5607 169.435 16.0806C169.541 15.6004 169.594 15.0837 169.594 14.5303V14.2739C169.594 13.7368 169.541 13.2323 169.435 12.7603C169.337 12.2801 169.179 11.8569 168.959 11.4907C168.747 11.1164 168.467 10.8234 168.117 10.6118C167.767 10.4002 167.344 10.2944 166.847 10.2944C166.351 10.2944 165.928 10.4002 165.578 10.6118C165.236 10.8234 164.955 11.1164 164.735 11.4907C164.524 11.8569 164.369 12.2801 164.271 12.7603C164.174 13.2323 164.125 13.7368 164.125 14.2739ZM183.083 18.1191V2.25H186.623V21H183.437L183.083 18.1191ZM174.733 14.5547V14.2983C174.733 13.2892 174.847 12.3737 175.075 11.5518C175.303 10.7217 175.636 10.0096 176.076 9.41553C176.515 8.82145 177.056 8.36165 177.699 8.03613C178.342 7.71061 179.075 7.54785 179.896 7.54785C180.67 7.54785 181.345 7.71061 181.923 8.03613C182.509 8.36165 183.005 8.82552 183.412 9.42773C183.827 10.0218 184.161 10.7257 184.413 11.5396C184.665 12.3452 184.848 13.2282 184.962 14.1885V14.75C184.848 15.6696 184.665 16.5241 184.413 17.3135C184.161 18.1029 183.827 18.7946 183.412 19.3887C183.005 19.9746 182.509 20.4303 181.923 20.7559C181.337 21.0814 180.653 21.2441 179.872 21.2441C179.05 21.2441 178.318 21.0773 177.675 20.7437C177.04 20.41 176.503 19.9421 176.063 19.3398C175.632 18.7376 175.303 18.0296 175.075 17.2158C174.847 16.402 174.733 15.515 174.733 14.5547ZM178.249 14.2983V14.5547C178.249 15.0999 178.289 15.6086 178.371 16.0806C178.46 16.5526 178.603 16.9717 178.798 17.3379C179.001 17.696 179.262 17.9767 179.579 18.1802C179.905 18.3755 180.299 18.4731 180.763 18.4731C181.365 18.4731 181.862 18.3389 182.252 18.0703C182.643 17.7936 182.94 17.4152 183.144 16.9351C183.355 16.4549 183.477 15.9015 183.51 15.2749V13.6758C183.485 13.1631 183.412 12.7033 183.29 12.2964C183.176 11.8813 183.005 11.5273 182.777 11.2344C182.558 10.9414 182.281 10.7135 181.947 10.5508C181.622 10.388 181.235 10.3066 180.788 10.3066C180.332 10.3066 179.941 10.4124 179.616 10.624C179.29 10.8275 179.026 11.1082 178.822 11.4663C178.627 11.8244 178.48 12.2476 178.383 12.7358C178.293 13.216 178.249 13.7368 178.249 14.2983ZM197.182 17.8384V7.79199H200.697V21H197.389L197.182 17.8384ZM197.572 15.1284L198.61 15.104C198.61 15.9829 198.508 16.8008 198.305 17.5576C198.101 18.3063 197.796 18.9574 197.389 19.5107C196.982 20.056 196.47 20.4832 195.851 20.7925C195.233 21.0936 194.504 21.2441 193.666 21.2441C193.023 21.2441 192.429 21.1546 191.884 20.9756C191.347 20.7884 190.883 20.4995 190.492 20.1089C190.11 19.7101 189.809 19.2015 189.589 18.583C189.377 17.9564 189.271 17.2036 189.271 16.3247V7.79199H192.787V16.3491C192.787 16.7397 192.832 17.0693 192.921 17.3379C193.019 17.6064 193.153 17.8262 193.324 17.9971C193.495 18.168 193.694 18.29 193.922 18.3633C194.158 18.4365 194.419 18.4731 194.704 18.4731C195.428 18.4731 195.998 18.3267 196.413 18.0337C196.836 17.7407 197.133 17.342 197.304 16.8374C197.483 16.3247 197.572 15.755 197.572 15.1284ZM208.839 18.4976C209.271 18.4976 209.653 18.4162 209.987 18.2534C210.32 18.0825 210.581 17.8465 210.768 17.5454C210.963 17.2362 211.065 16.874 211.073 16.459H214.381C214.373 17.3867 214.125 18.2127 213.637 18.937C213.148 19.6532 212.493 20.2188 211.671 20.6338C210.849 21.0407 209.93 21.2441 208.913 21.2441C207.887 21.2441 206.992 21.0732 206.227 20.7314C205.47 20.3896 204.84 19.9176 204.335 19.3154C203.83 18.7051 203.452 17.9971 203.2 17.1914C202.947 16.3776 202.821 15.5068 202.821 14.5791V14.2251C202.821 13.2892 202.947 12.4185 203.2 11.6128C203.452 10.799 203.83 10.091 204.335 9.48877C204.84 8.87842 205.47 8.40234 206.227 8.06055C206.984 7.71875 207.871 7.54785 208.888 7.54785C209.971 7.54785 210.919 7.75537 211.732 8.17041C212.554 8.58545 213.197 9.17952 213.661 9.95264C214.133 10.7176 214.373 11.625 214.381 12.6748H211.073C211.065 12.2354 210.972 11.8366 210.792 11.4785C210.622 11.1204 210.369 10.8356 210.036 10.624C209.71 10.4043 209.307 10.2944 208.827 10.2944C208.314 10.2944 207.895 10.4043 207.57 10.624C207.244 10.8356 206.992 11.1286 206.813 11.5029C206.634 11.8691 206.508 12.2882 206.435 12.7603C206.369 13.2241 206.337 13.7124 206.337 14.2251V14.5791C206.337 15.0918 206.369 15.5841 206.435 16.0562C206.5 16.5282 206.622 16.9473 206.801 17.3135C206.988 17.6797 207.244 17.9686 207.57 18.1802C207.895 18.3918 208.319 18.4976 208.839 18.4976ZM222.89 7.79199V10.2822H215.199V7.79199H222.89ZM217.104 4.53271H220.619V17.0205C220.619 17.403 220.668 17.696 220.766 17.8994C220.871 18.1029 221.026 18.2453 221.229 18.3267C221.433 18.3999 221.689 18.4365 221.999 18.4365C222.218 18.4365 222.414 18.4284 222.584 18.4121C222.764 18.3877 222.914 18.3633 223.036 18.3389L223.048 20.9268C222.747 21.0244 222.422 21.1017 222.072 21.1587C221.722 21.2157 221.335 21.2441 220.912 21.2441C220.139 21.2441 219.464 21.118 218.886 20.8657C218.316 20.6053 217.877 20.1903 217.567 19.6206C217.258 19.0509 217.104 18.3022 217.104 17.3745V4.53271ZM99.0127 40.1436V43H90.0649V40.1436H99.0127ZM91.249 25.2266V43H87.5869V25.2266H91.249ZM104.604 29.792V43H101.076V29.792H104.604ZM100.856 26.3496C100.856 25.8369 101.035 25.4137 101.393 25.0801C101.751 24.7464 102.231 24.5796 102.833 24.5796C103.428 24.5796 103.904 24.7464 104.262 25.0801C104.628 25.4137 104.811 25.8369 104.811 26.3496C104.811 26.8623 104.628 27.2855 104.262 27.6191C103.904 27.9528 103.428 28.1196 102.833 28.1196C102.231 28.1196 101.751 27.9528 101.393 27.6191C101.035 27.2855 100.856 26.8623 100.856 26.3496ZM112.965 40.4976C113.397 40.4976 113.779 40.4162 114.113 40.2534C114.446 40.0825 114.707 39.8465 114.894 39.5454C115.089 39.2362 115.191 38.874 115.199 38.459H118.507C118.499 39.3867 118.251 40.2127 117.763 40.937C117.274 41.6532 116.619 42.2188 115.797 42.6338C114.975 43.0407 114.056 43.2441 113.039 43.2441C112.013 43.2441 111.118 43.0732 110.353 42.7314C109.596 42.3896 108.965 41.9176 108.461 41.3154C107.956 40.7051 107.578 39.9971 107.326 39.1914C107.073 38.3776 106.947 37.5068 106.947 36.5791V36.2251C106.947 35.2892 107.073 34.4185 107.326 33.6128C107.578 32.799 107.956 32.091 108.461 31.4888C108.965 30.8784 109.596 30.4023 110.353 30.0605C111.11 29.7188 111.997 29.5479 113.014 29.5479C114.097 29.5479 115.045 29.7554 115.858 30.1704C116.68 30.5854 117.323 31.1795 117.787 31.9526C118.259 32.7176 118.499 33.625 118.507 34.6748H115.199C115.191 34.2354 115.097 33.8366 114.918 33.4785C114.748 33.1204 114.495 32.8356 114.162 32.624C113.836 32.4043 113.433 32.2944 112.953 32.2944C112.44 32.2944 112.021 32.4043 111.696 32.624C111.37 32.8356 111.118 33.1286 110.939 33.5029C110.76 33.8691 110.634 34.2882 110.561 34.7603C110.495 35.2241 110.463 35.7124 110.463 36.2251V36.5791C110.463 37.0918 110.495 37.5841 110.561 38.0562C110.626 38.5282 110.748 38.9473 110.927 39.3135C111.114 39.6797 111.37 39.9686 111.696 40.1802C112.021 40.3918 112.444 40.4976 112.965 40.4976ZM126.625 43.2441C125.6 43.2441 124.68 43.0814 123.866 42.7559C123.052 42.4222 122.361 41.9624 121.791 41.3765C121.229 40.7905 120.798 40.111 120.497 39.3379C120.196 38.5566 120.045 37.7266 120.045 36.8477V36.3594C120.045 35.3584 120.188 34.4429 120.473 33.6128C120.757 32.7827 121.164 32.0625 121.693 31.4521C122.23 30.8418 122.882 30.3739 123.646 30.0483C124.411 29.7147 125.274 29.5479 126.234 29.5479C127.17 29.5479 128 29.7025 128.725 30.0117C129.449 30.321 130.055 30.7604 130.543 31.3301C131.04 31.8997 131.414 32.5833 131.667 33.3809C131.919 34.1702 132.045 35.0492 132.045 36.0176V37.4824H121.547V35.1387H128.59V34.8701C128.59 34.3818 128.501 33.9465 128.322 33.564C128.151 33.1733 127.89 32.8641 127.541 32.6362C127.191 32.4084 126.743 32.2944 126.198 32.2944C125.734 32.2944 125.335 32.3962 125.001 32.5996C124.668 32.8031 124.395 33.0879 124.184 33.4541C123.98 33.8203 123.826 34.2516 123.72 34.748C123.622 35.2363 123.573 35.7734 123.573 36.3594V36.8477C123.573 37.3766 123.646 37.8649 123.793 38.3125C123.948 38.7601 124.163 39.1466 124.44 39.4722C124.725 39.7977 125.067 40.05 125.465 40.229C125.872 40.408 126.332 40.4976 126.845 40.4976C127.479 40.4976 128.069 40.3755 128.615 40.1313C129.168 39.8791 129.644 39.5007 130.043 38.9961L131.752 40.8516C131.475 41.2503 131.097 41.6328 130.617 41.999C130.145 42.3652 129.575 42.6663 128.908 42.9023C128.24 43.1302 127.479 43.2441 126.625 43.2441ZM137.489 32.6118V43H133.974V29.792H137.27L137.489 32.6118ZM136.977 35.9321H136.024C136.024 34.9556 136.151 34.0767 136.403 33.2954C136.655 32.506 137.009 31.8346 137.465 31.2812C137.921 30.7197 138.462 30.2925 139.088 29.9995C139.723 29.6984 140.431 29.5479 141.212 29.5479C141.831 29.5479 142.396 29.6374 142.909 29.8164C143.422 29.9954 143.861 30.2803 144.228 30.6709C144.602 31.0615 144.887 31.5783 145.082 32.2212C145.285 32.8641 145.387 33.6494 145.387 34.5771V43H141.847V34.5649C141.847 33.979 141.766 33.5233 141.603 33.1978C141.44 32.8722 141.2 32.6444 140.883 32.5142C140.574 32.3758 140.191 32.3066 139.735 32.3066C139.263 32.3066 138.852 32.4002 138.502 32.5874C138.161 32.7746 137.876 33.035 137.648 33.3687C137.428 33.6942 137.261 34.0767 137.147 34.5161C137.034 34.9556 136.977 35.4276 136.977 35.9321ZM155.202 39.3501C155.202 39.0978 155.128 38.87 154.982 38.6665C154.835 38.4631 154.563 38.2759 154.164 38.105C153.773 37.9259 153.208 37.7632 152.467 37.6167C151.8 37.4702 151.177 37.2871 150.6 37.0674C150.03 36.8395 149.534 36.5669 149.11 36.2495C148.695 35.9321 148.37 35.5578 148.134 35.1265C147.898 34.687 147.78 34.1865 147.78 33.625C147.78 33.0716 147.898 32.5508 148.134 32.0625C148.378 31.5742 148.724 31.1429 149.171 30.7686C149.627 30.3861 150.181 30.089 150.832 29.8774C151.491 29.6577 152.231 29.5479 153.053 29.5479C154.201 29.5479 155.185 29.731 156.007 30.0972C156.837 30.4634 157.472 30.9679 157.912 31.6108C158.359 32.2456 158.583 32.9699 158.583 33.7837H155.067C155.067 33.4419 154.994 33.1367 154.848 32.8682C154.709 32.5915 154.49 32.3758 154.188 32.2212C153.896 32.0584 153.513 31.9771 153.041 31.9771C152.65 31.9771 152.313 32.0462 152.028 32.1846C151.743 32.3148 151.523 32.4938 151.369 32.7217C151.222 32.9414 151.149 33.1855 151.149 33.4541C151.149 33.6576 151.19 33.8407 151.271 34.0034C151.361 34.158 151.503 34.3005 151.698 34.4307C151.894 34.5609 152.146 34.6829 152.455 34.7969C152.772 34.9027 153.163 35.0003 153.627 35.0898C154.579 35.2852 155.43 35.5415 156.178 35.8589C156.927 36.1681 157.521 36.5913 157.96 37.1284C158.4 37.6574 158.62 38.3532 158.62 39.2158C158.62 39.8018 158.489 40.3389 158.229 40.8271C157.969 41.3154 157.594 41.7427 157.106 42.1089C156.618 42.467 156.032 42.7477 155.348 42.9512C154.673 43.1465 153.912 43.2441 153.065 43.2441C151.837 43.2441 150.795 43.0244 149.94 42.585C149.094 42.1455 148.451 41.5881 148.012 40.9126C147.58 40.229 147.365 39.5291 147.365 38.813H150.697C150.714 39.2931 150.836 39.6797 151.063 39.9727C151.299 40.2656 151.597 40.4772 151.955 40.6074C152.321 40.7376 152.715 40.8027 153.139 40.8027C153.594 40.8027 153.973 40.7417 154.274 40.6196C154.575 40.4894 154.803 40.3185 154.958 40.1069C155.12 39.8872 155.202 39.6349 155.202 39.3501ZM164.613 29.792V43H161.085V29.792H164.613ZM160.866 26.3496C160.866 25.8369 161.045 25.4137 161.403 25.0801C161.761 24.7464 162.241 24.5796 162.843 24.5796C163.437 24.5796 163.913 24.7464 164.271 25.0801C164.638 25.4137 164.821 25.8369 164.821 26.3496C164.821 26.8623 164.638 27.2855 164.271 27.6191C163.913 27.9528 163.437 28.1196 162.843 28.1196C162.241 28.1196 161.761 27.9528 161.403 27.6191C161.045 27.2855 160.866 26.8623 160.866 26.3496ZM170.961 32.6118V43H167.445V29.792H170.741L170.961 32.6118ZM170.448 35.9321H169.496C169.496 34.9556 169.622 34.0767 169.875 33.2954C170.127 32.506 170.481 31.8346 170.937 31.2812C171.392 30.7197 171.933 30.2925 172.56 29.9995C173.195 29.6984 173.903 29.5479 174.684 29.5479C175.303 29.5479 175.868 29.6374 176.381 29.8164C176.894 29.9954 177.333 30.2803 177.699 30.6709C178.074 31.0615 178.358 31.5783 178.554 32.2212C178.757 32.8641 178.859 33.6494 178.859 34.5771V43H175.319V34.5649C175.319 33.979 175.237 33.5233 175.075 33.1978C174.912 32.8722 174.672 32.6444 174.354 32.5142C174.045 32.3758 173.663 32.3066 173.207 32.3066C172.735 32.3066 172.324 32.4002 171.974 32.5874C171.632 32.7746 171.347 33.035 171.12 33.3687C170.9 33.6942 170.733 34.0767 170.619 34.5161C170.505 34.9556 170.448 35.4276 170.448 35.9321ZM189.894 29.792H193.08V42.5605C193.08 43.765 192.812 44.7863 192.274 45.6245C191.745 46.4709 191.005 47.1097 190.053 47.541C189.101 47.9805 187.994 48.2002 186.732 48.2002C186.179 48.2002 185.593 48.127 184.975 47.9805C184.364 47.834 183.778 47.6061 183.217 47.2969C182.663 46.9876 182.2 46.597 181.825 46.125L183.375 44.0498C183.782 44.5218 184.254 44.888 184.792 45.1484C185.329 45.417 185.923 45.5513 186.574 45.5513C187.208 45.5513 187.746 45.4333 188.185 45.1973C188.625 44.9694 188.962 44.6317 189.198 44.1841C189.434 43.7446 189.552 43.2116 189.552 42.585V32.8438L189.894 29.792ZM181.007 36.5547V36.2983C181.007 35.2892 181.129 34.3737 181.374 33.5518C181.626 32.7217 181.98 32.0096 182.436 31.4155C182.899 30.8215 183.461 30.3617 184.12 30.0361C184.779 29.7106 185.524 29.5479 186.354 29.5479C187.233 29.5479 187.969 29.7106 188.563 30.0361C189.158 30.3617 189.646 30.8255 190.028 31.4277C190.411 32.0218 190.708 32.7257 190.919 33.5396C191.139 34.3452 191.31 35.2282 191.432 36.1885V36.75C191.31 37.6696 191.127 38.5241 190.883 39.3135C190.639 40.1029 190.317 40.7946 189.918 41.3887C189.52 41.9746 189.023 42.4303 188.429 42.7559C187.843 43.0814 187.143 43.2441 186.33 43.2441C185.516 43.2441 184.779 43.0773 184.12 42.7437C183.469 42.41 182.912 41.9421 182.448 41.3398C181.984 40.7376 181.626 40.0296 181.374 39.2158C181.129 38.402 181.007 37.515 181.007 36.5547ZM184.523 36.2983V36.5547C184.523 37.0999 184.576 37.6086 184.682 38.0806C184.787 38.5526 184.95 38.9717 185.17 39.3379C185.398 39.696 185.679 39.9767 186.012 40.1802C186.354 40.3755 186.757 40.4731 187.221 40.4731C187.864 40.4731 188.389 40.3389 188.795 40.0703C189.202 39.7936 189.507 39.4152 189.711 38.9351C189.914 38.4549 190.032 37.9015 190.065 37.2749V35.6758C190.049 35.1631 189.979 34.7033 189.857 34.2964C189.735 33.8813 189.564 33.5273 189.345 33.2344C189.125 32.9414 188.84 32.7135 188.49 32.5508C188.14 32.388 187.725 32.3066 187.245 32.3066C186.781 32.3066 186.378 32.4124 186.037 32.624C185.703 32.8275 185.422 33.1082 185.194 33.4663C184.975 33.8244 184.808 34.2476 184.694 34.7358C184.58 35.216 184.523 35.7368 184.523 36.2983ZM206.154 25.2266V43H202.504V25.2266H206.154ZM212.807 32.6118V43H209.291V29.792H212.587L212.807 32.6118ZM212.294 35.9321H211.342C211.342 34.9556 211.468 34.0767 211.72 33.2954C211.972 32.506 212.326 31.8346 212.782 31.2812C213.238 30.7197 213.779 30.2925 214.406 29.9995C215.041 29.6984 215.749 29.5479 216.53 29.5479C217.148 29.5479 217.714 29.6374 218.227 29.8164C218.739 29.9954 219.179 30.2803 219.545 30.6709C219.919 31.0615 220.204 31.5783 220.399 32.2212C220.603 32.8641 220.705 33.6494 220.705 34.5771V43H217.165V34.5649C217.165 33.979 217.083 33.5233 216.92 33.1978C216.758 32.8722 216.518 32.6444 216.2 32.5142C215.891 32.3758 215.508 32.3066 215.053 32.3066C214.581 32.3066 214.17 32.4002 213.82 32.5874C213.478 32.7746 213.193 33.035 212.965 33.3687C212.746 33.6942 212.579 34.0767 212.465 34.5161C212.351 34.9556 212.294 35.4276 212.294 35.9321ZM227.87 40.4365L230.8 29.792H234.474L230.019 43H227.797L227.87 40.4365ZM225.856 29.792L228.798 40.4487L228.859 43H226.625L222.169 29.792H225.856ZM241.957 43.2441C240.932 43.2441 240.012 43.0814 239.198 42.7559C238.384 42.4222 237.693 41.9624 237.123 41.3765C236.562 40.7905 236.13 40.111 235.829 39.3379C235.528 38.5566 235.377 37.7266 235.377 36.8477V36.3594C235.377 35.3584 235.52 34.4429 235.805 33.6128C236.09 32.7827 236.496 32.0625 237.025 31.4521C237.562 30.8418 238.214 30.3739 238.979 30.0483C239.743 29.7147 240.606 29.5479 241.566 29.5479C242.502 29.5479 243.332 29.7025 244.057 30.0117C244.781 30.321 245.387 30.7604 245.875 31.3301C246.372 31.8997 246.746 32.5833 246.999 33.3809C247.251 34.1702 247.377 35.0492 247.377 36.0176V37.4824H236.879V35.1387H243.922V34.8701C243.922 34.3818 243.833 33.9465 243.654 33.564C243.483 33.1733 243.222 32.8641 242.873 32.6362C242.523 32.4084 242.075 32.2944 241.53 32.2944C241.066 32.2944 240.667 32.3962 240.333 32.5996C240 32.8031 239.727 33.0879 239.516 33.4541C239.312 33.8203 239.158 34.2516 239.052 34.748C238.954 35.2363 238.905 35.7734 238.905 36.3594V36.8477C238.905 37.3766 238.979 37.8649 239.125 38.3125C239.28 38.7601 239.495 39.1466 239.772 39.4722C240.057 39.7977 240.399 40.05 240.797 40.229C241.204 40.408 241.664 40.4976 242.177 40.4976C242.812 40.4976 243.402 40.3755 243.947 40.1313C244.5 39.8791 244.976 39.5007 245.375 38.9961L247.084 40.8516C246.807 41.2503 246.429 41.6328 245.949 41.999C245.477 42.3652 244.907 42.6663 244.24 42.9023C243.572 43.1302 242.812 43.2441 241.957 43.2441ZM252.821 32.6118V43H249.306V29.792H252.602L252.821 32.6118ZM252.309 35.9321H251.356C251.356 34.9556 251.483 34.0767 251.735 33.2954C251.987 32.506 252.341 31.8346 252.797 31.2812C253.253 30.7197 253.794 30.2925 254.42 29.9995C255.055 29.6984 255.763 29.5479 256.544 29.5479C257.163 29.5479 257.729 29.6374 258.241 29.8164C258.754 29.9954 259.193 30.2803 259.56 30.6709C259.934 31.0615 260.219 31.5783 260.414 32.2212C260.618 32.8641 260.719 33.6494 260.719 34.5771V43H257.179V34.5649C257.179 33.979 257.098 33.5233 256.935 33.1978C256.772 32.8722 256.532 32.6444 256.215 32.5142C255.906 32.3758 255.523 32.3066 255.067 32.3066C254.595 32.3066 254.184 32.4002 253.834 32.5874C253.493 32.7746 253.208 33.035 252.98 33.3687C252.76 33.6942 252.593 34.0767 252.479 34.5161C252.366 34.9556 252.309 35.4276 252.309 35.9321ZM269.862 29.792V32.2822H262.172V29.792H269.862ZM264.076 26.5327H267.592V39.0205C267.592 39.403 267.641 39.696 267.738 39.8994C267.844 40.1029 267.999 40.2453 268.202 40.3267C268.406 40.3999 268.662 40.4365 268.971 40.4365C269.191 40.4365 269.386 40.4284 269.557 40.4121C269.736 40.3877 269.887 40.3633 270.009 40.3389L270.021 42.9268C269.72 43.0244 269.394 43.1017 269.044 43.1587C268.694 43.2157 268.308 43.2441 267.885 43.2441C267.112 43.2441 266.436 43.118 265.858 42.8657C265.289 42.6053 264.849 42.1903 264.54 41.6206C264.231 41.0509 264.076 40.3022 264.076 39.3745V26.5327ZM270.985 36.5303V36.2739C270.985 35.3055 271.124 34.4144 271.4 33.6006C271.677 32.7786 272.08 32.0666 272.609 31.4644C273.138 30.8621 273.789 30.3942 274.562 30.0605C275.335 29.7188 276.222 29.5479 277.223 29.5479C278.224 29.5479 279.115 29.7188 279.896 30.0605C280.678 30.3942 281.333 30.8621 281.862 31.4644C282.399 32.0666 282.806 32.7786 283.083 33.6006C283.359 34.4144 283.498 35.3055 283.498 36.2739V36.5303C283.498 37.4906 283.359 38.3817 283.083 39.2036C282.806 40.0174 282.399 40.7295 281.862 41.3398C281.333 41.9421 280.682 42.41 279.909 42.7437C279.136 43.0773 278.249 43.2441 277.248 43.2441C276.247 43.2441 275.355 43.0773 274.574 42.7437C273.801 42.41 273.146 41.9421 272.609 41.3398C272.08 40.7295 271.677 40.0174 271.4 39.2036C271.124 38.3817 270.985 37.4906 270.985 36.5303ZM274.501 36.2739V36.5303C274.501 37.0837 274.55 37.6004 274.647 38.0806C274.745 38.5607 274.9 38.9839 275.111 39.3501C275.331 39.7082 275.616 39.9889 275.966 40.1924C276.316 40.3958 276.743 40.4976 277.248 40.4976C277.736 40.4976 278.155 40.3958 278.505 40.1924C278.855 39.9889 279.136 39.7082 279.347 39.3501C279.559 38.9839 279.713 38.5607 279.811 38.0806C279.917 37.6004 279.97 37.0837 279.97 36.5303V36.2739C279.97 35.7368 279.917 35.2323 279.811 34.7603C279.713 34.2801 279.555 33.8569 279.335 33.4907C279.123 33.1164 278.843 32.8234 278.493 32.6118C278.143 32.4002 277.72 32.2944 277.223 32.2944C276.727 32.2944 276.304 32.4002 275.954 32.6118C275.612 32.8234 275.331 33.1164 275.111 33.4907C274.9 33.8569 274.745 34.2801 274.647 34.7603C274.55 35.2323 274.501 35.7368 274.501 36.2739ZM289.174 32.6729V43H285.658V29.792H288.966L289.174 32.6729ZM293.153 29.7065L293.092 32.9658C292.921 32.9414 292.714 32.9211 292.47 32.9048C292.234 32.8804 292.018 32.8682 291.823 32.8682C291.326 32.8682 290.895 32.9333 290.529 33.0635C290.171 33.1855 289.87 33.3687 289.625 33.6128C289.389 33.8569 289.21 34.154 289.088 34.5039C288.974 34.8538 288.909 35.2526 288.893 35.7002L288.185 35.4805C288.185 34.626 288.271 33.8407 288.441 33.1245C288.612 32.4002 288.861 31.7695 289.186 31.2324C289.52 30.6953 289.927 30.2803 290.407 29.9873C290.887 29.6943 291.436 29.5479 292.055 29.5479C292.25 29.5479 292.449 29.5641 292.653 29.5967C292.856 29.6211 293.023 29.6577 293.153 29.7065ZM298.952 41.5107L302.455 29.792H306.227L300.917 44.9897C300.803 45.3234 300.648 45.6815 300.453 46.064C300.266 46.4465 300.01 46.8086 299.684 47.1504C299.367 47.5003 298.964 47.7852 298.476 48.0049C297.995 48.2246 297.405 48.3345 296.706 48.3345C296.372 48.3345 296.099 48.3141 295.888 48.2734C295.676 48.2327 295.424 48.1758 295.131 48.1025V45.5269C295.22 45.5269 295.314 45.5269 295.412 45.5269C295.509 45.535 295.603 45.5391 295.692 45.5391C296.156 45.5391 296.535 45.4862 296.828 45.3804C297.121 45.2746 297.357 45.1118 297.536 44.8921C297.715 44.6805 297.857 44.4038 297.963 44.062L298.952 41.5107ZM297.487 29.792L300.355 39.3623L300.856 43.0854L298.463 43.3418L293.715 29.792H297.487Z" fill="white"/>
<g clip-path="url(#clip0_114_104)">
<path d="M16.7889 2.23659L16.6933 16.1042C16.6933 21.8677 13.5428 24.1043 9.30033 24.1043C5.64663 24.1043 1.00653 22.3435 1.00653 16.3393V2.23659C0.991902 1.90394 0.88912 1.58297 0.710551 1.31231C0.531983 1.04164 0.285235 0.832808 0 0.710938H5.98885C5.71121 0.838233 5.47329 1.04991 5.30368 1.32054C5.13406 1.59117 5.03994 1.90926 5.03264 2.23659V16.4541C5.03264 18.8274 5.78251 22.1849 9.83882 22.1849C13.5529 22.1849 14.8715 19.5382 14.8715 16.1698L14.8211 2.23659C14.8308 1.92142 14.7567 1.60989 14.6076 1.33931C14.4586 1.06873 14.2409 0.850566 13.9807 0.710938H17.6143C17.3568 0.852898 17.1423 1.07206 16.996 1.34246C16.8497 1.61286 16.7778 1.92316 16.7889 2.23659Z" fill="white"/>
<path d="M25.2387 24.1041C23.1515 24.0767 21.0996 23.5146 19.2499 22.4636L19.0939 16.7329C19.6877 19.1389 21.5599 22.3269 24.8059 22.3269C27.8909 22.3269 28.832 19.9209 28.832 18.2585C28.832 14.9776 26.1194 14.562 23.2961 12.8996C20.4728 11.2373 19.1744 9.33977 19.1744 6.7642C19.1543 2.18725 23.12 0.33897 25.9584 0.33897C27.5992 0.33122 29.2167 0.761213 30.669 1.59121L30.825 6.61109C30.3871 4.81203 28.6106 2.09976 25.6162 2.09976C23.2408 2.09976 22.3047 3.89882 22.3047 5.38073C22.3047 7.44774 23.6484 8.22423 26.5824 9.68427C29.5165 11.1443 32.5109 12.2708 32.5109 16.9844C32.5109 21.2223 29.0786 24.1041 25.2387 24.1041Z" fill="white"/>
<path d="M42.5862 23.7652H34.5692C34.8207 23.617 35.0295 23.3959 35.1725 23.1267C35.3155 22.8574 35.3872 22.5504 35.3795 22.2396V2.23659C35.3919 1.92489 35.3223 1.6158 35.1788 1.34558C35.0353 1.07535 34.8238 0.8552 34.5692 0.710938H42.868C53.1346 0.710938 55.193 8.61261 55.193 11.899C55.193 17.7993 51.0109 23.7652 42.5862 23.7652ZM42.2138 2.40611C41.4639 2.40611 39.8082 2.40611 39.3402 2.47719V22.0044H41.8565C48.9022 22.0044 50.875 16.8478 50.875 11.899C50.8548 7.83064 48.6707 2.40611 42.2138 2.40611Z" fill="white"/>
<path d="M67.3216 23.7652C68.1369 23.2894 68.2929 22.8191 68.0715 22.1247C67.9809 21.7856 67.1656 19.7186 66.295 17.4165H58.6504C57.9948 18.9413 57.4119 20.5018 56.9041 22.0919C56.6222 22.9066 56.7783 23.3824 57.6187 23.787H53.3158C53.9392 23.405 54.4478 22.8353 54.7803 22.1465C55.359 20.8178 63.5774 0 63.5774 0C63.5774 0 71.8812 20.8178 72.4398 22.1028C72.5835 22.4772 72.7959 22.8158 73.0642 23.0979C73.3324 23.38 73.6509 23.5996 74 23.7433L67.3216 23.7652ZM62.4048 7.32203C62.4048 7.32203 60.281 13.0856 59.2845 15.6284H65.5753C64.1108 11.8662 62.4048 7.32203 62.4048 7.32203Z" fill="white"/>
<path d="M73.064 27.0244C73.064 27.0244 27.6796 25.7995 0.765015 41.3677C0.765015 41.3677 29.2649 29.1242 73.064 30.3491V27.0244Z" fill="white"/>
<path d="M0.765015 27.0242C0.765015 27.0242 16.0643 27.1992 25.5609 31.0488C25.5609 31.0488 6.07949 29.299 0.765015 30.1739V27.0242Z" fill="white"/>
<path d="M0.765015 32.4487C0.765015 32.4487 11.716 31.9019 18.3189 32.6237C18.3189 32.6237 2.37546 34.7235 0.765015 35.5984V32.4487Z" fill="white"/>
<path d="M65.5401 32.9847H65.3036C52.103 33.2636 24.4134 34.997 0.775024 44.0689V55.0055H73.074V32.9847C73.074 32.9847 70.2658 32.8917 65.5401 32.9847Z" fill="white"/>
</g>
<defs>
<clipPath id="clip0_114_104">
<rect width="74" height="55" fill="white"/>
</clipPath>
</defs>
</svg>
