<svg width="331" height="55" viewBox="0 0 331 55" fill="none" xmlns="http://www.w3.org/2000/svg">
<path d="M114.513 18.1436V21H105.053V18.1436H114.513ZM106.249 3.22656V21H102.587V3.22656H106.249ZM113.28 10.4653V13.2485H105.053V10.4653H113.28ZM114.501 3.22656V6.09521H105.053V3.22656H114.501ZM123.571 17.3501C123.571 17.0978 123.498 16.87 123.351 16.6665C123.205 16.4631 122.932 16.2759 122.533 16.105C122.143 15.9259 121.577 15.7632 120.836 15.6167C120.169 15.4702 119.547 15.2871 118.969 15.0674C118.399 14.8395 117.903 14.5669 117.479 14.2495C117.064 13.9321 116.739 13.5578 116.503 13.1265C116.267 12.687 116.149 12.1865 116.149 11.625C116.149 11.0716 116.267 10.5508 116.503 10.0625C116.747 9.57422 117.093 9.1429 117.541 8.76855C117.996 8.38607 118.55 8.08903 119.201 7.87744C119.86 7.65771 120.6 7.54785 121.422 7.54785C122.57 7.54785 123.555 7.73096 124.376 8.09717C125.207 8.46338 125.841 8.96794 126.281 9.61084C126.728 10.2456 126.952 10.9699 126.952 11.7837H123.437C123.437 11.4419 123.363 11.1367 123.217 10.8682C123.078 10.5915 122.859 10.3758 122.558 10.2212C122.265 10.0584 121.882 9.97705 121.41 9.97705C121.02 9.97705 120.682 10.0462 120.397 10.1846C120.112 10.3148 119.892 10.4938 119.738 10.7217C119.591 10.9414 119.518 11.1855 119.518 11.4541C119.518 11.6576 119.559 11.8407 119.64 12.0034C119.73 12.158 119.872 12.3005 120.067 12.4307C120.263 12.5609 120.515 12.6829 120.824 12.7969C121.142 12.9027 121.532 13.0003 121.996 13.0898C122.948 13.2852 123.799 13.5415 124.547 13.8589C125.296 14.1681 125.89 14.5913 126.33 15.1284C126.769 15.6574 126.989 16.3532 126.989 17.2158C126.989 17.8018 126.859 18.3389 126.598 18.8271C126.338 19.3154 125.963 19.7427 125.475 20.1089C124.987 20.467 124.401 20.7477 123.717 20.9512C123.042 21.1465 122.281 21.2441 121.435 21.2441C120.206 21.2441 119.164 21.0244 118.31 20.585C117.463 20.1455 116.82 19.5881 116.381 18.9126C115.95 18.229 115.734 17.5291 115.734 16.813H119.066C119.083 17.2931 119.205 17.6797 119.433 17.9727C119.669 18.2656 119.966 18.4772 120.324 18.6074C120.69 18.7376 121.085 18.8027 121.508 18.8027C121.964 18.8027 122.342 18.7417 122.643 18.6196C122.944 18.4894 123.172 18.3185 123.327 18.1069C123.489 17.8872 123.571 17.6349 123.571 17.3501ZM132.787 10.6729V21H129.271V7.79199H132.58L132.787 10.6729ZM136.767 7.70654L136.706 10.9658C136.535 10.9414 136.327 10.9211 136.083 10.9048C135.847 10.8804 135.631 10.8682 135.436 10.8682C134.94 10.8682 134.508 10.9333 134.142 11.0635C133.784 11.1855 133.483 11.3687 133.239 11.6128C133.003 11.8569 132.824 12.154 132.702 12.5039C132.588 12.8538 132.523 13.2526 132.506 13.7002L131.798 13.4805C131.798 12.626 131.884 11.8407 132.055 11.1245C132.226 10.4002 132.474 9.76953 132.799 9.23242C133.133 8.69531 133.54 8.28027 134.02 7.9873C134.5 7.69434 135.049 7.54785 135.668 7.54785C135.863 7.54785 136.063 7.56413 136.266 7.59668C136.47 7.62109 136.636 7.65771 136.767 7.70654ZM142.138 7.79199V21H138.61V7.79199H142.138ZM138.39 4.34961C138.39 3.83691 138.569 3.41374 138.927 3.08008C139.285 2.74642 139.765 2.57959 140.368 2.57959C140.962 2.57959 141.438 2.74642 141.796 3.08008C142.162 3.41374 142.345 3.83691 142.345 4.34961C142.345 4.8623 142.162 5.28548 141.796 5.61914C141.438 5.9528 140.962 6.11963 140.368 6.11963C139.765 6.11963 139.285 5.9528 138.927 5.61914C138.569 5.28548 138.39 4.8623 138.39 4.34961ZM158.41 14.6646H153.881V11.8081H158.41C159.11 11.8081 159.679 11.6942 160.119 11.4663C160.558 11.2303 160.88 10.9048 161.083 10.4897C161.286 10.0747 161.388 9.60677 161.388 9.08594C161.388 8.55697 161.286 8.06462 161.083 7.60889C160.88 7.15316 160.558 6.78695 160.119 6.51025C159.679 6.23356 159.11 6.09521 158.41 6.09521H155.15V21H151.488V3.22656H158.41C159.801 3.22656 160.993 3.47884 161.986 3.9834C162.987 4.47982 163.752 5.16748 164.281 6.04639C164.81 6.92529 165.075 7.93034 165.075 9.06152C165.075 10.209 164.81 11.2018 164.281 12.04C163.752 12.8783 162.987 13.5252 161.986 13.981C160.993 14.4367 159.801 14.6646 158.41 14.6646ZM170.897 10.6729V21H167.382V7.79199H170.69L170.897 10.6729ZM174.877 7.70654L174.816 10.9658C174.645 10.9414 174.438 10.9211 174.193 10.9048C173.957 10.8804 173.742 10.8682 173.546 10.8682C173.05 10.8682 172.619 10.9333 172.252 11.0635C171.894 11.1855 171.593 11.3687 171.349 11.6128C171.113 11.8569 170.934 12.154 170.812 12.5039C170.698 12.8538 170.633 13.2526 170.617 13.7002L169.909 13.4805C169.909 12.626 169.994 11.8407 170.165 11.1245C170.336 10.4002 170.584 9.76953 170.91 9.23242C171.243 8.69531 171.65 8.28027 172.13 7.9873C172.611 7.69434 173.16 7.54785 173.778 7.54785C173.974 7.54785 174.173 7.56413 174.376 7.59668C174.58 7.62109 174.747 7.65771 174.877 7.70654ZM175.609 14.5303V14.2739C175.609 13.3055 175.748 12.4144 176.024 11.6006C176.301 10.7786 176.704 10.0666 177.233 9.46436C177.762 8.86214 178.413 8.39421 179.186 8.06055C179.959 7.71875 180.846 7.54785 181.847 7.54785C182.848 7.54785 183.739 7.71875 184.521 8.06055C185.302 8.39421 185.957 8.86214 186.486 9.46436C187.023 10.0666 187.43 10.7786 187.707 11.6006C187.983 12.4144 188.122 13.3055 188.122 14.2739V14.5303C188.122 15.4906 187.983 16.3817 187.707 17.2036C187.43 18.0174 187.023 18.7295 186.486 19.3398C185.957 19.9421 185.306 20.41 184.533 20.7437C183.76 21.0773 182.873 21.2441 181.872 21.2441C180.871 21.2441 179.979 21.0773 179.198 20.7437C178.425 20.41 177.77 19.9421 177.233 19.3398C176.704 18.7295 176.301 18.0174 176.024 17.2036C175.748 16.3817 175.609 15.4906 175.609 14.5303ZM179.125 14.2739V14.5303C179.125 15.0837 179.174 15.6004 179.271 16.0806C179.369 16.5607 179.524 16.9839 179.735 17.3501C179.955 17.7082 180.24 17.9889 180.59 18.1924C180.94 18.3958 181.367 18.4976 181.872 18.4976C182.36 18.4976 182.779 18.3958 183.129 18.1924C183.479 17.9889 183.76 17.7082 183.971 17.3501C184.183 16.9839 184.337 16.5607 184.435 16.0806C184.541 15.6004 184.594 15.0837 184.594 14.5303V14.2739C184.594 13.7368 184.541 13.2323 184.435 12.7603C184.337 12.2801 184.179 11.8569 183.959 11.4907C183.747 11.1164 183.467 10.8234 183.117 10.6118C182.767 10.4002 182.344 10.2944 181.847 10.2944C181.351 10.2944 180.928 10.4002 180.578 10.6118C180.236 10.8234 179.955 11.1164 179.735 11.4907C179.524 11.8569 179.369 12.2801 179.271 12.7603C179.174 13.2323 179.125 13.7368 179.125 14.2739ZM198.083 18.1191V2.25H201.623V21H198.437L198.083 18.1191ZM189.733 14.5547V14.2983C189.733 13.2892 189.847 12.3737 190.075 11.5518C190.303 10.7217 190.636 10.0096 191.076 9.41553C191.515 8.82145 192.056 8.36165 192.699 8.03613C193.342 7.71061 194.075 7.54785 194.896 7.54785C195.67 7.54785 196.345 7.71061 196.923 8.03613C197.509 8.36165 198.005 8.82552 198.412 9.42773C198.827 10.0218 199.161 10.7257 199.413 11.5396C199.665 12.3452 199.848 13.2282 199.962 14.1885V14.75C199.848 15.6696 199.665 16.5241 199.413 17.3135C199.161 18.1029 198.827 18.7946 198.412 19.3887C198.005 19.9746 197.509 20.4303 196.923 20.7559C196.337 21.0814 195.653 21.2441 194.872 21.2441C194.05 21.2441 193.318 21.0773 192.675 20.7437C192.04 20.41 191.503 19.9421 191.063 19.3398C190.632 18.7376 190.303 18.0296 190.075 17.2158C189.847 16.402 189.733 15.515 189.733 14.5547ZM193.249 14.2983V14.5547C193.249 15.0999 193.289 15.6086 193.371 16.0806C193.46 16.5526 193.603 16.9717 193.798 17.3379C194.001 17.696 194.262 17.9767 194.579 18.1802C194.905 18.3755 195.299 18.4731 195.763 18.4731C196.365 18.4731 196.862 18.3389 197.252 18.0703C197.643 17.7936 197.94 17.4152 198.144 16.9351C198.355 16.4549 198.477 15.9015 198.51 15.2749V13.6758C198.485 13.1631 198.412 12.7033 198.29 12.2964C198.176 11.8813 198.005 11.5273 197.777 11.2344C197.558 10.9414 197.281 10.7135 196.947 10.5508C196.622 10.388 196.235 10.3066 195.788 10.3066C195.332 10.3066 194.941 10.4124 194.616 10.624C194.29 10.8275 194.026 11.1082 193.822 11.4663C193.627 11.8244 193.48 12.2476 193.383 12.7358C193.293 13.216 193.249 13.7368 193.249 14.2983ZM212.182 17.8384V7.79199H215.697V21H212.389L212.182 17.8384ZM212.572 15.1284L213.61 15.104C213.61 15.9829 213.508 16.8008 213.305 17.5576C213.101 18.3063 212.796 18.9574 212.389 19.5107C211.982 20.056 211.47 20.4832 210.851 20.7925C210.233 21.0936 209.504 21.2441 208.666 21.2441C208.023 21.2441 207.429 21.1546 206.884 20.9756C206.347 20.7884 205.883 20.4995 205.492 20.1089C205.11 19.7101 204.809 19.2015 204.589 18.583C204.377 17.9564 204.271 17.2036 204.271 16.3247V7.79199H207.787V16.3491C207.787 16.7397 207.832 17.0693 207.921 17.3379C208.019 17.6064 208.153 17.8262 208.324 17.9971C208.495 18.168 208.694 18.29 208.922 18.3633C209.158 18.4365 209.419 18.4731 209.704 18.4731C210.428 18.4731 210.998 18.3267 211.413 18.0337C211.836 17.7407 212.133 17.342 212.304 16.8374C212.483 16.3247 212.572 15.755 212.572 15.1284ZM223.839 18.4976C224.271 18.4976 224.653 18.4162 224.987 18.2534C225.32 18.0825 225.581 17.8465 225.768 17.5454C225.963 17.2362 226.065 16.874 226.073 16.459H229.381C229.373 17.3867 229.125 18.2127 228.637 18.937C228.148 19.6532 227.493 20.2188 226.671 20.6338C225.849 21.0407 224.93 21.2441 223.913 21.2441C222.887 21.2441 221.992 21.0732 221.227 20.7314C220.47 20.3896 219.84 19.9176 219.335 19.3154C218.83 18.7051 218.452 17.9971 218.2 17.1914C217.947 16.3776 217.821 15.5068 217.821 14.5791V14.2251C217.821 13.2892 217.947 12.4185 218.2 11.6128C218.452 10.799 218.83 10.091 219.335 9.48877C219.84 8.87842 220.47 8.40234 221.227 8.06055C221.984 7.71875 222.871 7.54785 223.888 7.54785C224.971 7.54785 225.919 7.75537 226.732 8.17041C227.554 8.58545 228.197 9.17952 228.661 9.95264C229.133 10.7176 229.373 11.625 229.381 12.6748H226.073C226.065 12.2354 225.972 11.8366 225.792 11.4785C225.622 11.1204 225.369 10.8356 225.036 10.624C224.71 10.4043 224.307 10.2944 223.827 10.2944C223.314 10.2944 222.895 10.4043 222.57 10.624C222.244 10.8356 221.992 11.1286 221.813 11.5029C221.634 11.8691 221.508 12.2882 221.435 12.7603C221.369 13.2241 221.337 13.7124 221.337 14.2251V14.5791C221.337 15.0918 221.369 15.5841 221.435 16.0562C221.5 16.5282 221.622 16.9473 221.801 17.3135C221.988 17.6797 222.244 17.9686 222.57 18.1802C222.895 18.3918 223.319 18.4976 223.839 18.4976ZM237.89 7.79199V10.2822H230.199V7.79199H237.89ZM232.104 4.53271H235.619V17.0205C235.619 17.403 235.668 17.696 235.766 17.8994C235.871 18.1029 236.026 18.2453 236.229 18.3267C236.433 18.3999 236.689 18.4365 236.999 18.4365C237.218 18.4365 237.414 18.4284 237.584 18.4121C237.764 18.3877 237.914 18.3633 238.036 18.3389L238.048 20.9268C237.747 21.0244 237.422 21.1017 237.072 21.1587C236.722 21.2157 236.335 21.2441 235.912 21.2441C235.139 21.2441 234.464 21.118 233.886 20.8657C233.316 20.6053 232.877 20.1903 232.567 19.6206C232.258 19.0509 232.104 18.3022 232.104 17.3745V4.53271ZM114.013 40.1436V43H105.065V40.1436H114.013ZM106.249 25.2266V43H102.587V25.2266H106.249ZM119.604 29.792V43H116.076V29.792H119.604ZM115.856 26.3496C115.856 25.8369 116.035 25.4137 116.393 25.0801C116.751 24.7464 117.231 24.5796 117.833 24.5796C118.428 24.5796 118.904 24.7464 119.262 25.0801C119.628 25.4137 119.811 25.8369 119.811 26.3496C119.811 26.8623 119.628 27.2855 119.262 27.6191C118.904 27.9528 118.428 28.1196 117.833 28.1196C117.231 28.1196 116.751 27.9528 116.393 27.6191C116.035 27.2855 115.856 26.8623 115.856 26.3496ZM127.965 40.4976C128.397 40.4976 128.779 40.4162 129.113 40.2534C129.446 40.0825 129.707 39.8465 129.894 39.5454C130.089 39.2362 130.191 38.874 130.199 38.459H133.507C133.499 39.3867 133.251 40.2127 132.763 40.937C132.274 41.6532 131.619 42.2188 130.797 42.6338C129.975 43.0407 129.056 43.2441 128.039 43.2441C127.013 43.2441 126.118 43.0732 125.353 42.7314C124.596 42.3896 123.965 41.9176 123.461 41.3154C122.956 40.7051 122.578 39.9971 122.326 39.1914C122.073 38.3776 121.947 37.5068 121.947 36.5791V36.2251C121.947 35.2892 122.073 34.4185 122.326 33.6128C122.578 32.799 122.956 32.091 123.461 31.4888C123.965 30.8784 124.596 30.4023 125.353 30.0605C126.11 29.7188 126.997 29.5479 128.014 29.5479C129.097 29.5479 130.045 29.7554 130.858 30.1704C131.68 30.5854 132.323 31.1795 132.787 31.9526C133.259 32.7176 133.499 33.625 133.507 34.6748H130.199C130.191 34.2354 130.097 33.8366 129.918 33.4785C129.748 33.1204 129.495 32.8356 129.162 32.624C128.836 32.4043 128.433 32.2944 127.953 32.2944C127.44 32.2944 127.021 32.4043 126.696 32.624C126.37 32.8356 126.118 33.1286 125.939 33.5029C125.76 33.8691 125.634 34.2882 125.561 34.7603C125.495 35.2241 125.463 35.7124 125.463 36.2251V36.5791C125.463 37.0918 125.495 37.5841 125.561 38.0562C125.626 38.5282 125.748 38.9473 125.927 39.3135C126.114 39.6797 126.37 39.9686 126.696 40.1802C127.021 40.3918 127.444 40.4976 127.965 40.4976ZM141.625 43.2441C140.6 43.2441 139.68 43.0814 138.866 42.7559C138.052 42.4222 137.361 41.9624 136.791 41.3765C136.229 40.7905 135.798 40.111 135.497 39.3379C135.196 38.5566 135.045 37.7266 135.045 36.8477V36.3594C135.045 35.3584 135.188 34.4429 135.473 33.6128C135.757 32.7827 136.164 32.0625 136.693 31.4521C137.23 30.8418 137.882 30.3739 138.646 30.0483C139.411 29.7147 140.274 29.5479 141.234 29.5479C142.17 29.5479 143 29.7025 143.725 30.0117C144.449 30.321 145.055 30.7604 145.543 31.3301C146.04 31.8997 146.414 32.5833 146.667 33.3809C146.919 34.1702 147.045 35.0492 147.045 36.0176V37.4824H136.547V35.1387H143.59V34.8701C143.59 34.3818 143.501 33.9465 143.322 33.564C143.151 33.1733 142.89 32.8641 142.541 32.6362C142.191 32.4084 141.743 32.2944 141.198 32.2944C140.734 32.2944 140.335 32.3962 140.001 32.5996C139.668 32.8031 139.395 33.0879 139.184 33.4541C138.98 33.8203 138.826 34.2516 138.72 34.748C138.622 35.2363 138.573 35.7734 138.573 36.3594V36.8477C138.573 37.3766 138.646 37.8649 138.793 38.3125C138.948 38.7601 139.163 39.1466 139.44 39.4722C139.725 39.7977 140.067 40.05 140.465 40.229C140.872 40.408 141.332 40.4976 141.845 40.4976C142.479 40.4976 143.069 40.3755 143.615 40.1313C144.168 39.8791 144.644 39.5007 145.043 38.9961L146.752 40.8516C146.475 41.2503 146.097 41.6328 145.617 41.999C145.145 42.3652 144.575 42.6663 143.908 42.9023C143.24 43.1302 142.479 43.2441 141.625 43.2441ZM152.489 32.6118V43H148.974V29.792H152.27L152.489 32.6118ZM151.977 35.9321H151.024C151.024 34.9556 151.151 34.0767 151.403 33.2954C151.655 32.506 152.009 31.8346 152.465 31.2812C152.921 30.7197 153.462 30.2925 154.088 29.9995C154.723 29.6984 155.431 29.5479 156.212 29.5479C156.831 29.5479 157.396 29.6374 157.909 29.8164C158.422 29.9954 158.861 30.2803 159.228 30.6709C159.602 31.0615 159.887 31.5783 160.082 32.2212C160.285 32.8641 160.387 33.6494 160.387 34.5771V43H156.847V34.5649C156.847 33.979 156.766 33.5233 156.603 33.1978C156.44 32.8722 156.2 32.6444 155.883 32.5142C155.574 32.3758 155.191 32.3066 154.735 32.3066C154.263 32.3066 153.852 32.4002 153.502 32.5874C153.161 32.7746 152.876 33.035 152.648 33.3687C152.428 33.6942 152.261 34.0767 152.147 34.5161C152.034 34.9556 151.977 35.4276 151.977 35.9321ZM170.202 39.3501C170.202 39.0978 170.128 38.87 169.982 38.6665C169.835 38.4631 169.563 38.2759 169.164 38.105C168.773 37.9259 168.208 37.7632 167.467 37.6167C166.8 37.4702 166.177 37.2871 165.6 37.0674C165.03 36.8395 164.534 36.5669 164.11 36.2495C163.695 35.9321 163.37 35.5578 163.134 35.1265C162.898 34.687 162.78 34.1865 162.78 33.625C162.78 33.0716 162.898 32.5508 163.134 32.0625C163.378 31.5742 163.724 31.1429 164.171 30.7686C164.627 30.3861 165.181 30.089 165.832 29.8774C166.491 29.6577 167.231 29.5479 168.053 29.5479C169.201 29.5479 170.185 29.731 171.007 30.0972C171.837 30.4634 172.472 30.9679 172.912 31.6108C173.359 32.2456 173.583 32.9699 173.583 33.7837H170.067C170.067 33.4419 169.994 33.1367 169.848 32.8682C169.709 32.5915 169.49 32.3758 169.188 32.2212C168.896 32.0584 168.513 31.9771 168.041 31.9771C167.65 31.9771 167.313 32.0462 167.028 32.1846C166.743 32.3148 166.523 32.4938 166.369 32.7217C166.222 32.9414 166.149 33.1855 166.149 33.4541C166.149 33.6576 166.19 33.8407 166.271 34.0034C166.361 34.158 166.503 34.3005 166.698 34.4307C166.894 34.5609 167.146 34.6829 167.455 34.7969C167.772 34.9027 168.163 35.0003 168.627 35.0898C169.579 35.2852 170.43 35.5415 171.178 35.8589C171.927 36.1681 172.521 36.5913 172.96 37.1284C173.4 37.6574 173.62 38.3532 173.62 39.2158C173.62 39.8018 173.489 40.3389 173.229 40.8271C172.969 41.3154 172.594 41.7427 172.106 42.1089C171.618 42.467 171.032 42.7477 170.348 42.9512C169.673 43.1465 168.912 43.2441 168.065 43.2441C166.837 43.2441 165.795 43.0244 164.94 42.585C164.094 42.1455 163.451 41.5881 163.012 40.9126C162.58 40.229 162.365 39.5291 162.365 38.813H165.697C165.714 39.2931 165.836 39.6797 166.063 39.9727C166.299 40.2656 166.597 40.4772 166.955 40.6074C167.321 40.7376 167.715 40.8027 168.139 40.8027C168.594 40.8027 168.973 40.7417 169.274 40.6196C169.575 40.4894 169.803 40.3185 169.958 40.1069C170.12 39.8872 170.202 39.6349 170.202 39.3501ZM179.613 29.792V43H176.085V29.792H179.613ZM175.866 26.3496C175.866 25.8369 176.045 25.4137 176.403 25.0801C176.761 24.7464 177.241 24.5796 177.843 24.5796C178.437 24.5796 178.913 24.7464 179.271 25.0801C179.638 25.4137 179.821 25.8369 179.821 26.3496C179.821 26.8623 179.638 27.2855 179.271 27.6191C178.913 27.9528 178.437 28.1196 177.843 28.1196C177.241 28.1196 176.761 27.9528 176.403 27.6191C176.045 27.2855 175.866 26.8623 175.866 26.3496ZM185.961 32.6118V43H182.445V29.792H185.741L185.961 32.6118ZM185.448 35.9321H184.496C184.496 34.9556 184.622 34.0767 184.875 33.2954C185.127 32.506 185.481 31.8346 185.937 31.2812C186.392 30.7197 186.933 30.2925 187.56 29.9995C188.195 29.6984 188.903 29.5479 189.684 29.5479C190.303 29.5479 190.868 29.6374 191.381 29.8164C191.894 29.9954 192.333 30.2803 192.699 30.6709C193.074 31.0615 193.358 31.5783 193.554 32.2212C193.757 32.8641 193.859 33.6494 193.859 34.5771V43H190.319V34.5649C190.319 33.979 190.237 33.5233 190.075 33.1978C189.912 32.8722 189.672 32.6444 189.354 32.5142C189.045 32.3758 188.663 32.3066 188.207 32.3066C187.735 32.3066 187.324 32.4002 186.974 32.5874C186.632 32.7746 186.347 33.035 186.12 33.3687C185.9 33.6942 185.733 34.0767 185.619 34.5161C185.505 34.9556 185.448 35.4276 185.448 35.9321ZM204.894 29.792H208.08V42.5605C208.08 43.765 207.812 44.7863 207.274 45.6245C206.745 46.4709 206.005 47.1097 205.053 47.541C204.101 47.9805 202.994 48.2002 201.732 48.2002C201.179 48.2002 200.593 48.127 199.975 47.9805C199.364 47.834 198.778 47.6061 198.217 47.2969C197.663 46.9876 197.2 46.597 196.825 46.125L198.375 44.0498C198.782 44.5218 199.254 44.888 199.792 45.1484C200.329 45.417 200.923 45.5513 201.574 45.5513C202.208 45.5513 202.746 45.4333 203.185 45.1973C203.625 44.9694 203.962 44.6317 204.198 44.1841C204.434 43.7446 204.552 43.2116 204.552 42.585V32.8438L204.894 29.792ZM196.007 36.5547V36.2983C196.007 35.2892 196.129 34.3737 196.374 33.5518C196.626 32.7217 196.98 32.0096 197.436 31.4155C197.899 30.8215 198.461 30.3617 199.12 30.0361C199.779 29.7106 200.524 29.5479 201.354 29.5479C202.233 29.5479 202.969 29.7106 203.563 30.0361C204.158 30.3617 204.646 30.8255 205.028 31.4277C205.411 32.0218 205.708 32.7257 205.919 33.5396C206.139 34.3452 206.31 35.2282 206.432 36.1885V36.75C206.31 37.6696 206.127 38.5241 205.883 39.3135C205.639 40.1029 205.317 40.7946 204.918 41.3887C204.52 41.9746 204.023 42.4303 203.429 42.7559C202.843 43.0814 202.143 43.2441 201.33 43.2441C200.516 43.2441 199.779 43.0773 199.12 42.7437C198.469 42.41 197.912 41.9421 197.448 41.3398C196.984 40.7376 196.626 40.0296 196.374 39.2158C196.129 38.402 196.007 37.515 196.007 36.5547ZM199.523 36.2983V36.5547C199.523 37.0999 199.576 37.6086 199.682 38.0806C199.787 38.5526 199.95 38.9717 200.17 39.3379C200.398 39.696 200.679 39.9767 201.012 40.1802C201.354 40.3755 201.757 40.4731 202.221 40.4731C202.864 40.4731 203.389 40.3389 203.795 40.0703C204.202 39.7936 204.507 39.4152 204.711 38.9351C204.914 38.4549 205.032 37.9015 205.065 37.2749V35.6758C205.049 35.1631 204.979 34.7033 204.857 34.2964C204.735 33.8813 204.564 33.5273 204.345 33.2344C204.125 32.9414 203.84 32.7135 203.49 32.5508C203.14 32.388 202.725 32.3066 202.245 32.3066C201.781 32.3066 201.378 32.4124 201.037 32.624C200.703 32.8275 200.422 33.1082 200.194 33.4663C199.975 33.8244 199.808 34.2476 199.694 34.7358C199.58 35.216 199.523 35.7368 199.523 36.2983ZM221.154 25.2266V43H217.504V25.2266H221.154ZM227.807 32.6118V43H224.291V29.792H227.587L227.807 32.6118ZM227.294 35.9321H226.342C226.342 34.9556 226.468 34.0767 226.72 33.2954C226.972 32.506 227.326 31.8346 227.782 31.2812C228.238 30.7197 228.779 30.2925 229.406 29.9995C230.041 29.6984 230.749 29.5479 231.53 29.5479C232.148 29.5479 232.714 29.6374 233.227 29.8164C233.739 29.9954 234.179 30.2803 234.545 30.6709C234.919 31.0615 235.204 31.5783 235.399 32.2212C235.603 32.8641 235.705 33.6494 235.705 34.5771V43H232.165V34.5649C232.165 33.979 232.083 33.5233 231.92 33.1978C231.758 32.8722 231.518 32.6444 231.2 32.5142C230.891 32.3758 230.508 32.3066 230.053 32.3066C229.581 32.3066 229.17 32.4002 228.82 32.5874C228.478 32.7746 228.193 33.035 227.965 33.3687C227.746 33.6942 227.579 34.0767 227.465 34.5161C227.351 34.9556 227.294 35.4276 227.294 35.9321ZM242.87 40.4365L245.8 29.792H249.474L245.019 43H242.797L242.87 40.4365ZM240.856 29.792L243.798 40.4487L243.859 43H241.625L237.169 29.792H240.856ZM256.957 43.2441C255.932 43.2441 255.012 43.0814 254.198 42.7559C253.384 42.4222 252.693 41.9624 252.123 41.3765C251.562 40.7905 251.13 40.111 250.829 39.3379C250.528 38.5566 250.377 37.7266 250.377 36.8477V36.3594C250.377 35.3584 250.52 34.4429 250.805 33.6128C251.09 32.7827 251.496 32.0625 252.025 31.4521C252.562 30.8418 253.214 30.3739 253.979 30.0483C254.743 29.7147 255.606 29.5479 256.566 29.5479C257.502 29.5479 258.332 29.7025 259.057 30.0117C259.781 30.321 260.387 30.7604 260.875 31.3301C261.372 31.8997 261.746 32.5833 261.999 33.3809C262.251 34.1702 262.377 35.0492 262.377 36.0176V37.4824H251.879V35.1387H258.922V34.8701C258.922 34.3818 258.833 33.9465 258.654 33.564C258.483 33.1733 258.222 32.8641 257.873 32.6362C257.523 32.4084 257.075 32.2944 256.53 32.2944C256.066 32.2944 255.667 32.3962 255.333 32.5996C255 32.8031 254.727 33.0879 254.516 33.4541C254.312 33.8203 254.158 34.2516 254.052 34.748C253.954 35.2363 253.905 35.7734 253.905 36.3594V36.8477C253.905 37.3766 253.979 37.8649 254.125 38.3125C254.28 38.7601 254.495 39.1466 254.772 39.4722C255.057 39.7977 255.399 40.05 255.797 40.229C256.204 40.408 256.664 40.4976 257.177 40.4976C257.812 40.4976 258.402 40.3755 258.947 40.1313C259.5 39.8791 259.976 39.5007 260.375 38.9961L262.084 40.8516C261.807 41.2503 261.429 41.6328 260.949 41.999C260.477 42.3652 259.907 42.6663 259.24 42.9023C258.572 43.1302 257.812 43.2441 256.957 43.2441ZM267.821 32.6118V43H264.306V29.792H267.602L267.821 32.6118ZM267.309 35.9321H266.356C266.356 34.9556 266.483 34.0767 266.735 33.2954C266.987 32.506 267.341 31.8346 267.797 31.2812C268.253 30.7197 268.794 30.2925 269.42 29.9995C270.055 29.6984 270.763 29.5479 271.544 29.5479C272.163 29.5479 272.729 29.6374 273.241 29.8164C273.754 29.9954 274.193 30.2803 274.56 30.6709C274.934 31.0615 275.219 31.5783 275.414 32.2212C275.618 32.8641 275.719 33.6494 275.719 34.5771V43H272.179V34.5649C272.179 33.979 272.098 33.5233 271.935 33.1978C271.772 32.8722 271.532 32.6444 271.215 32.5142C270.906 32.3758 270.523 32.3066 270.067 32.3066C269.595 32.3066 269.184 32.4002 268.834 32.5874C268.493 32.7746 268.208 33.035 267.98 33.3687C267.76 33.6942 267.593 34.0767 267.479 34.5161C267.366 34.9556 267.309 35.4276 267.309 35.9321ZM284.862 29.792V32.2822H277.172V29.792H284.862ZM279.076 26.5327H282.592V39.0205C282.592 39.403 282.641 39.696 282.738 39.8994C282.844 40.1029 282.999 40.2453 283.202 40.3267C283.406 40.3999 283.662 40.4365 283.971 40.4365C284.191 40.4365 284.386 40.4284 284.557 40.4121C284.736 40.3877 284.887 40.3633 285.009 40.3389L285.021 42.9268C284.72 43.0244 284.394 43.1017 284.044 43.1587C283.694 43.2157 283.308 43.2441 282.885 43.2441C282.112 43.2441 281.436 43.118 280.858 42.8657C280.289 42.6053 279.849 42.1903 279.54 41.6206C279.231 41.0509 279.076 40.3022 279.076 39.3745V26.5327ZM285.985 36.5303V36.2739C285.985 35.3055 286.124 34.4144 286.4 33.6006C286.677 32.7786 287.08 32.0666 287.609 31.4644C288.138 30.8621 288.789 30.3942 289.562 30.0605C290.335 29.7188 291.222 29.5479 292.223 29.5479C293.224 29.5479 294.115 29.7188 294.896 30.0605C295.678 30.3942 296.333 30.8621 296.862 31.4644C297.399 32.0666 297.806 32.7786 298.083 33.6006C298.359 34.4144 298.498 35.3055 298.498 36.2739V36.5303C298.498 37.4906 298.359 38.3817 298.083 39.2036C297.806 40.0174 297.399 40.7295 296.862 41.3398C296.333 41.9421 295.682 42.41 294.909 42.7437C294.136 43.0773 293.249 43.2441 292.248 43.2441C291.247 43.2441 290.355 43.0773 289.574 42.7437C288.801 42.41 288.146 41.9421 287.609 41.3398C287.08 40.7295 286.677 40.0174 286.4 39.2036C286.124 38.3817 285.985 37.4906 285.985 36.5303ZM289.501 36.2739V36.5303C289.501 37.0837 289.55 37.6004 289.647 38.0806C289.745 38.5607 289.9 38.9839 290.111 39.3501C290.331 39.7082 290.616 39.9889 290.966 40.1924C291.316 40.3958 291.743 40.4976 292.248 40.4976C292.736 40.4976 293.155 40.3958 293.505 40.1924C293.855 39.9889 294.136 39.7082 294.347 39.3501C294.559 38.9839 294.713 38.5607 294.811 38.0806C294.917 37.6004 294.97 37.0837 294.97 36.5303V36.2739C294.97 35.7368 294.917 35.2323 294.811 34.7603C294.713 34.2801 294.555 33.8569 294.335 33.4907C294.123 33.1164 293.843 32.8234 293.493 32.6118C293.143 32.4002 292.72 32.2944 292.223 32.2944C291.727 32.2944 291.304 32.4002 290.954 32.6118C290.612 32.8234 290.331 33.1164 290.111 33.4907C289.9 33.8569 289.745 34.2801 289.647 34.7603C289.55 35.2323 289.501 35.7368 289.501 36.2739ZM304.174 32.6729V43H300.658V29.792H303.966L304.174 32.6729ZM308.153 29.7065L308.092 32.9658C307.921 32.9414 307.714 32.9211 307.47 32.9048C307.234 32.8804 307.018 32.8682 306.823 32.8682C306.326 32.8682 305.895 32.9333 305.529 33.0635C305.171 33.1855 304.87 33.3687 304.625 33.6128C304.389 33.8569 304.21 34.154 304.088 34.5039C303.974 34.8538 303.909 35.2526 303.893 35.7002L303.185 35.4805C303.185 34.626 303.271 33.8407 303.441 33.1245C303.612 32.4002 303.861 31.7695 304.186 31.2324C304.52 30.6953 304.927 30.2803 305.407 29.9873C305.887 29.6943 306.436 29.5479 307.055 29.5479C307.25 29.5479 307.449 29.5641 307.653 29.5967C307.856 29.6211 308.023 29.6577 308.153 29.7065ZM313.952 41.5107L317.455 29.792H321.227L315.917 44.9897C315.803 45.3234 315.648 45.6815 315.453 46.064C315.266 46.4465 315.01 46.8086 314.684 47.1504C314.367 47.5003 313.964 47.7852 313.476 48.0049C312.995 48.2246 312.405 48.3345 311.706 48.3345C311.372 48.3345 311.099 48.3141 310.888 48.2734C310.676 48.2327 310.424 48.1758 310.131 48.1025V45.5269C310.22 45.5269 310.314 45.5269 310.412 45.5269C310.509 45.535 310.603 45.5391 310.692 45.5391C311.156 45.5391 311.535 45.4862 311.828 45.3804C312.121 45.2746 312.357 45.1118 312.536 44.8921C312.715 44.6805 312.857 44.4038 312.963 44.062L313.952 41.5107ZM312.487 29.792L315.355 39.3623L315.856 43.0854L313.463 43.3418L308.715 29.792H312.487Z" fill="white"/>
<g clip-path="url(#clip0_114_103)">
<path d="M20.1921 2.23659L20.0771 16.1042C20.0771 21.8677 16.288 24.1043 11.1855 24.1043C6.79121 24.1043 1.21056 22.3435 1.21056 16.3393V2.23659C1.19296 1.90394 1.06935 1.58297 0.854582 1.31231C0.639817 1.04164 0.343053 0.832808 0 0.710938H7.2028C6.86889 0.838233 6.58275 1.04991 6.37874 1.32054C6.17474 1.59117 6.06156 1.90926 6.05278 2.23659V16.4541C6.05278 18.8274 6.95464 22.1849 11.8332 22.1849C16.3001 22.1849 17.886 19.5382 17.886 16.1698L17.8254 2.23659C17.8371 1.92142 17.7479 1.60989 17.5687 1.33931C17.3894 1.06873 17.1276 0.850566 16.8146 0.710938H21.1847C20.8751 0.852898 20.6171 1.07206 20.4411 1.34246C20.2652 1.61286 20.1788 1.92316 20.1921 2.23659Z" fill="white"/>
<path d="M30.3547 24.1041C27.8443 24.0767 25.3766 23.5146 23.1519 22.4636L22.9642 16.7329C23.6785 19.1389 25.9301 22.3269 29.8341 22.3269C33.5445 22.3269 34.6764 19.9209 34.6764 18.2585C34.6764 14.9776 31.4139 14.562 28.0183 12.8996C24.6227 11.2373 23.0611 9.33977 23.0611 6.7642C23.0369 2.18725 27.8065 0.33897 31.2202 0.33897C33.1937 0.33122 35.139 0.761213 36.8856 1.59121L37.0733 6.61109C36.5467 4.81203 34.41 2.09976 30.8086 2.09976C27.9517 2.09976 26.8259 3.89882 26.8259 5.38073C26.8259 7.44774 28.442 8.22423 31.9708 9.68427C35.4995 11.1443 39.1009 12.2708 39.1009 16.9844C39.1009 21.2223 34.9729 24.1041 30.3547 24.1041Z" fill="white"/>
<path d="M51.2186 23.7652H41.5765C41.879 23.617 42.1302 23.3959 42.3021 23.1267C42.4741 22.8574 42.5603 22.5504 42.551 22.2396V2.23659C42.566 1.92489 42.4823 1.6158 42.3097 1.34558C42.1371 1.07535 41.8827 0.8552 41.5765 0.710938H51.5576C63.9052 0.710938 66.3808 8.61261 66.3808 11.899C66.3808 17.7993 61.351 23.7652 51.2186 23.7652ZM50.7707 2.40611C49.8688 2.40611 47.8775 2.40611 47.3146 2.47719V22.0044H50.341C58.8148 22.0044 61.1875 16.8478 61.1875 11.899C61.1633 7.83064 58.5364 2.40611 50.7707 2.40611Z" fill="white"/>
<path d="M80.9679 23.7652C81.9485 23.2894 82.1361 22.8191 81.8698 22.1247C81.7608 21.7856 80.7803 19.7186 79.7331 17.4165H70.539C69.7504 18.9413 69.0494 20.5018 68.4387 22.0919C68.0997 22.9066 68.2874 23.3824 69.2982 23.787H64.123C64.8729 23.405 65.4845 22.8353 65.8844 22.1465C66.5805 20.8178 76.4647 0 76.4647 0C76.4647 0 86.4517 20.8178 87.1236 22.1028C87.2963 22.4772 87.5518 22.8158 87.8745 23.0979C88.1971 23.38 88.5801 23.5996 88.9999 23.7433L80.9679 23.7652ZM75.0544 7.32203C75.0544 7.32203 72.5001 13.0856 71.3016 15.6284H78.8676C77.1062 11.8662 75.0544 7.32203 75.0544 7.32203Z" fill="white"/>
<path d="M87.8742 27.0244C87.8742 27.0244 33.2903 25.7995 0.920044 41.3677C0.920044 41.3677 35.1969 29.1242 87.8742 30.3491V27.0244Z" fill="white"/>
<path d="M0.920044 27.0242C0.920044 27.0242 19.3205 27.1992 30.7421 31.0488C30.7421 31.0488 7.31178 29.299 0.920044 30.1739V27.0242Z" fill="white"/>
<path d="M0.920044 32.4487C0.920044 32.4487 14.0909 31.9019 22.0321 32.6237C22.0321 32.6237 2.85693 34.7235 0.920044 35.5984V32.4487Z" fill="white"/>
<path d="M78.8253 32.9847H78.5408C62.6644 33.2636 29.362 34.997 0.932129 44.0689V55.0055H87.8863V32.9847C87.8863 32.9847 84.5089 32.8917 78.8253 32.9847Z" fill="white"/>
</g>
<defs>
<clipPath id="clip0_114_103">
<rect width="89" height="55" fill="white"/>
</clipPath>
</defs>
</svg>
